{
.appVersion = "3109";
classes = (
{
code = "uni0713.Init uni0713.Medi uni0714.Init uni0714.Medi uni072E.Init uni072E.Medi";
name = class1;
},
{
code = "uni0713.Fina uni0713.Medi uni0714.Fina uni0714.Medi uni072E.Fina uni072E.Medi";
name = class2;
},
{
code = "uni0713.Fina uni0713.Medi uni0713.MediLong uni0714.Fina uni0714.Medi uni0714.MediLong uni072E.Fina uni072E.Medi uni072E.MediLong";
name = class3;
},
{
code = "uni0712.Init uni0712.Medi uni0713.Init uni0713.InitLong uni0713.Medi uni0713.MediLong uni0713.MediWide uni0713.MediWide2 uni0714.Init uni0714.InitLong uni0714.Medi uni0714.MediLong uni0714.MediWide uni0714.MediWide2 uni071A.Init uni071A.Medi uni071F.Init uni071F.Medi uni0721.Init uni0721.Medi uni0722.Init uni0722.Medi uni0723.Init uni0723.Medi uni0724.Init uni0724.Medi uni0725.Init uni0725.Medi uni0726.Init uni0726.Medi uni0727.Init uni0727.Medi uni072B.Init uni072B.Medi uni072D.Init uni072D.Medi uni072E.Init uni072E.InitLong uni072E.Medi uni072E.MediLong uni072E.MediWide uni072E.MediWide2";
name = class4;
},
{
code = "uni071B.Init uni071B.Medi uni071C.Init uni071C.Medi uni0720.Init uni0720.Medi uni074F.Init uni074F.Medi";
name = class6;
},
{

glyphs = (
{
glyphname = .notdef;
lastChange = "2018-09-11 18:35:11 +0000";
layers = (
{
layerId = "C0CED439-FB43-4F2F-B9A6-3E073DE83FB3";
paths = (
{
closed = 1;
nodes = (
"94 0 LINE",
"505 0 LINE",
"505 714 LINE",
"94 714 LINE"
);
},
{
closed = 1;
nodes = (
"145 51 LINE",
"145 663 LINE",
"454 663 LINE",
"454 51 LINE"
);
}
);
width = 600;
}
);
},
{
glyphname = uni200E;
lastChange = "2018-09-11 18:35:11 +0000";
layers = (
{
layerId = "C0CED439-FB43-4F2F-B9A6-3E073DE83FB3";
paths = (
{
closed = 1;
nodes = (
"17 0 LINE",
"17 603 LINE",
"147 603 LINE",
"80 539 LINE",
"104 515 LINE",
"210 620 LINE",
"104 725 LINE",
"80 701 LINE",
"147 637 LINE",
"-18 637 LINE",
"-18 0 LINE"
);
}
);
width = 0;
}
);
unicode = 200E;
},
{
glyphname = uni200F;
lastChange = "2018-09-11 18:35:11 +0000";
layers = (
{
layerId = "C0CED439-FB43-4F2F-B9A6-3E073DE83FB3";
paths = (
{
closed = 1;
nodes = (
"17 0 LINE",
"17 637 LINE",
"-147 637 LINE",
"-81 701 LINE",
"-104 725 LINE",
"-210 620 LINE",
"-104 515 LINE",
"-81 539 LINE",
"-147 603 LINE",
"-18 603 LINE",
"-18 0 LINE"
);
}
);
width = 0;
}
);
unicode = 200F;
},
{
glyphname = uni0710;
lastChange = "2018-09-11 18:35:11 +0000";
layers = (
{
anchors = (
{
name = Anchor6;
position = "{412, -49}";
},
{
name = Anchor8;
position = "{375, 450}";
}
);
layerId = "C0CED439-FB43-4F2F-B9A6-3E073DE83FB3";
paths = (
{
closed = 1;
nodes = (
"721 18 LINE",
"678 33 OFFCURVE",
"647 51 OFFCURVE",
"615 74 CURVE SMOOTH",
"581 99 OFFCURVE",
"547 127 OFFCURVE",
"500 167 CURVE SMOOTH",
"392 258 OFFCURVE",
"320 289 OFFCURVE",
"267 298 CURVE",
"267 300 LINE",
"561 303 OFFCURVE",
"755 405 OFFCURVE",
"861 514 CURVE",
"844 530 LINE",
"708 406 OFFCURVE",
"531 321 OFFCURVE",
"203 321 CURVE SMOOTH",
"184 321 OFFCURVE",
"129 323 OFFCURVE",
"98 328 CURVE",
"87 326 OFFCURVE",
"83 316 OFFCURVE",
"83 303 CURVE SMOOTH",
"83 293 OFFCURVE",
"87 274 OFFCURVE",
"94 241 CURVE SMOOTH",
"118 125 OFFCURVE",
"124 96 OFFCURVE",
"138 0 CURVE",
"164 0 LINE",
"148 117 OFFCURVE",
"125 230 OFFCURVE",
"108 299 CURVE",
"121 299 LINE SMOOTH",
"238 299 OFFCURVE",
"344 267 OFFCURVE",
"476 153 CURVE SMOOTH",
"563 78 OFFCURVE",
"636 17 OFFCURVE",
"710 -5 CURVE"
);
}
);
width = 875;
}
);
unicode = 0710;
},
{
glyphname = uni0710.SYRJ;
lastChange = "2018-09-11 18:35:11 +0000";
layers = (
{
anchors = (
{
name = Anchor120;
position = "{121, -193}";
},
{
name = Anchor122;
position = "{121, 743}";
}
);
layerId = "C0CED439-FB43-4F2F-B9A6-3E073DE83FB3";
paths = (
{
closed = 1;
nodes = (
"126 660 LINE",
"109 641 LINE",
"149 602 OFFCURVE",
"173 566 OFFCURVE",
"173 500 CURVE SMOOTH",
"173 448 OFFCURVE",
"158 383 OFFCURVE",
"133 315 CURVE SMOOTH",
"102 232 OFFCURVE",
"83 152 OFFCURVE",
"83 85 CURVE SMOOTH",
"83 33 OFFCURVE",
"88 -32 OFFCURVE",
"112 -88 CURVE",
"116 -88 LINE",
"137 -76 LINE",
"114 -10 OFFCURVE",
"109 38 OFFCURVE",
"109 91 CURVE SMOOTH",
"109 137 OFFCURVE",
"116 191 OFFCURVE",
"152 292 CURVE SMOOTH",
"189 396 OFFCURVE",
"199 448 OFFCURVE",
"199 502 CURVE SMOOTH",
"199 564 OFFCURVE",
"180 612 OFFCURVE",
"129 660 CURVE"
);
}
);
width = 272;
}
);
},
{
glyphname = uni0710.SYRN;
lastChange = "2018-09-11 18:35:11 +0000";
layers = (
{
anchors = (
{
name = Anchor64;
position = "{169, -98}";
},
{
name = Anchor66;
position = "{179, 667}";
}
);
layerId = "C0CED439-FB43-4F2F-B9A6-3E073DE83FB3";
paths = (
{
closed = 1;
nodes = (
"272 0 LINE",
"272 25 LINE",
"156 25 LINE SMOOTH",
"148 25 OFFCURVE",
"124 24 OFFCURVE",
"101 23 CURVE",
"101 25 LINE",
"157 112 OFFCURVE",
"175 165 OFFCURVE",
"194 229 CURVE SMOOTH",
"211 285 OFFCURVE",
"219 343 OFFCURVE",
"219 403 CURVE SMOOTH",
"219 515 OFFCURVE",
"189 561 OFFCURVE",
"126 575 CURVE",
"112 547 LINE",
"164 523 LINE",
"182 500 OFFCURVE",
"193 471 OFFCURVE",
"193 403 CURVE SMOOTH",
"193 349 OFFCURVE",
"185 290 OFFCURVE",
"167 228 CURVE SMOOTH",
"147 160 OFFCURVE",
"116 90 OFFCURVE",
"70 21 CURVE",
"70 0 LINE"
);
}
);
width = 342;
}
);
},
{
glyphname = uni0710.Fina3;
lastChange = "2018-09-11 18:35:11 +0000";
layers = (
{
anchors = (
{
name = Anchor6;
position = "{412, -49}";
},
{
name = Anchor8;
position = "{376, 451}";
}
);
layerId = "C0CED439-FB43-4F2F-B9A6-3E073DE83FB3";
paths = (
{
closed = 1;
nodes = (
"721 18 LINE",
"678 33 OFFCURVE",
"647 51 OFFCURVE",
"615 74 CURVE SMOOTH",
"581 99 OFFCURVE",
"547 127 OFFCURVE",
"500 167 CURVE SMOOTH",
"392 258 OFFCURVE",
"320 289 OFFCURVE",
"267 298 CURVE",
"267 300 LINE",
"561 303 OFFCURVE",
"755 405 OFFCURVE",
"861 514 CURVE",
"844 530 LINE",
"708 406 OFFCURVE",
"531 321 OFFCURVE",
"203 321 CURVE SMOOTH",
"184 321 OFFCURVE",
"129 323 OFFCURVE",
"98 328 CURVE",
"87 326 OFFCURVE",
"83 316 OFFCURVE",
"83 303 CURVE SMOOTH",
"83 293 OFFCURVE",
"87 274 OFFCURVE",
"94 241 CURVE SMOOTH",
"118 125 OFFCURVE",
"124 96 OFFCURVE",
"138 0 CURVE",
"164 0 LINE",
"148 117 OFFCURVE",
"125 230 OFFCURVE",
"108 299 CURVE",
"121 299 LINE SMOOTH",
"238 299 OFFCURVE",
"344 267 OFFCURVE",
"476 153 CURVE SMOOTH",
"563 78 OFFCURVE",
"636 17 OFFCURVE",
"710 -5 CURVE"
);
}
);
width = 875;
}
);
},
{
glyphname = uni0710.Fina3.SYRJ;
lastChange = "2018-09-11 18:35:11 +0000";
layers = (
{
anchors = (
{
name = Anchor120;
position = "{94, -195}";
},
{
name = Anchor122;
position = "{121, 743}";
}
);
layerId = "C0CED439-FB43-4F2F-B9A6-3E073DE83FB3";
paths = (
{
closed = 1;
nodes = (
"108 654 LINE",
"108 110 LINE SMOOTH",
"108 16 OFFCURVE",
"96 -34 OFFCURVE",
"75 -77 CURVE",
"96 -88 LINE",
"122 -41 OFFCURVE",
"134 22 OFFCURVE",
"134 122 CURVE SMOOTH",
"134 654 LINE"
);
}
);
width = 234;
}
);
},
{
glyphname = uni0710.Fina3.SYRN;
lastChange = "2018-09-11 18:35:11 +0000";
layers = (
{
anchors = (
{
name = Anchor64;
position = "{169, -98}";
},
{
name = Anchor66;
position = "{180, 667}";
}
);
layerId = "C0CED439-FB43-4F2F-B9A6-3E073DE83FB3";
paths = (
{
closed = 1;
nodes = (
"272 0 LINE",
"272 25 LINE",
"156 25 LINE SMOOTH",
"148 25 OFFCURVE",
"124 24 OFFCURVE",
"101 23 CURVE",
"101 25 LINE",
"157 112 OFFCURVE",
"175 165 OFFCURVE",
"194 229 CURVE SMOOTH",
"211 285 OFFCURVE",
"219 343 OFFCURVE",
"219 403 CURVE SMOOTH",
"219 515 OFFCURVE",
"189 561 OFFCURVE",
"126 575 CURVE",
"112 547 LINE",
"164 523 LINE",
"182 500 OFFCURVE",
"193 471 OFFCURVE",
"193 403 CURVE SMOOTH",
"193 349 OFFCURVE",
"185 290 OFFCURVE",
"167 228 CURVE SMOOTH",
"147 160 OFFCURVE",
"116 90 OFFCURVE",
"70 21 CURVE",
"70 0 LINE"
);
}
);
width = 342;
}
);
},
{
glyphname = uni0710.Fina2;
lastChange = "2018-09-11 18:35:11 +0000";
layers = (
{
anchors = (
{
name = Anchor6;
position = "{411, -49}";
},
{
name = Anchor8;
position = "{377, 450}";
}
);
layerId = "C0CED439-FB43-4F2F-B9A6-3E073DE83FB3";
paths = (
{
closed = 1;
nodes = (
"721 18 LINE",
"678 33 OFFCURVE",
"647 51 OFFCURVE",
"615 74 CURVE SMOOTH",
"581 99 OFFCURVE",
"547 127 OFFCURVE",
"500 167 CURVE SMOOTH",
"392 258 OFFCURVE",
"320 289 OFFCURVE",
"267 298 CURVE",
"267 300 LINE",
"561 303 OFFCURVE",
"755 405 OFFCURVE",
"861 514 CURVE",
"844 530 LINE",
"708 406 OFFCURVE",
"531 321 OFFCURVE",
"203 321 CURVE SMOOTH",
"184 321 OFFCURVE",
"129 323 OFFCURVE",
"98 328 CURVE",
"87 326 OFFCURVE",
"83 316 OFFCURVE",
"83 303 CURVE SMOOTH",
"83 293 OFFCURVE",
"87 274 OFFCURVE",
"94 241 CURVE SMOOTH",
"118 125 OFFCURVE",
"124 96 OFFCURVE",
"138 0 CURVE",
"164 0 LINE",
"148 117 OFFCURVE",
"125 230 OFFCURVE",
"108 299 CURVE",
"121 299 LINE SMOOTH",
"238 299 OFFCURVE",
"344 267 OFFCURVE",
"476 153 CURVE SMOOTH",
"563 78 OFFCURVE",
"636 17 OFFCURVE",
"710 -5 CURVE"
);
}
);
width = 875;
}
);
},
{
glyphname = uni0710.Fina2.SYRJ;
lastChange = "2018-09-11 18:35:11 +0000";
layers = (
{
anchors = (
{
name = Anchor120;
position = "{94, -195}";
},
{
name = Anchor122;
position = "{121, 743}";
}
);
layerId = "C0CED439-FB43-4F2F-B9A6-3E073DE83FB3";
paths = (
{
closed = 1;
nodes = (
"108 654 LINE",
"108 110 LINE SMOOTH",
"108 16 OFFCURVE",
"96 -34 OFFCURVE",
"75 -77 CURVE",
"96 -88 LINE",
"122 -41 OFFCURVE",
"134 22 OFFCURVE",
"134 122 CURVE SMOOTH",
"134 654 LINE"
);
}
);
width = 234;
}
);
},
{
glyphname = uni0710.Fina2.SYRN;
lastChange = "2018-09-11 18:35:11 +0000";
layers = (
{
anchors = (
{
name = Anchor64;
position = "{171, -141}";
},
{
name = Anchor66;
position = "{182, 667}";
}
);
layerId = "C0CED439-FB43-4F2F-B9A6-3E073DE83FB3";
paths = (
{
closed = 1;
nodes = (
"269 0 LINE",
"269 25 LINE",
"209 25 LINE SMOOTH",
"184 25 OFFCURVE",
"139 24 OFFCURVE",
"110 23 CURVE",
"110 25 LINE",
"194 177 OFFCURVE",
"223 294 OFFCURVE",
"223 403 CURVE SMOOTH",
"223 515 OFFCURVE",
"193 561 OFFCURVE",
"130 575 CURVE",
"116 547 LINE",
"168 523 LINE",
"186 500 OFFCURVE",
"197 471 OFFCURVE",
"197 403 CURVE SMOOTH",
"197 289 OFFCURVE",
"158 155 OFFCURVE",
"82 25 CURVE",
"70 25 LINE",
"70 2 LINE",
"77 0 LINE",
"92 -44 LINE",
"101 -44 LINE",
"103 0 LINE"
);
}
);
width = 339;
}
);
},
{
glyphname = uni0710.Fina1;
lastChange = "2018-09-11 18:35:11 +0000";
layers = (
{
anchors = (
{
name = Anchor6;
position = "{412, -49}";
},
{
name = Anchor8;
position = "{375, 449}";
}
);
layerId = "C0CED439-FB43-4F2F-B9A6-3E073DE83FB3";
paths = (
{
closed = 1;
nodes = (
"832 0 LINE",
"832 25 LINE",
"797 25 LINE SMOOTH",
"690 25 OFFCURVE",
"656 41 OFFCURVE",
"502 167 CURVE SMOOTH",
"378 268 OFFCURVE",
"331 282 OFFCURVE",
"265 298 CURVE",
"265 300 LINE",
"559 303 OFFCURVE",
"760 417 OFFCURVE",
"866 526 CURVE",
"849 542 LINE",
"713 418 OFFCURVE",
"531 321 OFFCURVE",
"203 321 CURVE SMOOTH",
"184 321 OFFCURVE",
"129 323 OFFCURVE",
"98 328 CURVE",
"87 326 OFFCURVE",
"83 316 OFFCURVE",
"83 303 CURVE SMOOTH",
"83 293 OFFCURVE",
"87 274 OFFCURVE",
"94 241 CURVE SMOOTH",
"118 125 OFFCURVE",
"124 96 OFFCURVE",
"138 0 CURVE",
"164 0 LINE",
"148 117 OFFCURVE",
"125 230 OFFCURVE",
"108 299 CURVE",
"120 299 LINE SMOOTH",
"237 299 OFFCURVE",
"344 267 OFFCURVE",
"476 153 CURVE SMOOTH",
"586 58 OFFCURVE",
"665 0 OFFCURVE",
"782 0 CURVE SMOOTH"
);
}
);
width = 832;
}
);
},
{
glyphname = uni0710.Fina1.SYRJ;
lastChange = "2018-09-11 18:35:11 +0000";
layers = (
{
anchors = (
{
name = Anchor120;
position = "{94, -195}";
},
{
name = Anchor122;
position = "{121, 743}";
}
);
layerId = "C0CED439-FB43-4F2F-B9A6-3E073DE83FB3";
paths = (
{
closed = 1;
nodes = (
"108 654 LINE",
"108 110 LINE SMOOTH",
"108 16 OFFCURVE",
"96 -34 OFFCURVE",
"75 -77 CURVE",
"96 -88 LINE",
"116 -53 OFFCURVE",
"125 -12 OFFCURVE",
"131 39 CURVE",
"133 39 LINE",
"153 5 OFFCURVE",
"201 0 OFFCURVE",
"253 0 CURVE",
"253 25 LINE",
"184 25 OFFCURVE",
"143 35 OFFCURVE",
"134 85 CURVE",
"134 93 OFFCURVE",
"134 102 OFFCURVE",
"134 110 CURVE",
"134 654 LINE"
);
}
);
width = 233;
}
);
},
{
glyphname = uni0710.Fina1.SYRN;
lastChange = "2018-09-11 18:35:11 +0000";
layers = (
{
anchors = (
{
name = Anchor64;
position = "{172, -141}";
},
{
name = Anchor66;
position = "{182, 667}";
}
);
layerId = "C0CED439-FB43-4F2F-B9A6-3E073DE83FB3";
paths = (
{
closed = 1;
nodes = (
"324 0 LINE",
"324 25 LINE",
"209 25 LINE SMOOTH",
"184 25 OFFCURVE",
"139 24 OFFCURVE",
"110 23 CURVE",
"110 25 LINE",
"194 177 OFFCURVE",
"223 294 OFFCURVE",
"223 403 CURVE SMOOTH",
"223 515 OFFCURVE",
"193 561 OFFCURVE",
"130 575 CURVE",
"116 547 LINE",
"168 523 LINE",
"186 500 OFFCURVE",
"197 471 OFFCURVE",
"197 403 CURVE SMOOTH",
"197 289 OFFCURVE",
"158 155 OFFCURVE",
"82 25 CURVE",
"70 25 LINE",
"70 2 LINE",
"77 0 LINE",
"92 -44 LINE",
"101 -44 LINE",
"103 0 LINE"
);
}
);
width = 324;
}
);
},
{
glyphname = uni0710.Medi2;
lastChange = "2018-09-11 18:35:11 +0000";
layers = (
{
anchors = (
{
name = Anchor6;
position = "{411, -49}";
},
{
name = Anchor8;
position = "{377, 451}";
}
);
layerId = "C0CED439-FB43-4F2F-B9A6-3E073DE83FB3";
paths = (
{
closed = 1;
nodes = (
"832 0 LINE",
"832 25 LINE",
"797 25 LINE SMOOTH",
"690 25 OFFCURVE",
"656 41 OFFCURVE",
"502 167 CURVE SMOOTH",
"378 268 OFFCURVE",
"331 282 OFFCURVE",
"265 298 CURVE",
"265 300 LINE",
"559 303 OFFCURVE",
"760 417 OFFCURVE",
"866 526 CURVE",
"849 542 LINE",
"713 418 OFFCURVE",
"531 321 OFFCURVE",
"203 321 CURVE SMOOTH",
"184 321 OFFCURVE",
"129 323 OFFCURVE",
"98 328 CURVE",
"87 326 OFFCURVE",
"83 316 OFFCURVE",
"83 303 CURVE SMOOTH",
"83 293 OFFCURVE",
"87 274 OFFCURVE",
"94 241 CURVE SMOOTH",
"118 125 OFFCURVE",
"124 96 OFFCURVE",
"138 0 CURVE",
"164 0 LINE",
"148 117 OFFCURVE",
"125 230 OFFCURVE",
"108 299 CURVE",
"120 299 LINE SMOOTH",
"237 299 OFFCURVE",
"344 267 OFFCURVE",
"476 153 CURVE SMOOTH",
"586 58 OFFCURVE",
"665 0 OFFCURVE",
"782 0 CURVE SMOOTH"
);
}
);
width = 832;
}
);
},
{
glyphname = uni0710.Medi2.SYRJ;
lastChange = "2018-09-11 18:35:11 +0000";
layers = (
{
anchors = (
{
name = Anchor120;
position = "{94, -195}";
},
{
name = Anchor122;
position = "{121, 743}";
}
);
layerId = "C0CED439-FB43-4F2F-B9A6-3E073DE83FB3";
paths = (
{
closed = 1;
nodes = (
"108 654 LINE",
"108 110 LINE SMOOTH",
"108 16 OFFCURVE",
"96 -34 OFFCURVE",
"75 -77 CURVE",
"96 -88 LINE",
"116 -53 OFFCURVE",
"125 -12 OFFCURVE",
"131 39 CURVE",
"133 39 LINE",
"153 5 OFFCURVE",
"201 0 OFFCURVE",
"253 0 CURVE",
"253 25 LINE",
"184 25 OFFCURVE",
"143 35 OFFCURVE",
"134 85 CURVE",
"134 93 OFFCURVE",
"134 102 OFFCURVE",
"134 110 CURVE",
"134 654 LINE"
);
}
);
width = 253;
}
);
},
{
glyphname = uni0710.Medi2.SYRN;
lastChange = "2018-09-11 18:35:11 +0000";
layers = (
{
anchors = (
{
name = Anchor64;
position = "{172, -141}";
},
{
name = Anchor66;
position = "{182, 667}";
}
);
layerId = "C0CED439-FB43-4F2F-B9A6-3E073DE83FB3";
paths = (
{
closed = 1;
nodes = (
"320 0 LINE",
"320 25 LINE",
"156 25 LINE SMOOTH",
"148 25 OFFCURVE",
"124 24 OFFCURVE",
"101 23 CURVE",
"101 25 LINE",
"157 112 OFFCURVE",
"175 165 OFFCURVE",
"194 229 CURVE SMOOTH",
"211 285 OFFCURVE",
"219 343 OFFCURVE",
"219 403 CURVE SMOOTH",
"219 515 OFFCURVE",
"189 561 OFFCURVE",
"126 575 CURVE",
"112 547 LINE",
"164 523 LINE",
"182 500 OFFCURVE",
"193 471 OFFCURVE",
"193 403 CURVE SMOOTH",
"193 349 OFFCURVE",
"185 290 OFFCURVE",
"167 228 CURVE SMOOTH",
"147 160 OFFCURVE",
"116 90 OFFCURVE",
"70 21 CURVE",
"70 0 LINE"
);
}
);
width = 320;
}
);
},
{
glyphname = uni0711;
lastChange = "2018-09-11 18:35:11 +0000";
layers = (
{
anchors = (
{
name = _Anchor10;
position = "{0, 540}";
},
{
name = _Anchor8;
position = "{0, 542}";
}
);
layerId = "C0CED439-FB43-4F2F-B9A6-3E073DE83FB3";
paths = (
{
closed = 1;
nodes = (
"81 570 LINE",
"60 578 OFFCURVE",
"44 593 OFFCURVE",
"18 617 CURVE SMOOTH",
"-4 638 OFFCURVE",
"-17 649 OFFCURVE",
"-33 656 CURVE",
"-33 657 LINE",
"28 659 OFFCURVE",
"82 689 OFFCURVE",
"110 724 CURVE",
"98 735 LINE",
"60 694 OFFCURVE",
"8 671 OFFCURVE",
"-54 671 CURVE SMOOTH",
"-63 671 OFFCURVE",
"-84 672 OFFCURVE",
"-100 675 CURVE",
"-105 673 OFFCURVE",
"-108 668 OFFCURVE",
"-108 662 CURVE SMOOTH",
"-108 659 OFFCURVE",
"-107 653 OFFCURVE",
"-104 638 CURVE SMOOTH",
"-97 601 OFFCURVE",
"-95 588 OFFCURVE",
"-91 557 CURVE",
"-74 557 LINE",
"-78 594 OFFCURVE",
"-86 636 OFFCURVE",
"-91 656 CURVE",
"-84 656 LINE SMOOTH",
"-56 656 OFFCURVE",
"-32 644 OFFCURVE",
"5 606 CURVE SMOOTH",
"29 581 OFFCURVE",
"56 561 OFFCURVE",
"74 555 CURVE"
);
}
);
width = 0;
}
);
unicode = 0711;
category = Mark;
subCategory = Nonspacing;
},
{
glyphname = uni0711.SYRJ;
lastChange = "2018-09-11 18:35:11 +0000";
layers = (
{
anchors = (
{
name = _Anchor122;
position = "{0, 542}";
},
{
name = _Anchor124;
position = "{0, 540}";
}
);
layerId = "C0CED439-FB43-4F2F-B9A6-3E073DE83FB3";
paths = (
{
closed = 1;
nodes = (
"-15 791 LINE",
"2 775 OFFCURVE",
"7 758 OFFCURVE",
"7 737 CURVE SMOOTH",
"7 723 OFFCURVE",
"3 708 OFFCURVE",
"-7 683 CURVE SMOOTH",
"-17 658 OFFCURVE",
"-24 636 OFFCURVE",
"-24 614 CURVE SMOOTH",
"-24 598 OFFCURVE",
"-21 580 OFFCURVE",
"-10 563 CURVE",
"8 571 LINE",
"-1 588 OFFCURVE",
"-4 598 OFFCURVE",
"-4 617 CURVE SMOOTH",
"-4 632 OFFCURVE",
"-1 648 OFFCURVE",
"11 677 CURVE SMOOTH",
"25 711 OFFCURVE",
"27 726 OFFCURVE",
"27 740 CURVE SMOOTH",
"27 765 OFFCURVE",
"19 786 OFFCURVE",
"0 803 CURVE"
);
}
);
width = 0;
}
);
category = Mark;
subCategory = Nonspacing;
},
{
glyphname = uni0711.SYRN;
lastChange = "2018-09-11 18:35:11 +0000";
layers = (
{
anchors = (
{
name = _Anchor66;
position = "{0, 542}";
},
{
name = _Anchor68;
position = "{0, 545}";
}
);
layerId = "C0CED439-FB43-4F2F-B9A6-3E073DE83FB3";
paths = (
{
closed = 1;
nodes = (
"42 552 LINE",
"42 568 LINE",
"-9 568 LINE SMOOTH",
"-17 568 OFFCURVE",
"-23 568 OFFCURVE",
"-34 567 CURVE",
"-34 568 LINE",
"0 622 OFFCURVE",
"19 665 OFFCURVE",
"19 713 CURVE SMOOTH",
"19 763 OFFCURVE",
"5 780 OFFCURVE",
"-23 786 CURVE",
"-31 770 LINE",
"-8 760 LINE",
"0 749 OFFCURVE",
"3 735 OFFCURVE",
"3 713 CURVE SMOOTH",
"3 672 OFFCURVE",
"-13 625 OFFCURVE",
"-52 566 CURVE",
"-52 552 LINE"
);
}
);
width = 0;
}
);
category = Mark;
subCategory = Nonspacing;
},
{
glyphname = uni0712;
lastChange = "2018-09-11 18:35:11 +0000";
layers = (
{
anchors = (
{
name = Anchor2;
position = "{785, 450}";
},
{
name = Anchor4;
position = "{779, -84}";
},
{
name = Anchor6;
position = "{427, -97}";
},
{
name = Anchor8;
position = "{535, 469}";
}
);
layerId = "C0CED439-FB43-4F2F-B9A6-3E073DE83FB3";
paths = (
{
closed = 1;
nodes = (
"667 0 LINE SMOOTH",
"779 0 OFFCURVE",
"810 51 OFFCURVE",
"810 147 CURVE SMOOTH",
"810 180 OFFCURVE",
"807 214 OFFCURVE",
"802 242 CURVE SMOOTH",
"785 339 OFFCURVE",
"732 376 OFFCURVE",
"648 376 CURVE SMOOTH",
"572 376 OFFCURVE",
"543 371 OFFCURVE",
"437 371 CURVE SMOOTH",
"382 371 OFFCURVE",
"340 373 OFFCURVE",
"316 378 CURVE",
"316 353 LINE",
"335 348 OFFCURVE",
"373 346 OFFCURVE",
"435 346 CURVE SMOOTH",
"511 346 OFFCURVE",
"580 351 OFFCURVE",
"644 351 CURVE SMOOTH",
"717 351 OFFCURVE",
"755 325 OFFCURVE",
"775 242 CURVE SMOOTH",
"781 219 OFFCURVE",
"784 177 OFFCURVE",
"784 147 CURVE SMOOTH",
"784 60 OFFCURVE",
"755 25 OFFCURVE",
"674 25 CURVE SMOOTH",
"228 25 LINE SMOOTH",
"137 25 OFFCURVE",
"106 34 OFFCURVE",
"77 73 CURVE",
"60 53 LINE",
"77 23 OFFCURVE",
"113 0 OFFCURVE",
"197 0 CURVE SMOOTH"
);
}
);
width = 889;
}
);
unicode = 0712;
},
{
glyphname = uni0712.SYRJ;
lastChange = "2018-09-11 18:35:11 +0000";
layers = (
{
anchors = (
{
name = Anchor116;
position = "{697, 399}";
},
{
name = Anchor118;
position = "{681, -68}";
},
{
name = Anchor120;
position = "{407, -98}";
},
{
name = Anchor122;
position = "{464, 474}";
}
);
layerId = "C0CED439-FB43-4F2F-B9A6-3E073DE83FB3";
paths = (
{
closed = 1;
nodes = (
"626 0 LINE SMOOTH",
"727 0 OFFCURVE",
"756 52 OFFCURVE",
"756 113 CURVE SMOOTH",
"756 218 OFFCURVE",
"690 295 OFFCURVE",
"601 337 CURVE SMOOTH",
"550 361 OFFCURVE",
"492 374 OFFCURVE",
"435 374 CURVE SMOOTH",
"404 374 OFFCURVE",
"359 366 OFFCURVE",
"324 352 CURVE",
"331 331 LINE",
"367 342 OFFCURVE",
"411 349 OFFCURVE",
"433 349 CURVE SMOOTH",
"580 349 OFFCURVE",
"729 262 OFFCURVE",
"729 113 CURVE SMOOTH",
"729 57 OFFCURVE",
"702 25 OFFCURVE",
"627 25 CURVE SMOOTH",
"270 25 LINE SMOOTH",
"151 25 OFFCURVE",
"86 71 OFFCURVE",
"86 176 CURVE SMOOTH",
"86 180 LINE",
"63 179 LINE",
"62 173 OFFCURVE",
"62 168 OFFCURVE",
"62 165 CURVE SMOOTH",
"62 45 OFFCURVE",
"145 0 OFFCURVE",
"266 0 CURVE SMOOTH"
);
}
);
width = 834;
}
);
},
{
glyphname = uni0712.SYRN;
lastChange = "2018-09-11 18:35:11 +0000";
layers = (
{
anchors = (
{
name = Anchor60;
position = "{665, 461}";
},
{
name = Anchor62;
position = "{665, -81}";
},
{
name = Anchor64;
position = "{340, -102}";
},
{
name = Anchor66;
position = "{463, 480}";
}
);
layerId = "C0CED439-FB43-4F2F-B9A6-3E073DE83FB3";
paths = (
{
closed = 1;
nodes = (
"632 0 LINE",
"647 20 LINE",
"647 377 LINE",
"453 377 LINE SMOOTH",
"405 377 OFFCURVE",
"345 381 OFFCURVE",
"303 388 CURVE",
"303 363 LINE",
"331 357 OFFCURVE",
"396 352 OFFCURVE",
"457 352 CURVE SMOOTH",
"621 352 LINE",
"621 25 LINE",
"228 25 LINE SMOOTH",
"137 25 OFFCURVE",
"106 34 OFFCURVE",
"77 73 CURVE",
"60 53 LINE",
"77 23 OFFCURVE",
"113 0 OFFCURVE",
"197 0 CURVE SMOOTH"
);
}
);
width = 727;
}
);
},
{
glyphname = uni0712.Fina;
lastChange = "2018-09-11 18:35:11 +0000";
layers = (
{
anchors = (
{
name = Anchor2;
position = "{785, 450}";
},
{
name = Anchor4;
position = "{780, -83}";
},
{
name = Anchor6;
position = "{427, -97}";
},
{
name = Anchor8;
position = "{535, 469}";
}
);
layerId = "C0CED439-FB43-4F2F-B9A6-3E073DE83FB3";
paths = (
{
closed = 1;
nodes = (
"898 25 LINE",
"766 25 LINE",
"766 27 LINE",
"805 54 OFFCURVE",
"810 98 OFFCURVE",
"810 147 CURVE SMOOTH",
"810 180 OFFCURVE",
"807 214 OFFCURVE",
"802 242 CURVE SMOOTH",
"785 339 OFFCURVE",
"732 376 OFFCURVE",
"648 376 CURVE SMOOTH",
"572 376 OFFCURVE",
"543 371 OFFCURVE",
"437 371 CURVE SMOOTH",
"382 371 OFFCURVE",
"340 373 OFFCURVE",
"316 378 CURVE",
"316 353 LINE",
"335 348 OFFCURVE",
"373 346 OFFCURVE",
"435 346 CURVE SMOOTH",
"511 346 OFFCURVE",
"580 351 OFFCURVE",
"644 351 CURVE SMOOTH",
"717 351 OFFCURVE",
"755 325 OFFCURVE",
"775 242 CURVE SMOOTH",
"781 219 OFFCURVE",
"784 177 OFFCURVE",
"784 147 CURVE SMOOTH",
"784 60 OFFCURVE",
"755 25 OFFCURVE",
"674 25 CURVE SMOOTH",
"228 25 LINE SMOOTH",
"137 25 OFFCURVE",
"106 34 OFFCURVE",
"77 73 CURVE",
"60 53 LINE",
"77 23 OFFCURVE",
"113 0 OFFCURVE",
"197 0 CURVE SMOOTH",
"898 0 LINE"
);
}
);
width = 898;
}
);
},
{
glyphname = uni0712.Fina.SYRJ;
lastChange = "2018-09-11 18:35:11 +0000";
layers = (
{
anchors = (
{
name = Anchor116;
position = "{696, 400}";
},
{
name = Anchor118;
position = "{680, -104}";
},
{
name = Anchor120;
position = "{407, -98}";
},
{
name = Anchor122;
position = "{464, 474}";
}
);
layerId = "C0CED439-FB43-4F2F-B9A6-3E073DE83FB3";
paths = (
{
closed = 1;
nodes = (
"829 0 LINE",
"829 25 LINE",
"780 25 LINE SMOOTH",
"761 25 OFFCURVE",
"729 24 OFFCURVE",
"707 23 CURVE",
"707 24 LINE",
"735 38 OFFCURVE",
"756 67 OFFCURVE",
"756 113 CURVE SMOOTH",
"756 223 OFFCURVE",
"684 298 OFFCURVE",
"601 337 CURVE SMOOTH",
"548 362 OFFCURVE",
"492 374 OFFCURVE",
"435 374 CURVE SMOOTH",
"404 374 OFFCURVE",
"359 366 OFFCURVE",
"324 352 CURVE",
"331 331 LINE",
"367 342 OFFCURVE",
"411 349 OFFCURVE",
"433 349 CURVE SMOOTH",
"580 349 OFFCURVE",
"729 262 OFFCURVE",
"729 112 CURVE SMOOTH",
"729 58 OFFCURVE",
"702 25 OFFCURVE",
"627 25 CURVE SMOOTH",
"270 25 LINE SMOOTH",
"151 25 OFFCURVE",
"86 71 OFFCURVE",
"86 176 CURVE SMOOTH",
"86 180 LINE",
"63 179 LINE",
"62 173 OFFCURVE",
"62 168 OFFCURVE",
"62 165 CURVE SMOOTH",
"62 45 OFFCURVE",
"145 0 OFFCURVE",
"266 0 CURVE SMOOTH"
);
}
);
width = 829;
}
);
},
{
glyphname = uni0712.Fina.SYRN;
lastChange = "2018-09-11 18:35:11 +0000";
layers = (
{
anchors = (
{
name = Anchor60;
position = "{665, 461}";
},
{
name = Anchor62;
position = "{665, -81}";
},
{
name = Anchor64;
position = "{340, -98}";
},
{
name = Anchor66;
position = "{463, 480}";
}
);
layerId = "C0CED439-FB43-4F2F-B9A6-3E073DE83FB3";
paths = (
{
closed = 1;
nodes = (
"759 0 LINE",
"759 25 LINE",
"691 25 LINE SMOOTH",
"650 25 OFFCURVE",
"647 45 OFFCURVE",
"647 98 CURVE SMOOTH",
"647 377 LINE",
"453 377 LINE SMOOTH",
"405 377 OFFCURVE",
"345 381 OFFCURVE",
"303 388 CURVE",
"303 363 LINE",
"331 357 OFFCURVE",
"396 352 OFFCURVE",
"457 352 CURVE SMOOTH",
"621 352 LINE",
"621 80 LINE SMOOTH",
"621 57 OFFCURVE",
"623 39 OFFCURVE",
"631 25 CURVE",
"228 25 LINE SMOOTH",
"137 25 OFFCURVE",
"106 34 OFFCURVE",
"77 73 CURVE",
"60 53 LINE",
"77 23 OFFCURVE",
"113 0 OFFCURVE",
"197 0 CURVE SMOOTH",
"628 0 LINE",
"635 18 LINE",
"637 18 LINE",
"647 6 OFFCURVE",
"662 0 OFFCURVE",
"686 0 CURVE SMOOTH"
);
}
);
width = 759;
}
);
},
{
glyphname = uni0712.Medi;
lastChange = "2018-09-11 18:35:11 +0000";
layers = (
{
anchors = (
{
name = Anchor2;
position = "{582, 449}";
},
{
name = Anchor4;
position = "{582, -81}";
},
{
name = Anchor6;
position = "{277, -98}";
},
{
name = Anchor8;
position = "{333, 469}";
}
);
layerId = "C0CED439-FB43-4F2F-B9A6-3E073DE83FB3";
paths = (
{
closed = 1;
nodes = (
"695 25 LINE",
"563 25 LINE",
"563 27 LINE",
"602 54 OFFCURVE",
"607 98 OFFCURVE",
"607 147 CURVE SMOOTH",
"607 180 OFFCURVE",
"604 214 OFFCURVE",
"599 242 CURVE SMOOTH",
"582 339 OFFCURVE",
"529 376 OFFCURVE",
"445 376 CURVE SMOOTH",
"369 376 OFFCURVE",
"335 371 OFFCURVE",
"229 371 CURVE SMOOTH",
"174 371 OFFCURVE",
"132 373 OFFCURVE",
"108 378 CURVE",
"108 353 LINE",
"127 348 OFFCURVE",
"165 346 OFFCURVE",
"227 346 CURVE SMOOTH",
"303 346 OFFCURVE",
"377 351 OFFCURVE",
"441 351 CURVE SMOOTH",
"514 351 OFFCURVE",
"553 324 OFFCURVE",
"572 242 CURVE SMOOTH",
"577 219 OFFCURVE",
"581 177 OFFCURVE",
"581 147 CURVE SMOOTH",
"581 60 OFFCURVE",
"552 25 OFFCURVE",
"471 25 CURVE SMOOTH",
"0 25 LINE SMOOTH",
"-19 25 OFFCURVE",
"-40 21 OFFCURVE",
"-40 13 CURVE SMOOTH",
"-40 4 OFFCURVE",
"-19 0 OFFCURVE",
"0 0 CURVE SMOOTH",
"695 0 LINE"
);
}
);
width = 695;
}
);
},
{
glyphname = uni0712.Medi.SYRJ;
lastChange = "2018-09-11 18:35:11 +0000";
layers = (
{
anchors = (
{
name = Anchor116;
position = "{441, 399}";
},
{
name = Anchor118;
position = "{426, -104}";
},
{
name = Anchor120;
position = "{207, -98}";
},
{
name = Anchor122;
position = "{209, 474}";
}
);
layerId = "C0CED439-FB43-4F2F-B9A6-3E073DE83FB3";
paths = (
{
closed = 1;
nodes = (
"574 0 LINE",
"574 25 LINE",
"525 25 LINE SMOOTH",
"506 25 OFFCURVE",
"474 24 OFFCURVE",
"452 23 CURVE",
"452 24 LINE",
"480 38 OFFCURVE",
"501 67 OFFCURVE",
"501 113 CURVE SMOOTH",
"501 223 OFFCURVE",
"429 298 OFFCURVE",
"346 337 CURVE SMOOTH",
"293 362 OFFCURVE",
"237 374 OFFCURVE",
"180 374 CURVE SMOOTH",
"149 374 OFFCURVE",
"104 367 OFFCURVE",
"69 353 CURVE",
"76 332 LINE",
"112 343 OFFCURVE",
"157 349 OFFCURVE",
"178 349 CURVE SMOOTH",
"325 349 OFFCURVE",
"474 262 OFFCURVE",
"474 112 CURVE SMOOTH",
"474 58 OFFCURVE",
"447 25 OFFCURVE",
"372 25 CURVE SMOOTH",
"0 25 LINE SMOOTH",
"-19 25 OFFCURVE",
"-40 21 OFFCURVE",
"-40 13 CURVE SMOOTH",
"-40 4 OFFCURVE",
"-19 0 OFFCURVE",
"0 0 CURVE SMOOTH"
);
}
);
width = 574;
}
);
},
{
glyphname = uni0712.Medi.SYRN;
lastChange = "2018-09-11 18:35:11 +0000";
layers = (
{
anchors = (
{
name = Anchor60;
position = "{429, 464}";
},
{
name = Anchor62;
position = "{429, -81}";
},
{
name = Anchor64;
position = "{198, -98}";
},
{
name = Anchor66;
position = "{227, 480}";
}
);
layerId = "C0CED439-FB43-4F2F-B9A6-3E073DE83FB3";
paths = (
{
closed = 1;
nodes = (
"524 0 LINE",
"524 25 LINE",
"456 25 LINE SMOOTH",
"415 25 OFFCURVE",
"412 45 OFFCURVE",
"412 98 CURVE SMOOTH",
"412 377 LINE",
"218 377 LINE SMOOTH",
"170 377 OFFCURVE",
"110 381 OFFCURVE",
"68 388 CURVE",
"68 363 LINE",
"96 357 OFFCURVE",
"161 352 OFFCURVE",
"222 352 CURVE SMOOTH",
"386 352 LINE",
"386 80 LINE SMOOTH",
"386 57 OFFCURVE",
"388 39 OFFCURVE",
"396 25 CURVE",
"0 25 LINE SMOOTH",
"-19 25 OFFCURVE",
"-40 21 OFFCURVE",
"-40 13 CURVE SMOOTH",
"-40 4 OFFCURVE",
"-19 0 OFFCURVE",
"0 0 CURVE SMOOTH",
"393 0 LINE",
"400 18 LINE",
"402 18 LINE",
"412 6 OFFCURVE",
"427 0 OFFCURVE",
"451 0 CURVE SMOOTH"
);
}
);
width = 524;
}
);
},
{
glyphname = uni0712.Init;
lastChange = "2018-09-11 18:35:11 +0000";
layers = (
{
anchors = (
{
name = Anchor2;
position = "{583, 449}";
},
{
name = Anchor4;
position = "{582, -81}";
},
{
name = Anchor6;
position = "{278, -98}";
},
{
name = Anchor8;
position = "{333, 468}";
}
);
layerId = "C0CED439-FB43-4F2F-B9A6-3E073DE83FB3";
paths = (
{
closed = 1;
nodes = (
"464 0 LINE SMOOTH",
"576 0 OFFCURVE",
"607 51 OFFCURVE",
"607 147 CURVE SMOOTH",
"607 180 OFFCURVE",
"604 214 OFFCURVE",
"599 242 CURVE SMOOTH",
"582 339 OFFCURVE",
"529 376 OFFCURVE",
"445 376 CURVE SMOOTH",
"369 376 OFFCURVE",
"335 371 OFFCURVE",
"229 371 CURVE SMOOTH",
"174 371 OFFCURVE",
"132 373 OFFCURVE",
"108 378 CURVE",
"108 353 LINE",
"127 348 OFFCURVE",
"165 346 OFFCURVE",
"227 346 CURVE SMOOTH",
"303 346 OFFCURVE",
"377 351 OFFCURVE",
"441 351 CURVE SMOOTH",
"514 351 OFFCURVE",
"552 325 OFFCURVE",
"572 242 CURVE SMOOTH",
"578 219 OFFCURVE",
"581 177 OFFCURVE",
"581 147 CURVE SMOOTH",
"581 60 OFFCURVE",
"552 25 OFFCURVE",
"471 25 CURVE SMOOTH",
"0 25 LINE SMOOTH",
"-19 25 OFFCURVE",
"-40 21 OFFCURVE",
"-40 13 CURVE SMOOTH",
"-40 4 OFFCURVE",
"-19 0 OFFCURVE",
"0 0 CURVE SMOOTH"
);
}
);
width = 686;
}
);
},
{
glyphname = uni0712.Init.SYRJ;
lastChange = "2018-09-11 18:35:11 +0000";
layers = (
{
anchors = (
{
name = Anchor116;
position = "{442, 399}";
},
{
name = Anchor118;
position = "{426, -68}";
},
{
name = Anchor120;
position = "{207, -98}";
},
{
name = Anchor122;
position = "{209, 474}";
}
);
layerId = "C0CED439-FB43-4F2F-B9A6-3E073DE83FB3";
paths = (
{
closed = 1;
nodes = (
"371 0 LINE SMOOTH",
"472 0 OFFCURVE",
"501 52 OFFCURVE",
"501 113 CURVE SMOOTH",
"501 218 OFFCURVE",
"435 295 OFFCURVE",
"346 337 CURVE SMOOTH",
"295 361 OFFCURVE",
"238 374 OFFCURVE",
"180 374 CURVE SMOOTH",
"149 374 OFFCURVE",
"104 367 OFFCURVE",
"69 353 CURVE",
"76 332 LINE",
"112 343 OFFCURVE",
"157 349 OFFCURVE",
"178 349 CURVE SMOOTH",
"325 349 OFFCURVE",
"474 262 OFFCURVE",
"474 113 CURVE SMOOTH",
"474 57 OFFCURVE",
"447 25 OFFCURVE",
"372 25 CURVE SMOOTH",
"0 25 LINE SMOOTH",
"-19 25 OFFCURVE",
"-40 21 OFFCURVE",
"-40 13 CURVE SMOOTH",
"-40 4 OFFCURVE",
"-19 0 OFFCURVE",
"0 0 CURVE SMOOTH"
);
}
);
width = 579;
}
);
},
{
glyphname = uni0712.Init.SYRN;
lastChange = "2018-09-11 18:35:11 +0000";
layers = (
{
anchors = (
{
name = Anchor60;
position = "{429, 464}";
},
{
name = Anchor62;
position = "{429, -81}";
},
{
name = Anchor64;
position = "{197, -98}";
},
{
name = Anchor66;
position = "{227, 480}";
}
);
layerId = "C0CED439-FB43-4F2F-B9A6-3E073DE83FB3";
paths = (
{
closed = 1;
nodes = (
"397 0 LINE",
"412 20 LINE",
"412 377 LINE",
"218 377 LINE SMOOTH",
"170 377 OFFCURVE",
"110 381 OFFCURVE",
"68 388 CURVE",
"68 363 LINE",
"96 357 OFFCURVE",
"161 352 OFFCURVE",
"222 352 CURVE SMOOTH",
"386 352 LINE",
"386 25 LINE",
"0 25 LINE SMOOTH",
"-19 25 OFFCURVE",
"-40 21 OFFCURVE",
"-40 13 CURVE SMOOTH",
"-40 4 OFFCURVE",
"-19 0 OFFCURVE",
"0 0 CURVE SMOOTH"
);
}
);
width = 492;
}
);
},
{
glyphname = uni0713;
lastChange = "2018-09-11 18:35:11 +0000";
layers = (
{
anchors = (
{
name = Anchor2;
position = "{820, 204}";
},
{
name = Anchor4;
position = "{821, -232}";
},
{
name = Anchor6;
position = "{543, -144}";
},
{
name = Anchor8;
position = "{605, 532}";
}
);
layerId = "C0CED439-FB43-4F2F-B9A6-3E073DE83FB3";
paths = (
{
closed = 1;
nodes = (
"1212 -370 LINE",
"1227 -349 LINE",
"1160 -302 OFFCURVE",
"1087 -243 OFFCURVE",
"991 -151 CURVE SMOOTH",
"942 -104 OFFCURVE",
"893 -53 OFFCURVE",
"844 0 CURVE SMOOTH",
"695 163 OFFCURVE",
"556 344 OFFCURVE",
"459 481 CURVE",
"437 467 LINE",
"528 334 OFFCURVE",
"712 100 OFFCURVE",
"873 -69 CURVE SMOOTH",
"933 -132 OFFCURVE",
"990 -186 OFFCURVE",
"1038 -222 CURVE",
"1036 -224 LINE",
"916 -142 OFFCURVE",
"765 -67 OFFCURVE",
"640 -30 CURVE SMOOTH",
"476 18 OFFCURVE",
"355 25 OFFCURVE",
"255 25 CURVE SMOOTH",
"206 25 OFFCURVE",
"115 19 OFFCURVE",
"60 11 CURVE",
"65 -14 LINE",
"126 -5 OFFCURVE",
"216 0 OFFCURVE",
"278 0 CURVE SMOOTH",
"426 0 OFFCURVE",
"593 -30 OFFCURVE",
"737 -91 CURVE SMOOTH",
"845 -137 OFFCURVE",
"943 -190 OFFCURVE",
"1028 -244 CURVE SMOOTH",
"1084 -279 OFFCURVE",
"1133 -313 OFFCURVE",
"1175 -343 CURVE SMOOTH"
);
}
);
width = 1005;
}
);
unicode = 0713;
},
{
glyphname = uni0713.SYRJ;
lastChange = "2018-09-11 18:35:11 +0000";
layers = (
{
anchors = (
{
name = Anchor116;
position = "{488, 138}";
},
{
name = Anchor118;
position = "{658, -461}";
},
{
name = Anchor120;
position = "{409, -429}";
},
{
name = Anchor122;
position = "{371, 331}";
}
);
layerId = "C0CED439-FB43-4F2F-B9A6-3E073DE83FB3";
paths = (
{
closed = 1;
nodes = (
"501 -319 LINE SMOOTH",
"553 -358 OFFCURVE",
"599 -374 OFFCURVE",
"644 -374 CURVE SMOOTH",
"739 -374 OFFCURVE",
"782 -320 OFFCURVE",
"782 -268 CURVE SMOOTH",
"782 -226 OFFCURVE",
"760 -199 OFFCURVE",
"724 -172 CURVE SMOOTH",
"350 109 LINE",
"335 89 LINE",
"708 -191 LINE SMOOTH",
"743 -217 OFFCURVE",
"756 -240 OFFCURVE",
"756 -267 CURVE SMOOTH",
"756 -319 OFFCURVE",
"706 -349 OFFCURVE",
"646 -349 CURVE SMOOTH",
"595 -349 OFFCURVE",
"551 -325 OFFCURVE",
"516 -299 CURVE SMOOTH",
"179 -45 LINE SMOOTH",
"116 2 OFFCURVE",
"87 45 OFFCURVE",
"87 109 CURVE SMOOTH",
"87 134 OFFCURVE",
"92 169 OFFCURVE",
"104 188 CURVE",
"86 199 LINE",
"68 175 OFFCURVE",
"62 133 OFFCURVE",
"62 106 CURVE SMOOTH",
"62 37 OFFCURVE",
"97 -15 OFFCURVE",
"164 -65 CURVE SMOOTH"
);
}
);
width = 776;
}
);
},
{
glyphname = uni0713.SYRN;
lastChange = "2018-09-11 18:35:11 +0000";
layers = (
{
anchors = (
{
name = Anchor60;
position = "{696, 291}";
},
{
name = Anchor62;
position = "{610, -91}";
},
{
name = Anchor64;
position = "{342, -98}";
},
{
name = Anchor66;
position = "{328, 735}";
}
);
layerId = "C0CED439-FB43-4F2F-B9A6-3E073DE83FB3";
paths = (
{
closed = 1;
nodes = (
"839 -235 LINE",
"839 -187 LINE",
"807 -187 LINE",
"372 656 LINE",
"349 644 LINE",
"668 25 LINE",
"228 25 LINE SMOOTH",
"137 25 OFFCURVE",
"106 34 OFFCURVE",
"77 73 CURVE",
"60 53 LINE",
"77 23 OFFCURVE",
"113 0 OFFCURVE",
"197 0 CURVE SMOOTH",
"671 0 LINE",
"678 18 LINE",
"680 18 LINE",
"791 -197 LINE",
"791 -235 LINE"
);
}
);
width = 776;
}
);
},
{
glyphname = uni0713.Fina;
lastChange = "2018-09-11 18:35:11 +0000";
layers = (
{
anchors = (
{
name = Anchor2;
position = "{820, 205}";
},
{
name = Anchor4;
position = "{823, -232}";
},
{
name = Anchor6;
position = "{543, -146}";
},
{
name = Anchor8;
position = "{606, 532}";
}
);
layerId = "C0CED439-FB43-4F2F-B9A6-3E073DE83FB3";
paths = (
{
closed = 1;
nodes = (
"1212 -370 LINE",
"1227 -349 LINE",
"1160 -302 OFFCURVE",
"1087 -243 OFFCURVE",
"991 -151 CURVE SMOOTH",
"941 -104 OFFCURVE",
"892 -53 OFFCURVE",
"843 0 CURVE",
"865 0 LINE",
"865 25 LINE",
"821 25 LINE",
"680 183 OFFCURVE",
"550 350 OFFCURVE",
"459 481 CURVE",
"437 467 LINE",
"512 357 OFFCURVE",
"650 179 OFFCURVE",
"786 25 CURVE SMOOTH",
"865 -65 OFFCURVE",
"962 -164 OFFCURVE",
"1038 -222 CURVE",
"1036 -224 LINE",
"916 -142 OFFCURVE",
"767 -67 OFFCURVE",
"640 -30 CURVE SMOOTH",
"476 18 OFFCURVE",
"355 25 OFFCURVE",
"255 25 CURVE SMOOTH",
"206 25 OFFCURVE",
"115 19 OFFCURVE",
"60 11 CURVE",
"65 -14 LINE",
"126 -5 OFFCURVE",
"216 0 OFFCURVE",
"278 0 CURVE SMOOTH",
"426 0 OFFCURVE",
"593 -30 OFFCURVE",
"737 -91 CURVE SMOOTH",
"845 -137 OFFCURVE",
"944 -191 OFFCURVE",
"1028 -244 CURVE SMOOTH",
"1083 -279 OFFCURVE",
"1133 -312 OFFCURVE",
"1175 -343 CURVE SMOOTH"
);
}
);
width = 865;
}
);
},
{
glyphname = uni0713.Fina.SYRJ;
lastChange = "2018-09-11 18:35:11 +0000";
layers = (
{
anchors = (
{
name = Anchor116;
position = "{488, 136}";
},
{
name = Anchor118;
position = "{658, -461}";
},
{
name = Anchor120;
position = "{409, -428}";
},
{
name = Anchor122;
position = "{371, 331}";
}
);
layerId = "C0CED439-FB43-4F2F-B9A6-3E073DE83FB3";
paths = (
{
closed = 1;
nodes = (
"501 -319 LINE SMOOTH",
"553 -358 OFFCURVE",
"599 -374 OFFCURVE",
"644 -374 CURVE SMOOTH",
"739 -374 OFFCURVE",
"782 -320 OFFCURVE",
"782 -268 CURVE SMOOTH",
"782 -226 OFFCURVE",
"760 -199 OFFCURVE",
"724 -172 CURVE SMOOTH",
"583 -66 LINE SMOOTH",
"567 -54 OFFCURVE",
"501 -5 OFFCURVE",
"490 1 CURVE",
"490 3 LINE",
"507 1 OFFCURVE",
"546 0 OFFCURVE",
"562 0 CURVE SMOOTH",
"602 0 LINE",
"602 25 LINE",
"462 25 LINE",
"363 99 LINE",
"348 79 LINE",
"708 -191 LINE SMOOTH",
"743 -217 OFFCURVE",
"756 -240 OFFCURVE",
"756 -267 CURVE SMOOTH",
"756 -319 OFFCURVE",
"706 -349 OFFCURVE",
"646 -349 CURVE SMOOTH",
"595 -349 OFFCURVE",
"551 -325 OFFCURVE",
"516 -299 CURVE SMOOTH",
"179 -45 LINE SMOOTH",
"116 2 OFFCURVE",
"87 45 OFFCURVE",
"87 109 CURVE SMOOTH",
"87 134 OFFCURVE",
"92 169 OFFCURVE",
"104 188 CURVE",
"86 199 LINE",
"68 175 OFFCURVE",
"62 133 OFFCURVE",
"62 106 CURVE SMOOTH",
"62 37 OFFCURVE",
"97 -15 OFFCURVE",
"164 -65 CURVE SMOOTH"
);
}
);
width = 602;
}
);
},
{
glyphname = uni0713.Fina.SYRN;
lastChange = "2018-09-11 18:35:11 +0000";
layers = (
{
anchors = (
{
name = Anchor60;
position = "{696, 291}";
},
{
name = Anchor62;
position = "{611, -90}";
},
{
name = Anchor64;
position = "{342, -98}";
},
{
name = Anchor66;
position = "{328, 737}";
}
);
layerId = "C0CED439-FB43-4F2F-B9A6-3E073DE83FB3";
paths = (
{
closed = 1;
nodes = (
"832 -235 LINE",
"832 -187 LINE",
"800 -187 LINE",
"703 0 LINE",
"717 0 LINE",
"717 25 LINE",
"699 25 OFFCURVE",
"697 26 OFFCURVE",
"684 51 CURVE SMOOTH",
"372 656 LINE",
"349 644 LINE",
"668 25 LINE",
"228 25 LINE SMOOTH",
"137 25 OFFCURVE",
"106 34 OFFCURVE",
"77 73 CURVE",
"60 53 LINE",
"77 23 OFFCURVE",
"113 0 OFFCURVE",
"197 0 CURVE SMOOTH",
"664 0 LINE",
"671 18 LINE",
"673 18 LINE",
"784 -197 LINE",
"784 -235 LINE"
);
}
);
width = 717;
}
);
},
{
glyphname = uni0713.Medi;
lastChange = "2018-09-11 18:35:11 +0000";
layers = (
{
anchors = (
{
name = Anchor2;
position = "{486, 206}";
},
{
name = Anchor4;
position = "{488, -230}";
},
{
name = Anchor6;
position = "{212, -144}";
},
{
name = Anchor8;
position = "{272, 532}";
}
);
layerId = "C0CED439-FB43-4F2F-B9A6-3E073DE83FB3";
paths = (
{
closed = 1;
nodes = (
"878 -370 LINE",
"893 -349 LINE",
"826 -302 OFFCURVE",
"753 -243 OFFCURVE",
"657 -151 CURVE SMOOTH",
"619 -115 OFFCURVE",
"546 -41 OFFCURVE",
"510 0 CURVE",
"531 0 LINE",
"531 25 LINE",
"487 25 LINE",
"343 187 OFFCURVE",
"248 309 OFFCURVE",
"125 481 CURVE",
"103 467 LINE",
"178 357 OFFCURVE",
"316 179 OFFCURVE",
"452 25 CURVE SMOOTH",
"534 -67 OFFCURVE",
"617 -154 OFFCURVE",
"704 -222 CURVE",
"702 -224 LINE",
"612 -164 OFFCURVE",
"510 -110 OFFCURVE",
"415 -69 CURVE SMOOTH",
"280 -11 OFFCURVE",
"137 25 OFFCURVE",
"0 25 CURVE SMOOTH",
"-19 25 OFFCURVE",
"-40 21 OFFCURVE",
"-40 13 CURVE SMOOTH",
"-40 4 OFFCURVE",
"-19 0 OFFCURVE",
"0 0 CURVE SMOOTH",
"28 0 OFFCURVE",
"188 0 OFFCURVE",
"403 -91 CURVE SMOOTH",
"511 -137 OFFCURVE",
"610 -191 OFFCURVE",
"694 -244 CURVE SMOOTH",
"750 -279 OFFCURVE",
"799 -312 OFFCURVE",
"841 -343 CURVE SMOOTH"
);
}
);
width = 531;
}
);
},
{
glyphname = uni0713.Medi.SYRJ;
lastChange = "2018-09-11 18:35:11 +0000";
layers = (
{
anchors = (
{
name = Anchor116;
position = "{471, 135}";
},
{
name = Anchor118;
position = "{640, -462}";
},
{
name = Anchor120;
position = "{391, -429}";
},
{
name = Anchor122;
position = "{354, 331}";
}
);
layerId = "C0CED439-FB43-4F2F-B9A6-3E073DE83FB3";
paths = (
{
closed = 1;
nodes = (
"346 99 LINE",
"331 79 LINE",
"691 -191 LINE SMOOTH",
"726 -217 OFFCURVE",
"739 -240 OFFCURVE",
"739 -267 CURVE SMOOTH",
"739 -319 OFFCURVE",
"689 -349 OFFCURVE",
"629 -349 CURVE SMOOTH",
"578 -349 OFFCURVE",
"534 -325 OFFCURVE",
"499 -299 CURVE SMOOTH",
"158 -42 LINE SMOOTH",
"107 -3 OFFCURVE",
"63 25 OFFCURVE",
"5 25 CURVE SMOOTH",
"0 25 LINE SMOOTH",
"-19 25 OFFCURVE",
"-40 21 OFFCURVE",
"-40 13 CURVE SMOOTH",
"-40 4 OFFCURVE",
"-19 0 OFFCURVE",
"0 0 CURVE SMOOTH",
"5 0 LINE SMOOTH",
"58 0 OFFCURVE",
"98 -28 OFFCURVE",
"141 -60 CURVE SMOOTH",
"484 -319 LINE SMOOTH",
"536 -358 OFFCURVE",
"582 -374 OFFCURVE",
"627 -374 CURVE SMOOTH",
"722 -374 OFFCURVE",
"765 -320 OFFCURVE",
"765 -268 CURVE SMOOTH",
"765 -226 OFFCURVE",
"743 -199 OFFCURVE",
"707 -172 CURVE SMOOTH",
"566 -66 LINE SMOOTH",
"550 -54 OFFCURVE",
"484 -5 OFFCURVE",
"473 1 CURVE",
"473 3 LINE",
"490 1 OFFCURVE",
"529 0 OFFCURVE",
"545 0 CURVE SMOOTH",
"586 0 LINE",
"586 25 LINE",
"445 25 LINE"
);
}
);
width = 586;
}
);
},
{
glyphname = uni0713.Medi.SYRN;
lastChange = "2018-09-11 18:35:11 +0000";
layers = (
{
anchors = (
{
name = Anchor60;
position = "{338, 292}";
},
{
name = Anchor62;
position = "{242, -91}";
},
{
name = Anchor64;
position = "{171, -98}";
},
{
name = Anchor66;
position = "{-30, 738}";
}
);
layerId = "C0CED439-FB43-4F2F-B9A6-3E073DE83FB3";
paths = (
{
closed = 1;
nodes = (
"479 -235 LINE",
"479 -187 LINE",
"447 -187 LINE",
"350 0 LINE",
"364 0 LINE",
"364 25 LINE",
"346 25 OFFCURVE",
"344 26 OFFCURVE",
"331 51 CURVE SMOOTH",
"19 656 LINE",
"-4 644 LINE",
"315 25 LINE",
"0 25 LINE SMOOTH",
"-19 25 OFFCURVE",
"-40 21 OFFCURVE",
"-40 13 CURVE SMOOTH",
"-40 4 OFFCURVE",
"-19 0 OFFCURVE",
"0 0 CURVE SMOOTH",
"311 0 LINE",
"318 18 LINE",
"320 18 LINE",
"431 -197 LINE",
"431 -235 LINE"
);
}
);
width = 364;
}
);
},
{
glyphname = uni0713.Init;
lastChange = "2018-09-11 18:35:11 +0000";
layers = (
{
anchors = (
{
name = Anchor2;
position = "{486, 206}";
},
{
name = Anchor4;
position = "{488, -232}";
},
{
name = Anchor6;
position = "{210, -145}";
},
{
name = Anchor8;
position = "{272, 532}";
}
);
layerId = "C0CED439-FB43-4F2F-B9A6-3E073DE83FB3";
paths = (
{
closed = 1;
nodes = (
"878 -370 LINE",
"893 -349 LINE",
"826 -302 OFFCURVE",
"752 -242 OFFCURVE",
"657 -151 CURVE SMOOTH",
"606 -103 OFFCURVE",
"557 -52 OFFCURVE",
"510 0 CURVE SMOOTH",
"371 152 OFFCURVE",
"244 315 OFFCURVE",
"125 481 CURVE",
"103 467 LINE",
"194 334 OFFCURVE",
"378 100 OFFCURVE",
"539 -69 CURVE SMOOTH",
"599 -132 OFFCURVE",
"656 -186 OFFCURVE",
"704 -222 CURVE",
"702 -224 LINE",
"612 -164 OFFCURVE",
"510 -110 OFFCURVE",
"415 -69 CURVE SMOOTH",
"280 -11 OFFCURVE",
"137 25 OFFCURVE",
"0 25 CURVE SMOOTH",
"-19 25 OFFCURVE",
"-40 21 OFFCURVE",
"-40 13 CURVE SMOOTH",
"-40 4 OFFCURVE",
"-19 0 OFFCURVE",
"0 0 CURVE SMOOTH",
"28 0 OFFCURVE",
"188 0 OFFCURVE",
"403 -91 CURVE SMOOTH",
"511 -137 OFFCURVE",
"610 -191 OFFCURVE",
"695 -244 CURVE SMOOTH",
"750 -278 OFFCURVE",
"799 -313 OFFCURVE",
"841 -343 CURVE SMOOTH"
);
}
);
width = 671;
}
);
},
{
glyphname = uni0713.Init.SYRJ;
lastChange = "2018-09-11 18:35:11 +0000";
layers = (
{
anchors = (
{
name = Anchor116;
position = "{472, 135}";
},
{
name = Anchor118;
position = "{641, -461}";
},
{
name = Anchor120;
position = "{391, -429}";
},
{
name = Anchor122;
position = "{354, 330}";
}
);
layerId = "C0CED439-FB43-4F2F-B9A6-3E073DE83FB3";
paths = (
{
closed = 1;
nodes = (
"333 109 LINE",
"318 89 LINE",
"691 -191 LINE SMOOTH",
"726 -217 OFFCURVE",
"739 -240 OFFCURVE",
"739 -267 CURVE SMOOTH",
"739 -319 OFFCURVE",
"689 -349 OFFCURVE",
"629 -349 CURVE SMOOTH",
"578 -349 OFFCURVE",
"534 -325 OFFCURVE",
"499 -299 CURVE SMOOTH",
"158 -42 LINE SMOOTH",
"107 -3 OFFCURVE",
"63 25 OFFCURVE",
"5 25 CURVE SMOOTH",
"0 25 LINE SMOOTH",
"-17 25 OFFCURVE",
"-40 21 OFFCURVE",
"-40 13 CURVE SMOOTH",
"-40 4 OFFCURVE",
"-17 0 OFFCURVE",
"0 0 CURVE SMOOTH",
"5 0 LINE SMOOTH",
"58 0 OFFCURVE",
"98 -28 OFFCURVE",
"141 -60 CURVE SMOOTH",
"484 -319 LINE SMOOTH",
"536 -358 OFFCURVE",
"582 -374 OFFCURVE",
"627 -374 CURVE SMOOTH",
"722 -374 OFFCURVE",
"765 -320 OFFCURVE",
"765 -268 CURVE SMOOTH",
"765 -226 OFFCURVE",
"743 -199 OFFCURVE",
"707 -172 CURVE SMOOTH"
);
}
);
width = 759;
}
);
},
{
glyphname = uni0713.Init.SYRN;
lastChange = "2018-09-11 18:35:11 +0000";
layers = (
{
anchors = (
{
name = Anchor60;
position = "{339, 294}";
},
{
name = Anchor62;
position = "{273, -91}";
},
{
name = Anchor64;
position = "{171, -98}";
},
{
name = Anchor66;
position = "{-29, 740}";
}
);
layerId = "C0CED439-FB43-4F2F-B9A6-3E073DE83FB3";
paths = (
{
closed = 1;
nodes = (
"486 -235 LINE",
"486 -187 LINE",
"454 -187 LINE",
"19 656 LINE",
"-4 644 LINE",
"315 25 LINE",
"0 25 LINE SMOOTH",
"-19 25 OFFCURVE",
"-40 21 OFFCURVE",
"-40 13 CURVE SMOOTH",
"-40 4 OFFCURVE",
"-19 0 OFFCURVE",
"0 0 CURVE SMOOTH",
"318 0 LINE",
"325 18 LINE",
"327 18 LINE",
"438 -197 LINE",
"438 -235 LINE"
);
}
);
width = 423;
}
);
},
{
glyphname = uni0714;
lastChange = "2018-09-11 18:35:11 +0000";
layers = (
{
anchors = (
{
name = Anchor6;
position = "{544, -146}";
},
{
name = Anchor8;
position = "{606, 534}";
}
);
layerId = "C0CED439-FB43-4F2F-B9A6-3E073DE83FB3";
paths = (
{
closed = 1;
nodes = (
"1212 -370 LINE",
"1227 -349 LINE",
"1160 -302 OFFCURVE",
"1087 -243 OFFCURVE",
"991 -151 CURVE SMOOTH",
"942 -104 OFFCURVE",
"893 -53 OFFCURVE",
"844 0 CURVE SMOOTH",
"695 163 OFFCURVE",
"556 344 OFFCURVE",
"459 481 CURVE",
"437 467 LINE",
"528 334 OFFCURVE",
"712 100 OFFCURVE",
"873 -69 CURVE SMOOTH",
"933 -132 OFFCURVE",
"990 -186 OFFCURVE",
"1038 -222 CURVE",
"1036 -224 LINE",
"916 -142 OFFCURVE",
"765 -67 OFFCURVE",
"640 -30 CURVE SMOOTH",
"476 18 OFFCURVE",
"355 25 OFFCURVE",
"255 25 CURVE SMOOTH",
"206 25 OFFCURVE",
"115 19 OFFCURVE",
"60 11 CURVE",
"65 -14 LINE",
"126 -5 OFFCURVE",
"216 0 OFFCURVE",
"278 0 CURVE SMOOTH",
"426 0 OFFCURVE",
"593 -30 OFFCURVE",
"737 -91 CURVE SMOOTH",
"845 -137 OFFCURVE",
"943 -191 OFFCURVE",
"1028 -244 CURVE SMOOTH",
"1083 -278 OFFCURVE",
"1133 -313 OFFCURVE",
"1175 -343 CURVE SMOOTH"
);
},
{
closed = 1;
nodes = (
"482 145 OFFCURVE",
"484 158 OFFCURVE",
"484 173 CURVE SMOOTH",
"484 187 OFFCURVE",
"482 201 OFFCURVE",
"460 201 CURVE SMOOTH",
"442 201 OFFCURVE",
"438 187 OFFCURVE",
"438 173 CURVE SMOOTH",
"438 158 OFFCURVE",
"442 145 OFFCURVE",
"460 145 CURVE SMOOTH"
);
}
);
width = 1005;
}
);
unicode = 0714;
},
{
glyphname = uni0714.SYRJ;
lastChange = "2018-09-11 18:35:11 +0000";
layers = (
{
anchors = (
{
name = Anchor116;
position = "{488, 135}";
},
{
name = Anchor118;
position = "{657, -464}";
},
{
name = Anchor120;
position = "{409, -430}";
},
{
name = Anchor122;
position = "{371, 331}";
}
);
layerId = "C0CED439-FB43-4F2F-B9A6-3E073DE83FB3";
paths = (
{
closed = 1;
nodes = (
"394 -112 OFFCURVE",
"398 -125 OFFCURVE",
"416 -125 CURVE SMOOTH",
"438 -125 OFFCURVE",
"440 -112 OFFCURVE",
"440 -97 CURVE SMOOTH",
"440 -83 OFFCURVE",
"438 -69 OFFCURVE",
"416 -69 CURVE SMOOTH",
"398 -69 OFFCURVE",
"394 -83 OFFCURVE",
"394 -97 CURVE SMOOTH"
);
},
{
closed = 1;
nodes = (
"501 -319 LINE SMOOTH",
"553 -358 OFFCURVE",
"599 -374 OFFCURVE",
"644 -374 CURVE SMOOTH",
"739 -374 OFFCURVE",
"782 -320 OFFCURVE",
"782 -268 CURVE SMOOTH",
"782 -226 OFFCURVE",
"760 -199 OFFCURVE",
"724 -172 CURVE SMOOTH",
"350 109 LINE",
"335 89 LINE",
"708 -191 LINE SMOOTH",
"743 -217 OFFCURVE",
"756 -240 OFFCURVE",
"756 -267 CURVE SMOOTH",
"756 -319 OFFCURVE",
"706 -349 OFFCURVE",
"646 -349 CURVE SMOOTH",
"595 -349 OFFCURVE",
"551 -325 OFFCURVE",
"516 -299 CURVE SMOOTH",
"179 -45 LINE SMOOTH",
"116 2 OFFCURVE",
"87 45 OFFCURVE",
"87 109 CURVE SMOOTH",
"87 134 OFFCURVE",
"92 169 OFFCURVE",
"104 188 CURVE",
"86 199 LINE",
"68 175 OFFCURVE",
"62 133 OFFCURVE",
"62 106 CURVE SMOOTH",
"62 37 OFFCURVE",
"97 -15 OFFCURVE",
"164 -65 CURVE SMOOTH"
);
}
);
width = 776;
}
);
},
{
glyphname = uni0714.SYRN;
lastChange = "2018-09-11 18:35:11 +0000";
layers = (
{
anchors = (
{
name = Anchor60;
position = "{696, 291}";
},
{
name = Anchor62;
position = "{611, -91}";
},
{
name = Anchor64;
position = "{342, -98}";
},
{
name = Anchor66;
position = "{328, 736}";
}
);
layerId = "C0CED439-FB43-4F2F-B9A6-3E073DE83FB3";
paths = (
{
closed = 1;
nodes = (
"839 -235 LINE",
"839 -187 LINE",
"807 -187 LINE",
"372 656 LINE",
"349 644 LINE",
"668 25 LINE",
"228 25 LINE SMOOTH",
"137 25 OFFCURVE",
"106 34 OFFCURVE",
"77 73 CURVE",
"60 53 LINE",
"77 23 OFFCURVE",
"113 0 OFFCURVE",
"197 0 CURVE SMOOTH",
"671 0 LINE",
"678 18 LINE",
"680 18 LINE",
"791 -197 LINE",
"791 -235 LINE"
);
},
{
closed = 1;
nodes = (
"436 147 LINE",
"436 195 LINE",
"388 195 LINE",
"388 147 LINE"
);
}
);
width = 776;
}
);
},
{
glyphname = uni0714.Fina;
lastChange = "2018-09-11 18:35:11 +0000";
layers = (
{
anchors = (
{
name = Anchor6;
position = "{543, -146}";
},
{
name = Anchor8;
position = "{605, 532}";
}
);
layerId = "C0CED439-FB43-4F2F-B9A6-3E073DE83FB3";
paths = (
{
closed = 1;
nodes = (
"1212 -370 LINE",
"1227 -349 LINE",
"1160 -302 OFFCURVE",
"1087 -243 OFFCURVE",
"991 -151 CURVE SMOOTH",
"941 -104 OFFCURVE",
"892 -53 OFFCURVE",
"843 0 CURVE",
"865 0 LINE",
"865 25 LINE",
"821 25 LINE",
"680 183 OFFCURVE",
"550 350 OFFCURVE",
"459 481 CURVE",
"437 467 LINE",
"512 357 OFFCURVE",
"650 179 OFFCURVE",
"786 25 CURVE SMOOTH",
"865 -65 OFFCURVE",
"962 -164 OFFCURVE",
"1038 -222 CURVE",
"1036 -224 LINE",
"916 -142 OFFCURVE",
"767 -67 OFFCURVE",
"640 -30 CURVE SMOOTH",
"476 18 OFFCURVE",
"355 25 OFFCURVE",
"255 25 CURVE SMOOTH",
"206 25 OFFCURVE",
"115 19 OFFCURVE",
"60 11 CURVE",
"65 -14 LINE",
"126 -5 OFFCURVE",
"216 0 OFFCURVE",
"278 0 CURVE SMOOTH",
"426 0 OFFCURVE",
"593 -30 OFFCURVE",
"737 -91 CURVE SMOOTH",
"845 -137 OFFCURVE",
"944 -191 OFFCURVE",
"1028 -244 CURVE SMOOTH",
"1083 -279 OFFCURVE",
"1133 -312 OFFCURVE",
"1175 -343 CURVE SMOOTH"
);
},
{
closed = 1;
nodes = (
"482 145 OFFCURVE",
"484 158 OFFCURVE",
"484 173 CURVE SMOOTH",
"484 187 OFFCURVE",
"482 201 OFFCURVE",
"460 201 CURVE SMOOTH",
"442 201 OFFCURVE",
"438 187 OFFCURVE",
"438 173 CURVE SMOOTH",
"438 158 OFFCURVE",
"442 145 OFFCURVE",
"460 145 CURVE SMOOTH"
);
}
);
width = 865;
}
);
},
{
glyphname = uni0714.Fina.SYRJ;
lastChange = "2018-09-11 18:35:11 +0000";
layers = (
{
anchors = (
{
name = Anchor116;
position = "{488, 136}";
},
{
name = Anchor118;
position = "{658, -462}";
},
{
name = Anchor120;
position = "{408, -430}";
},
{
name = Anchor122;
position = "{371, 331}";
}
);
layerId = "C0CED439-FB43-4F2F-B9A6-3E073DE83FB3";
paths = (
{
closed = 1;
nodes = (
"392 -112 OFFCURVE",
"396 -125 OFFCURVE",
"414 -125 CURVE SMOOTH",
"436 -125 OFFCURVE",
"438 -112 OFFCURVE",
"438 -97 CURVE SMOOTH",
"438 -83 OFFCURVE",
"436 -69 OFFCURVE",
"414 -69 CURVE SMOOTH",
"396 -69 OFFCURVE",
"392 -83 OFFCURVE",
"392 -97 CURVE SMOOTH"
);
},
{
closed = 1;
nodes = (
"501 -319 LINE SMOOTH",
"553 -358 OFFCURVE",
"599 -374 OFFCURVE",
"644 -374 CURVE SMOOTH",
"739 -374 OFFCURVE",
"782 -320 OFFCURVE",
"782 -268 CURVE SMOOTH",
"782 -226 OFFCURVE",
"760 -199 OFFCURVE",
"724 -172 CURVE SMOOTH",
"583 -66 LINE SMOOTH",
"567 -54 OFFCURVE",
"501 -5 OFFCURVE",
"490 1 CURVE",
"490 3 LINE",
"507 1 OFFCURVE",
"546 0 OFFCURVE",
"562 0 CURVE SMOOTH",
"602 0 LINE",
"602 25 LINE",
"462 25 LINE",
"363 99 LINE",
"348 79 LINE",
"708 -191 LINE SMOOTH",
"743 -217 OFFCURVE",
"756 -240 OFFCURVE",
"756 -267 CURVE SMOOTH",
"756 -319 OFFCURVE",
"706 -349 OFFCURVE",
"646 -349 CURVE SMOOTH",
"595 -349 OFFCURVE",
"551 -325 OFFCURVE",
"516 -299 CURVE SMOOTH",
"179 -45 LINE SMOOTH",
"116 2 OFFCURVE",
"87 45 OFFCURVE",
"87 109 CURVE SMOOTH",
"87 134 OFFCURVE",
"92 169 OFFCURVE",
"104 188 CURVE",
"86 199 LINE",
"68 175 OFFCURVE",
"62 133 OFFCURVE",
"62 106 CURVE SMOOTH",
"62 37 OFFCURVE",
"97 -15 OFFCURVE",
"164 -65 CURVE SMOOTH"
);
}
);
width = 602;
}
);
},
{
glyphname = uni0714.Fina.SYRN;
lastChange = "2018-09-11 18:35:11 +0000";
layers = (
{
anchors = (
{
name = Anchor60;
position = "{697, 291}";
},
{
name = Anchor62;
position = "{611, -91}";
},
{
name = Anchor64;
position = "{343, -98}";
},
{
name = Anchor66;
position = "{328, 739}";
}
);
layerId = "C0CED439-FB43-4F2F-B9A6-3E073DE83FB3";
paths = (
{
closed = 1;
nodes = (
"832 -235 LINE",
"832 -187 LINE",
"800 -187 LINE",
"703 0 LINE",
"717 0 LINE",
"717 25 LINE",
"699 25 OFFCURVE",
"697 26 OFFCURVE",
"684 51 CURVE SMOOTH",
"372 656 LINE",
"349 644 LINE",
"668 25 LINE",
"228 25 LINE SMOOTH",
"137 25 OFFCURVE",
"106 34 OFFCURVE",
"77 73 CURVE",
"60 53 LINE",
"77 23 OFFCURVE",
"113 0 OFFCURVE",
"197 0 CURVE SMOOTH",
"664 0 LINE",
"671 18 LINE",
"673 18 LINE",
"784 -197 LINE",
"784 -235 LINE"
);
},
{
closed = 1;
nodes = (
"436 147 LINE",
"436 195 LINE",
"388 195 LINE",
"388 147 LINE"
);
}
);
width = 717;
}
);
},
{
glyphname = uni0714.Medi;
lastChange = "2018-09-11 18:35:11 +0000";
layers = (
{
anchors = (
{
name = Anchor6;
position = "{210, -146}";
},
{
name = Anchor8;
position = "{271, 534}";
}
);
layerId = "C0CED439-FB43-4F2F-B9A6-3E073DE83FB3";
paths = (
{
closed = 1;
nodes = (
"878 -370 LINE",
"893 -349 LINE",
"826 -302 OFFCURVE",
"753 -243 OFFCURVE",
"657 -151 CURVE SMOOTH",
"619 -115 OFFCURVE",
"546 -41 OFFCURVE",
"510 0 CURVE",
"531 0 LINE",
"531 25 LINE",
"487 25 LINE",
"343 187 OFFCURVE",
"248 309 OFFCURVE",
"125 481 CURVE",
"103 467 LINE",
"178 357 OFFCURVE",
"316 179 OFFCURVE",
"452 25 CURVE SMOOTH",
"534 -67 OFFCURVE",
"617 -154 OFFCURVE",
"704 -222 CURVE",
"702 -224 LINE",
"612 -164 OFFCURVE",
"510 -110 OFFCURVE",
"415 -69 CURVE SMOOTH",
"280 -11 OFFCURVE",
"137 25 OFFCURVE",
"0 25 CURVE SMOOTH",
"-19 25 OFFCURVE",
"-40 21 OFFCURVE",
"-40 13 CURVE SMOOTH",
"-40 4 OFFCURVE",
"-19 0 OFFCURVE",
"0 0 CURVE SMOOTH",
"28 0 OFFCURVE",
"188 0 OFFCURVE",
"403 -91 CURVE SMOOTH",
"511 -137 OFFCURVE",
"610 -191 OFFCURVE",
"694 -244 CURVE SMOOTH",
"750 -279 OFFCURVE",
"799 -312 OFFCURVE",
"841 -343 CURVE SMOOTH"
);
},
{
closed = 1;
nodes = (
"148 145 OFFCURVE",
"150 158 OFFCURVE",
"150 173 CURVE SMOOTH",
"150 187 OFFCURVE",
"148 201 OFFCURVE",
"126 201 CURVE SMOOTH",
"108 201 OFFCURVE",
"104 187 OFFCURVE",
"104 173 CURVE SMOOTH",
"104 158 OFFCURVE",
"108 145 OFFCURVE",
"126 145 CURVE SMOOTH"
);
}
);
width = 531;
}
);
},
{
glyphname = uni0714.Medi.SYRJ;
lastChange = "2018-09-11 18:35:11 +0000";
layers = (
{
anchors = (
{
name = Anchor116;
position = "{471, 136}";
},
{
name = Anchor118;
position = "{641, -462}";
},
{
name = Anchor120;
position = "{391, -428}";
},
{
name = Anchor122;
position = "{354, 332}";
}
);
layerId = "C0CED439-FB43-4F2F-B9A6-3E073DE83FB3";
paths = (
{
closed = 1;
nodes = (
"379 -112 OFFCURVE",
"383 -125 OFFCURVE",
"401 -125 CURVE SMOOTH",
"423 -125 OFFCURVE",
"425 -112 OFFCURVE",
"425 -97 CURVE SMOOTH",
"425 -83 OFFCURVE",
"423 -69 OFFCURVE",
"401 -69 CURVE SMOOTH",
"383 -69 OFFCURVE",
"379 -83 OFFCURVE",
"379 -97 CURVE SMOOTH"
);
},
{
closed = 1;
nodes = (
"346 99 LINE",
"331 79 LINE",
"691 -191 LINE SMOOTH",
"726 -217 OFFCURVE",
"739 -240 OFFCURVE",
"739 -267 CURVE SMOOTH",
"739 -319 OFFCURVE",
"689 -349 OFFCURVE",
"629 -349 CURVE SMOOTH",
"578 -349 OFFCURVE",
"534 -325 OFFCURVE",
"499 -299 CURVE SMOOTH",
"158 -42 LINE SMOOTH",
"107 -3 OFFCURVE",
"63 25 OFFCURVE",
"5 25 CURVE SMOOTH",
"0 25 LINE SMOOTH",
"-19 25 OFFCURVE",
"-40 21 OFFCURVE",
"-40 13 CURVE SMOOTH",
"-40 4 OFFCURVE",
"-19 0 OFFCURVE",
"0 0 CURVE SMOOTH",
"5 0 LINE SMOOTH",
"58 0 OFFCURVE",
"98 -28 OFFCURVE",
"141 -60 CURVE SMOOTH",
"484 -319 LINE SMOOTH",
"536 -358 OFFCURVE",
"582 -374 OFFCURVE",
"627 -374 CURVE SMOOTH",
"722 -374 OFFCURVE",
"765 -320 OFFCURVE",
"765 -268 CURVE SMOOTH",
"765 -226 OFFCURVE",
"743 -199 OFFCURVE",
"707 -172 CURVE SMOOTH",
"566 -66 LINE SMOOTH",
"550 -54 OFFCURVE",
"484 -5 OFFCURVE",
"473 1 CURVE",
"473 3 LINE",
"490 1 OFFCURVE",
"529 0 OFFCURVE",
"545 0 CURVE SMOOTH",
"586 0 LINE",
"586 25 LINE",
"445 25 LINE"
);
}
);
width = 586;
}
);
},
{
glyphname = uni0714.Medi.SYRN;
lastChange = "2018-09-11 18:35:11 +0000";
layers = (
{
anchors = (
{
name = Anchor62;
position = "{273, -91}";
},
{
name = Anchor64;
position = "{171, -98}";
},
{
name = Anchor66;
position = "{-29, 740}";
}
);
layerId = "C0CED439-FB43-4F2F-B9A6-3E073DE83FB3";
paths = (
{
closed = 1;
nodes = (
"479 -235 LINE",
"479 -187 LINE",
"447 -187 LINE",
"350 0 LINE",
"364 0 LINE",
"364 25 LINE",
"346 25 OFFCURVE",
"344 26 OFFCURVE",
"331 51 CURVE SMOOTH",
"19 656 LINE",
"-4 644 LINE",
"315 25 LINE",
"0 25 LINE SMOOTH",
"-19 25 OFFCURVE",
"-40 21 OFFCURVE",
"-40 13 CURVE SMOOTH",
"-40 4 OFFCURVE",
"-19 0 OFFCURVE",
"0 0 CURVE SMOOTH",
"311 0 LINE",
"318 18 LINE",
"320 18 LINE",
"431 -197 LINE",
"431 -235 LINE"
);
},
{
closed = 1;
nodes = (
"83 147 LINE",
"83 195 LINE",
"35 195 LINE",
"35 147 LINE"
);
}
);
width = 364;
}
);
},
{
glyphname = uni0714.Init;
lastChange = "2018-09-11 18:35:11 +0000";
layers = (
{
anchors = (
{
name = Anchor6;
position = "{212, -144}";
},
{
name = Anchor8;
position = "{273, 532}";
}
);
layerId = "C0CED439-FB43-4F2F-B9A6-3E073DE83FB3";
paths = (
{
closed = 1;
nodes = (
"878 -370 LINE",
"893 -349 LINE",
"826 -302 OFFCURVE",
"752 -244 OFFCURVE",
"657 -151 CURVE SMOOTH",
"607 -102 OFFCURVE",
"557 -52 OFFCURVE",
"510 0 CURVE SMOOTH",
"371 152 OFFCURVE",
"244 315 OFFCURVE",
"125 481 CURVE",
"103 467 LINE",
"194 334 OFFCURVE",
"378 100 OFFCURVE",
"539 -69 CURVE SMOOTH",
"599 -132 OFFCURVE",
"656 -186 OFFCURVE",
"704 -222 CURVE",
"702 -224 LINE",
"612 -164 OFFCURVE",
"510 -110 OFFCURVE",
"415 -69 CURVE SMOOTH",
"280 -11 OFFCURVE",
"137 25 OFFCURVE",
"0 25 CURVE SMOOTH",
"-19 25 OFFCURVE",
"-40 21 OFFCURVE",
"-40 13 CURVE SMOOTH",
"-40 4 OFFCURVE",
"-19 0 OFFCURVE",
"0 0 CURVE SMOOTH",
"28 0 OFFCURVE",
"188 0 OFFCURVE",
"403 -91 CURVE SMOOTH",
"511 -137 OFFCURVE",
"610 -191 OFFCURVE",
"695 -244 CURVE SMOOTH",
"751 -279 OFFCURVE",
"799 -313 OFFCURVE",
"841 -343 CURVE SMOOTH"
);
},
{
closed = 1;
nodes = (
"148 145 OFFCURVE",
"150 158 OFFCURVE",
"150 173 CURVE SMOOTH",
"150 187 OFFCURVE",
"148 201 OFFCURVE",
"126 201 CURVE SMOOTH",
"108 201 OFFCURVE",
"104 187 OFFCURVE",
"104 173 CURVE SMOOTH",
"104 158 OFFCURVE",
"108 145 OFFCURVE",
"126 145 CURVE SMOOTH"
);
}
);
width = 671;
}
);
},
{
glyphname = uni0714.Init.SYRJ;
lastChange = "2018-09-11 18:35:11 +0000";
layers = (
{
anchors = (
{
name = Anchor116;
position = "{472, 135}";
},
{
name = Anchor118;
position = "{641, -462}";
},
{
name = Anchor120;
position = "{390, -428}";
},
{
name = Anchor122;
position = "{354, 330}";
}
);
layerId = "C0CED439-FB43-4F2F-B9A6-3E073DE83FB3";
paths = (
{
closed = 1;
nodes = (
"379 -112 OFFCURVE",
"383 -125 OFFCURVE",
"401 -125 CURVE SMOOTH",
"423 -125 OFFCURVE",
"425 -112 OFFCURVE",
"425 -97 CURVE SMOOTH",
"425 -83 OFFCURVE",
"423 -69 OFFCURVE",
"401 -69 CURVE SMOOTH",
"383 -69 OFFCURVE",
"379 -83 OFFCURVE",
"379 -97 CURVE SMOOTH"
);
},
{
closed = 1;
nodes = (
"333 109 LINE",
"318 89 LINE",
"691 -191 LINE SMOOTH",
"726 -217 OFFCURVE",
"739 -240 OFFCURVE",
"739 -267 CURVE SMOOTH",
"739 -319 OFFCURVE",
"689 -349 OFFCURVE",
"629 -349 CURVE SMOOTH",
"578 -349 OFFCURVE",
"534 -325 OFFCURVE",
"499 -299 CURVE SMOOTH",
"158 -42 LINE SMOOTH",
"107 -3 OFFCURVE",
"63 25 OFFCURVE",
"5 25 CURVE SMOOTH",
"0 25 LINE SMOOTH",
"-17 25 OFFCURVE",
"-40 21 OFFCURVE",
"-40 13 CURVE SMOOTH",
"-40 4 OFFCURVE",
"-17 0 OFFCURVE",
"0 0 CURVE SMOOTH",
"5 0 LINE SMOOTH",
"58 0 OFFCURVE",
"98 -28 OFFCURVE",
"141 -60 CURVE SMOOTH",
"484 -319 LINE SMOOTH",
"536 -358 OFFCURVE",
"582 -374 OFFCURVE",
"627 -374 CURVE SMOOTH",
"722 -374 OFFCURVE",
"765 -320 OFFCURVE",
"765 -268 CURVE SMOOTH",
"765 -226 OFFCURVE",
"743 -199 OFFCURVE",
"707 -172 CURVE SMOOTH"
);
}
);
width = 759;
}
);
},
{
glyphname = uni0714.Init.SYRN;
lastChange = "2018-09-11 18:35:11 +0000";
layers = (
{
anchors = (
{
name = Anchor62;
position = "{273, -91}";
},
{
name = Anchor64;
position = "{171, -98}";
},
{
name = Anchor66;
position = "{-29, 740}";
}
);
layerId = "C0CED439-FB43-4F2F-B9A6-3E073DE83FB3";
paths = (
{
closed = 1;
nodes = (
"486 -235 LINE",
"486 -187 LINE",
"454 -187 LINE",
"19 656 LINE",
"-4 644 LINE",
"315 25 LINE",
"0 25 LINE SMOOTH",
"-19 25 OFFCURVE",
"-40 21 OFFCURVE",
"-40 13 CURVE SMOOTH",
"-40 4 OFFCURVE",
"-19 0 OFFCURVE",
"0 0 CURVE SMOOTH",
"318 0 LINE",
"325 18 LINE",
"327 18 LINE",
"438 -197 LINE",
"438 -235 LINE"
);
},
{
closed = 1;
nodes = (
"83 147 LINE",
"83 195 LINE",
"35 195 LINE",
"35 147 LINE"
);
}
);
width = 423;
}
);
},
{
glyphname = uni0715;
lastChange = "2018-09-11 18:35:11 +0000";
layers = (
{
anchors = (
{
name = Anchor2;
position = "{406, 449}";
},
{
name = Anchor4;
position = "{416, -106}";
},
{
name = Anchor6;
position = "{203, -73}";
},
{
name = Anchor8;
position = "{190, 476}";
}
);
layerId = "C0CED439-FB43-4F2F-B9A6-3E073DE83FB3";
paths = (
{
closed = 1;
nodes = (
"246 120 OFFCURVE",
"248 133 OFFCURVE",
"248 148 CURVE SMOOTH",
"248 162 OFFCURVE",
"246 176 OFFCURVE",
"224 176 CURVE SMOOTH",
"206 176 OFFCURVE",
"202 162 OFFCURVE",
"202 148 CURVE SMOOTH",
"202 133 OFFCURVE",
"206 120 OFFCURVE",
"224 120 CURVE SMOOTH"
);
},
{
closed = 1;
nodes = (
"294 351 LINE SMOOTH",
"333 351 OFFCURVE",
"340 340 OFFCURVE",
"345 304 CURVE SMOOTH",
"389 -18 LINE",
"417 -18 LINE",
"369 321 LINE SMOOTH",
"364 353 OFFCURVE",
"351 376 OFFCURVE",
"303 376 CURVE SMOOTH",
"54 376 LINE",
"54 351 LINE"
);
}
);
width = 497;
}
);
unicode = 0715;
},
{
glyphname = uni0715.SYRJ;
lastChange = "2018-09-11 18:35:11 +0000";
layers = (
{
anchors = (
{
name = Anchor116;
position = "{274, 263}";
},
{
name = Anchor118;
position = "{246, -38}";
},
{
name = Anchor120;
position = "{124, -277}";
},
{
name = Anchor122;
position = "{147, 300}";
}
);
layerId = "C0CED439-FB43-4F2F-B9A6-3E073DE83FB3";
paths = (
{
closed = 1;
nodes = (
"102 -198 OFFCURVE",
"106 -211 OFFCURVE",
"124 -211 CURVE SMOOTH",
"146 -211 OFFCURVE",
"148 -198 OFFCURVE",
"148 -183 CURVE SMOOTH",
"148 -169 OFFCURVE",
"146 -155 OFFCURVE",
"124 -155 CURVE SMOOTH",
"106 -155 OFFCURVE",
"102 -169 OFFCURVE",
"102 -183 CURVE SMOOTH"
);
},
{
closed = 1;
nodes = (
"86 244 OFFCURVE",
"56 187 OFFCURVE",
"56 146 CURVE SMOOTH",
"56 106 OFFCURVE",
"71 76 OFFCURVE",
"111 39 CURVE SMOOTH",
"144 8 LINE",
"129 -11 OFFCURVE",
"103 -41 OFFCURVE",
"74 -71 CURVE",
"91 -87 LINE",
"198 27 OFFCURVE",
"233 77 OFFCURVE",
"233 139 CURVE SMOOTH",
"233 198 OFFCURVE",
"202 244 OFFCURVE",
"143 244 CURVE SMOOTH"
);
},
{
closed = 1;
nodes = (
"185 219 OFFCURVE",
"208 183 OFFCURVE",
"208 137 CURVE SMOOTH",
"208 105 OFFCURVE",
"191 65 OFFCURVE",
"161 29 CURVE",
"128 59 LINE SMOOTH",
"96 89 OFFCURVE",
"81 110 OFFCURVE",
"81 146 CURVE SMOOTH",
"81 177 OFFCURVE",
"100 219 OFFCURVE",
"142 219 CURVE SMOOTH"
);
}
);
width = 289;
}
);
},
{
glyphname = uni0715.SYRN;
lastChange = "2018-09-11 18:35:11 +0000";
layers = (
{
anchors = (
{
name = Anchor60;
position = "{411, 377}";
},
{
name = Anchor62;
position = "{412, -79}";
},
{
name = Anchor64;
position = "{228, -256}";
},
{
name = Anchor66;
position = "{221, 507}";
}
);
layerId = "C0CED439-FB43-4F2F-B9A6-3E073DE83FB3";
paths = (
{
closed = 1;
nodes = (
"252 -165 LINE",
"252 -117 LINE",
"204 -117 LINE",
"204 -165 LINE"
);
},
{
closed = 1;
nodes = (
"295 0 LINE SMOOTH",
"388 0 OFFCURVE",
"400 59 OFFCURVE",
"400 112 CURVE SMOOTH",
"400 278 OFFCURVE",
"330 386 OFFCURVE",
"193 386 CURVE SMOOTH",
"160 386 OFFCURVE",
"123 377 OFFCURVE",
"100 364 CURVE",
"100 340 LINE",
"131 354 OFFCURVE",
"167 361 OFFCURVE",
"193 361 CURVE SMOOTH",
"319 361 OFFCURVE",
"375 257 OFFCURVE",
"375 112 CURVE SMOOTH",
"375 63 OFFCURVE",
"364 25 OFFCURVE",
"294 25 CURVE SMOOTH",
"88 25 LINE",
"88 0 LINE"
);
}
);
width = 482;
}
);
},
{
glyphname = uni0715.Fina;
lastChange = "2018-09-11 18:35:11 +0000";
layers = (
{
anchors = (
{
name = Anchor2;
position = "{406, 449}";
},
{
name = Anchor4;
position = "{416, -106}";
},
{
name = Anchor6;
position = "{203, -76}";
},
{
name = Anchor8;
position = "{190, 475}";
}
);
layerId = "C0CED439-FB43-4F2F-B9A6-3E073DE83FB3";
paths = (
{
closed = 1;
nodes = (
"251 120 OFFCURVE",
"253 133 OFFCURVE",
"253 148 CURVE SMOOTH",
"253 162 OFFCURVE",
"251 176 OFFCURVE",
"229 176 CURVE SMOOTH",
"211 176 OFFCURVE",
"207 162 OFFCURVE",
"207 148 CURVE SMOOTH",
"207 133 OFFCURVE",
"211 120 OFFCURVE",
"229 120 CURVE SMOOTH"
);
},
{
closed = 1;
nodes = (
"481 0 LINE",
"481 25 LINE",
"448 25 LINE SMOOTH",
"434 25 OFFCURVE",
"424 26 OFFCURVE",
"413 28 CURVE",
"411 31 OFFCURVE",
"407 53 OFFCURVE",
"403 79 CURVE SMOOTH",
"369 321 LINE SMOOTH",
"364 353 OFFCURVE",
"351 376 OFFCURVE",
"303 376 CURVE SMOOTH",
"54 376 LINE",
"54 351 LINE",
"294 351 LINE SMOOTH",
"333 351 OFFCURVE",
"340 340 OFFCURVE",
"345 304 CURVE SMOOTH",
"382 35 LINE SMOOTH",
"386 5 OFFCURVE",
"396 0 OFFCURVE",
"431 0 CURVE SMOOTH"
);
}
);
width = 481;
}
);
},
{
glyphname = uni0715.Fina.SYRJ;
lastChange = "2018-09-11 18:35:11 +0000";
layers = (
{
anchors = (
{
name = Anchor116;
position = "{199, 226}";
},
{
name = Anchor118;
position = "{199, -74}";
},
{
name = Anchor120;
position = "{100, -286}";
},
{
name = Anchor122;
position = "{111, 220}";
}
);
layerId = "C0CED439-FB43-4F2F-B9A6-3E073DE83FB3";
paths = (
{
closed = 1;
nodes = (
"77 -207 OFFCURVE",
"81 -220 OFFCURVE",
"99 -220 CURVE SMOOTH",
"121 -220 OFFCURVE",
"123 -207 OFFCURVE",
"123 -192 CURVE SMOOTH",
"123 -178 OFFCURVE",
"121 -164 OFFCURVE",
"99 -164 CURVE SMOOTH",
"81 -164 OFFCURVE",
"77 -178 OFFCURVE",
"77 -192 CURVE SMOOTH"
);
},
{
closed = 1;
nodes = (
"72 175 OFFCURVE",
"44 142 OFFCURVE",
"44 100 CURVE SMOOTH",
"44 47 OFFCURVE",
"79 17 OFFCURVE",
"124 6 CURVE",
"113 -17 OFFCURVE",
"94 -49 OFFCURVE",
"65 -82 CURVE",
"82 -96 LINE",
"112 -65 OFFCURVE",
"135 -28 OFFCURVE",
"150 3 CURVE",
"179 0 OFFCURVE",
"241 0 OFFCURVE",
"251 0 CURVE",
"251 25 LINE",
"233 25 OFFCURVE",
"173 26 OFFCURVE",
"159 27 CURVE",
"168 51 OFFCURVE",
"172 73 OFFCURVE",
"172 96 CURVE SMOOTH",
"172 136 OFFCURVE",
"155 175 OFFCURVE",
"109 175 CURVE SMOOTH"
);
},
{
closed = 1;
nodes = (
"102 35 OFFCURVE",
"68 54 OFFCURVE",
"68 100 CURVE SMOOTH",
"68 128 OFFCURVE",
"82 152 OFFCURVE",
"109 152 CURVE SMOOTH",
"137 152 OFFCURVE",
"148 123 OFFCURVE",
"148 93 CURVE SMOOTH",
"148 69 OFFCURVE",
"140 43 OFFCURVE",
"134 29 CURVE"
);
}
);
width = 251;
}
);
},
{
glyphname = uni0715.Fina.SYRN;
lastChange = "2018-09-11 18:35:11 +0000";
layers = (
{
anchors = (
{
name = Anchor60;
position = "{411, 377}";
},
{
name = Anchor62;
position = "{413, -80}";
},
{
name = Anchor64;
position = "{243, -256}";
},
{
name = Anchor66;
position = "{221, 507}";
}
);
layerId = "C0CED439-FB43-4F2F-B9A6-3E073DE83FB3";
paths = (
{
closed = 1;
nodes = (
"258 -165 LINE",
"258 -117 LINE",
"210 -117 LINE",
"210 -165 LINE"
);
},
{
closed = 1;
nodes = (
"472 25 LINE",
"434 25 OFFCURVE",
"417 36 OFFCURVE",
"408 84 CURVE SMOOTH",
"386 207 LINE SMOOTH",
"366 318 OFFCURVE",
"305 386 OFFCURVE",
"193 386 CURVE SMOOTH",
"160 386 OFFCURVE",
"123 377 OFFCURVE",
"100 364 CURVE",
"100 340 LINE",
"131 354 OFFCURVE",
"167 361 OFFCURVE",
"193 361 CURVE SMOOTH",
"307 361 OFFCURVE",
"347 282 OFFCURVE",
"364 186 CURVE SMOOTH",
"383 77 LINE",
"375 46 OFFCURVE",
"348 25 OFFCURVE",
"294 25 CURVE SMOOTH",
"88 25 LINE",
"88 0 LINE",
"295 0 LINE SMOOTH",
"349 0 OFFCURVE",
"377 18 OFFCURVE",
"391 44 CURVE",
"393 44 LINE",
"405 9 OFFCURVE",
"430 0 OFFCURVE",
"472 0 CURVE"
);
}
);
width = 472;
}
);
},
{
glyphname = uni0716;
lastChange = "2018-09-11 18:35:11 +0000";
layers = (
{
anchors = (
{
name = Anchor2;
position = "{406, 449}";
},
{
name = Anchor4;
position = "{417, -106}";
},
{
name = Anchor6;
position = "{203, -73}";
},
{
name = Anchor8;
position = "{190, 475}";
}
);
layerId = "C0CED439-FB43-4F2F-B9A6-3E073DE83FB3";
paths = (
{
closed = 1;
nodes = (
"294 351 LINE SMOOTH",
"333 351 OFFCURVE",
"340 340 OFFCURVE",
"345 304 CURVE SMOOTH",
"389 -18 LINE",
"417 -18 LINE",
"369 321 LINE SMOOTH",
"364 353 OFFCURVE",
"351 376 OFFCURVE",
"303 376 CURVE SMOOTH",
"54 376 LINE",
"54 351 LINE"
);
}
);
width = 497;
}
);
unicode = 0716;
},
{
glyphname = uni0716.SYRJ;
lastChange = "2018-09-11 18:35:11 +0000";
layers = (
{
anchors = (
{
name = Anchor116;
position = "{274, 263}";
},
{
name = Anchor118;
position = "{246, -38}";
},
{
name = Anchor120;
position = "{103, -183}";
},
{
name = Anchor122;
position = "{153, 299}";
}
);
layerId = "C0CED439-FB43-4F2F-B9A6-3E073DE83FB3";
paths = (
{
closed = 1;
nodes = (
"86 244 OFFCURVE",
"56 187 OFFCURVE",
"56 146 CURVE SMOOTH",
"56 106 OFFCURVE",
"71 76 OFFCURVE",
"111 39 CURVE SMOOTH",
"144 8 LINE",
"129 -11 OFFCURVE",
"103 -41 OFFCURVE",
"74 -71 CURVE",
"91 -87 LINE",
"198 27 OFFCURVE",
"233 77 OFFCURVE",
"233 139 CURVE SMOOTH",
"233 198 OFFCURVE",
"202 244 OFFCURVE",
"143 244 CURVE SMOOTH"
);
},
{
closed = 1;
nodes = (
"185 219 OFFCURVE",
"208 183 OFFCURVE",
"208 137 CURVE SMOOTH",
"208 105 OFFCURVE",
"191 65 OFFCURVE",
"161 29 CURVE",
"128 59 LINE SMOOTH",
"96 89 OFFCURVE",
"81 110 OFFCURVE",
"81 146 CURVE SMOOTH",
"81 177 OFFCURVE",
"100 219 OFFCURVE",
"142 219 CURVE SMOOTH"
);
}
);
width = 289;
}
);
},
{
glyphname = uni0716.SYRN;
lastChange = "2018-09-11 18:35:11 +0000";
layers = (
{
anchors = (
{
name = Anchor60;
position = "{411, 377}";
},
{
name = Anchor62;
position = "{413, -80}";
},
{
name = Anchor64;
position = "{242, -98}";
},
{
name = Anchor66;
position = "{221, 507}";
}
);
layerId = "C0CED439-FB43-4F2F-B9A6-3E073DE83FB3";
paths = (
{
closed = 1;
nodes = (
"295 0 LINE SMOOTH",
"388 0 OFFCURVE",
"400 59 OFFCURVE",
"400 112 CURVE SMOOTH",
"400 278 OFFCURVE",
"330 386 OFFCURVE",
"193 386 CURVE SMOOTH",
"160 386 OFFCURVE",
"123 377 OFFCURVE",
"100 364 CURVE",
"100 340 LINE",
"131 354 OFFCURVE",
"167 361 OFFCURVE",
"193 361 CURVE SMOOTH",
"319 361 OFFCURVE",
"375 257 OFFCURVE",
"375 112 CURVE SMOOTH",
"375 63 OFFCURVE",
"364 25 OFFCURVE",
"294 25 CURVE SMOOTH",
"88 25 LINE",
"88 0 LINE"
);
}
);
width = 482;
}
);
},
{
glyphname = uni0716.Fina;
lastChange = "2018-09-11 18:35:11 +0000";
layers = (
{
anchors = (
{
name = Anchor2;
position = "{406, 449}";
},
{
name = Anchor4;
position = "{417, -106}";
},
{
name = Anchor6;
position = "{202, -74}";
},
{
name = Anchor8;
position = "{190, 475}";
}
);
layerId = "C0CED439-FB43-4F2F-B9A6-3E073DE83FB3";
paths = (
{
closed = 1;
nodes = (
"481 0 LINE",
"481 25 LINE",
"448 25 LINE SMOOTH",
"434 25 OFFCURVE",
"424 26 OFFCURVE",
"413 28 CURVE",
"411 31 OFFCURVE",
"407 53 OFFCURVE",
"403 79 CURVE SMOOTH",
"369 321 LINE SMOOTH",
"364 353 OFFCURVE",
"351 376 OFFCURVE",
"303 376 CURVE SMOOTH",
"54 376 LINE",
"54 351 LINE",
"294 351 LINE SMOOTH",
"333 351 OFFCURVE",
"340 340 OFFCURVE",
"345 304 CURVE SMOOTH",
"382 35 LINE SMOOTH",
"386 5 OFFCURVE",
"396 0 OFFCURVE",
"431 0 CURVE SMOOTH"
);
}
);
width = 481;
}
);
},
{
glyphname = uni0716.Fina.SYRJ;
lastChange = "2018-09-11 18:35:11 +0000";
layers = (
{
anchors = (
{
name = Anchor116;
position = "{198, 226}";
},
{
name = Anchor118;
position = "{198, -73}";
},
{
name = Anchor120;
position = "{92, -184}";
},
{
name = Anchor122;
position = "{112, 220}";
}
);
layerId = "C0CED439-FB43-4F2F-B9A6-3E073DE83FB3";
paths = (
{
closed = 1;
nodes = (
"72 175 OFFCURVE",
"44 142 OFFCURVE",
"44 100 CURVE SMOOTH",
"44 47 OFFCURVE",
"79 17 OFFCURVE",
"124 6 CURVE",
"113 -17 OFFCURVE",
"94 -49 OFFCURVE",
"65 -82 CURVE",
"82 -96 LINE",
"112 -65 OFFCURVE",
"135 -28 OFFCURVE",
"150 3 CURVE",
"179 0 OFFCURVE",
"241 0 OFFCURVE",
"251 0 CURVE",
"251 25 LINE",
"233 25 OFFCURVE",
"173 26 OFFCURVE",
"159 27 CURVE",
"168 51 OFFCURVE",
"172 73 OFFCURVE",
"172 96 CURVE SMOOTH",
"172 136 OFFCURVE",
"155 175 OFFCURVE",
"109 175 CURVE SMOOTH"
);
},
{
closed = 1;
nodes = (
"102 35 OFFCURVE",
"68 54 OFFCURVE",
"68 100 CURVE SMOOTH",
"68 128 OFFCURVE",
"82 152 OFFCURVE",
"109 152 CURVE SMOOTH",
"137 152 OFFCURVE",
"148 123 OFFCURVE",
"148 93 CURVE SMOOTH",
"148 69 OFFCURVE",
"140 43 OFFCURVE",
"134 29 CURVE"
);
}
);
width = 251;
}
);
},
{
glyphname = uni0716.Fina.SYRN;
lastChange = "2018-09-11 18:35:11 +0000";
layers = (
{
anchors = (
{
name = Anchor60;
position = "{411, 377}";
},
{
name = Anchor62;
position = "{413, -82}";
},
{
name = Anchor64;
position = "{240, -98}";
},
{
name = Anchor66;
position = "{221, 507}";
}
);
layerId = "C0CED439-FB43-4F2F-B9A6-3E073DE83FB3";
paths = (
{
closed = 1;
nodes = (
"472 25 LINE",
"434 25 OFFCURVE",
"417 36 OFFCURVE",
"408 84 CURVE SMOOTH",
"386 207 LINE SMOOTH",
"366 318 OFFCURVE",
"305 386 OFFCURVE",
"193 386 CURVE SMOOTH",
"160 386 OFFCURVE",
"123 377 OFFCURVE",
"100 364 CURVE",
"100 340 LINE",
"131 354 OFFCURVE",
"167 361 OFFCURVE",
"193 361 CURVE SMOOTH",
"307 361 OFFCURVE",
"347 282 OFFCURVE",
"364 186 CURVE SMOOTH",
"383 77 LINE",
"375 46 OFFCURVE",
"348 25 OFFCURVE",
"294 25 CURVE SMOOTH",
"88 25 LINE",
"88 0 LINE",
"295 0 LINE SMOOTH",
"349 0 OFFCURVE",
"377 18 OFFCURVE",
"391 44 CURVE",
"393 44 LINE",
"405 9 OFFCURVE",
"430 0 OFFCURVE",
"472 0 CURVE"
);
}
);
width = 472;
}
);
},
{
glyphname = uni0717;
lastChange = "2018-09-11 18:35:11 +0000";
layers = (
{
anchors = (
{
name = Anchor6;
position = "{445, -97}";
},
{
name = Anchor8;
position = "{439, 490}";
}
);
layerId = "C0CED439-FB43-4F2F-B9A6-3E073DE83FB3";
paths = (
{
closed = 1;
nodes = (
"620 0 LINE",
"622 0 OFFCURVE",
"623 0 OFFCURVE",
"625 0 CURVE SMOOTH",
"767 0 OFFCURVE",
"792 103 OFFCURVE",
"792 173 CURVE SMOOTH",
"792 298 OFFCURVE",
"738 384 OFFCURVE",
"601 384 CURVE SMOOTH",
"539 384 OFFCURVE",
"506 376 OFFCURVE",
"458 376 CURVE SMOOTH",
"430 376 OFFCURVE",
"348 387 OFFCURVE",
"290 387 CURVE SMOOTH",
"156 387 OFFCURVE",
"78 315 OFFCURVE",
"78 202 CURVE SMOOTH",
"78 98 OFFCURVE",
"118 35 OFFCURVE",
"202 -3 CURVE",
"212 18 LINE",
"142 53 OFFCURVE",
"104 107 OFFCURVE",
"104 197 CURVE SMOOTH",
"104 323 OFFCURVE",
"195 362 OFFCURVE",
"295 362 CURVE SMOOTH",
"344 362 OFFCURVE",
"432 354 OFFCURVE",
"459 351 CURVE",
"356 1 LINE",
"381 -4 LINE",
"485 351 LINE",
"515 356 OFFCURVE",
"557 359 OFFCURVE",
"595 359 CURVE SMOOTH",
"712 359 OFFCURVE",
"766 302 OFFCURVE",
"766 174 CURVE SMOOTH",
"766 95 OFFCURVE",
"739 24 OFFCURVE",
"626 24 CURVE SMOOTH",
"625 24 OFFCURVE",
"623 24 OFFCURVE",
"622 24 CURVE"
);
}
);
width = 871;
}
);
unicode = 0717;
},
{
glyphname = uni0717.SYRJ;
lastChange = "2018-09-11 18:35:11 +0000";
layers = (
{
anchors = (
{
name = Anchor120;
position = "{324, -98}";
},
{
name = Anchor122;
position = "{332, 507}";
}
);
layerId = "C0CED439-FB43-4F2F-B9A6-3E073DE83FB3";
paths = (
{
closed = 1;
nodes = (
"570 320 LINE",
"577 298 OFFCURVE",
"589 240 OFFCURVE",
"589 177 CURVE SMOOTH",
"589 117 OFFCURVE",
"587 64 OFFCURVE",
"574 0 CURVE",
"598 -4 LINE",
"611 51 OFFCURVE",
"615 109 OFFCURVE",
"615 179 CURVE SMOOTH",
"615 240 OFFCURVE",
"602 309 OFFCURVE",
"585 360 CURVE",
"559 355 LINE",
"542 318 OFFCURVE",
"505 246 OFFCURVE",
"454 185 CURVE",
"452 185 LINE",
"452 295 OFFCURVE",
"369 377 OFFCURVE",
"247 377 CURVE SMOOTH",
"140 377 OFFCURVE",
"55 294 OFFCURVE",
"55 185 CURVE SMOOTH",
"55 80 OFFCURVE",
"134 -4 OFFCURVE",
"256 -4 CURVE SMOOTH",
"355 -4 OFFCURVE",
"429 56 OFFCURVE",
"448 145 CURVE",
"501 203 OFFCURVE",
"536 258 OFFCURVE",
"568 320 CURVE"
);
},
{
closed = 1;
nodes = (
"145 21 OFFCURVE",
"82 96 OFFCURVE",
"82 187 CURVE SMOOTH",
"82 280 OFFCURVE",
"155 352 OFFCURVE",
"246 352 CURVE SMOOTH",
"356 352 OFFCURVE",
"426 283 OFFCURVE",
"426 186 CURVE SMOOTH",
"426 77 OFFCURVE",
"343 21 OFFCURVE",
"259 21 CURVE SMOOTH"
);
}
);
width = 698;
}
);
},
{
glyphname = uni0717.SYRN;
lastChange = "2018-09-11 18:35:11 +0000";
layers = (
{
anchors = (
{
name = Anchor64;
position = "{373, -101}";
},
{
name = Anchor66;
position = "{381, 496}";
}
);
layerId = "C0CED439-FB43-4F2F-B9A6-3E073DE83FB3";
paths = (
{
closed = 1;
nodes = (
"635 0 LINE",
"635 384 LINE",
"624 382 OFFCURVE",
"597 380 OFFCURVE",
"575 379 CURVE SMOOTH",
"521 377 OFFCURVE",
"486 377 OFFCURVE",
"438 377 CURVE SMOOTH",
"224 377 LINE SMOOTH",
"178 377 OFFCURVE",
"143 359 OFFCURVE",
"121 333 CURVE SMOOTH",
"92 299 OFFCURVE",
"80 250 OFFCURVE",
"80 202 CURVE SMOOTH",
"80 141 OFFCURVE",
"94 91 OFFCURVE",
"126 53 CURVE SMOOTH",
"157 17 OFFCURVE",
"204 0 OFFCURVE",
"256 0 CURVE SMOOTH",
"416 0 OFFCURVE",
"431 140 OFFCURVE",
"431 266 CURVE SMOOTH",
"431 290 OFFCURVE",
"428 327 OFFCURVE",
"423 352 CURVE",
"485 352 OFFCURVE",
"543 353 OFFCURVE",
"609 356 CURVE",
"609 0 LINE"
);
},
{
closed = 1;
nodes = (
"397 352 LINE",
"403 331 OFFCURVE",
"406 288 OFFCURVE",
"406 266 CURVE SMOOTH",
"406 144 OFFCURVE",
"389 25 OFFCURVE",
"257 25 CURVE SMOOTH",
"159 25 OFFCURVE",
"107 89 OFFCURVE",
"107 209 CURVE SMOOTH",
"107 291 OFFCURVE",
"150 352 OFFCURVE",
"219 352 CURVE SMOOTH"
);
}
);
width = 713;
}
);
},
{
glyphname = uni0717.Fina;
lastChange = "2018-09-11 18:35:11 +0000";
layers = (
{
anchors = (
{
name = Anchor6;
position = "{445, -97}";
},
{
name = Anchor8;
position = "{439, 490}";
}
);
layerId = "C0CED439-FB43-4F2F-B9A6-3E073DE83FB3";
paths = (
{
closed = 1;
nodes = (
"883 0 LINE",
"883 25 LINE",
"723 25 LINE",
"723 27 LINE",
"776 58 OFFCURVE",
"792 119 OFFCURVE",
"792 173 CURVE SMOOTH",
"792 298 OFFCURVE",
"738 384 OFFCURVE",
"601 384 CURVE SMOOTH",
"539 384 OFFCURVE",
"506 376 OFFCURVE",
"458 376 CURVE SMOOTH",
"430 376 OFFCURVE",
"348 387 OFFCURVE",
"290 387 CURVE SMOOTH",
"156 387 OFFCURVE",
"78 315 OFFCURVE",
"78 202 CURVE SMOOTH",
"78 98 OFFCURVE",
"118 35 OFFCURVE",
"202 -3 CURVE",
"212 18 LINE",
"142 53 OFFCURVE",
"104 107 OFFCURVE",
"104 197 CURVE SMOOTH",
"104 323 OFFCURVE",
"195 362 OFFCURVE",
"295 362 CURVE SMOOTH",
"344 362 OFFCURVE",
"432 354 OFFCURVE",
"459 351 CURVE",
"356 1 LINE",
"381 -4 LINE",
"485 351 LINE",
"515 356 OFFCURVE",
"557 359 OFFCURVE",
"595 359 CURVE SMOOTH",
"712 359 OFFCURVE",
"766 302 OFFCURVE",
"766 174 CURVE SMOOTH",
"766 100 OFFCURVE",
"741 24 OFFCURVE",
"633 24 CURVE SMOOTH",
"629 24 OFFCURVE",
"626 24 OFFCURVE",
"622 24 CURVE",
"620 1 LINE",
"638 0 OFFCURVE",
"659 0 OFFCURVE",
"673 0 CURVE SMOOTH"
);
}
);
width = 883;
}
);
},
{
glyphname = uni0717.Fina.SYRJ;
lastChange = "2018-09-11 18:35:11 +0000";
layers = (
{
anchors = (
{
name = Anchor120;
position = "{325, -98}";
},
{
name = Anchor122;
position = "{333, 506}";
}
);
layerId = "C0CED439-FB43-4F2F-B9A6-3E073DE83FB3";
paths = (
{
closed = 1;
nodes = (
"140 377 OFFCURVE",
"55 294 OFFCURVE",
"55 185 CURVE SMOOTH",
"55 80 OFFCURVE",
"134 -4 OFFCURVE",
"256 -4 CURVE SMOOTH",
"355 -4 OFFCURVE",
"429 56 OFFCURVE",
"448 145 CURVE",
"501 203 OFFCURVE",
"536 258 OFFCURVE",
"568 320 CURVE",
"570 320 LINE",
"577 298 OFFCURVE",
"589 240 OFFCURVE",
"589 177 CURVE SMOOTH",
"589 117 OFFCURVE",
"587 64 OFFCURVE",
"574 0 CURVE",
"598 -4 LINE",
"602 11 OFFCURVE",
"605 26 OFFCURVE",
"607 42 CURVE",
"609 42 LINE",
"629 5 OFFCURVE",
"689 0 OFFCURVE",
"731 0 CURVE",
"731 25 LINE",
"682 25 OFFCURVE",
"620 33 OFFCURVE",
"612 87 CURVE",
"614 116 OFFCURVE",
"615 146 OFFCURVE",
"615 179 CURVE SMOOTH",
"615 240 OFFCURVE",
"602 309 OFFCURVE",
"585 360 CURVE",
"559 355 LINE",
"542 318 OFFCURVE",
"505 246 OFFCURVE",
"454 185 CURVE",
"452 185 LINE",
"452 295 OFFCURVE",
"369 377 OFFCURVE",
"247 377 CURVE SMOOTH"
);
},
{
closed = 1;
nodes = (
"145 21 OFFCURVE",
"82 96 OFFCURVE",
"82 187 CURVE SMOOTH",
"82 280 OFFCURVE",
"155 352 OFFCURVE",
"246 352 CURVE SMOOTH",
"356 352 OFFCURVE",
"426 283 OFFCURVE",
"426 186 CURVE SMOOTH",
"426 77 OFFCURVE",
"343 21 OFFCURVE",
"259 21 CURVE SMOOTH"
);
}
);
width = 731;
}
);
},
{
glyphname = uni0717.Fina.SYRN;
lastChange = "2018-09-11 18:35:11 +0000";
layers = (
{
anchors = (
{
name = Anchor64;
position = "{372, -98}";
},
{
name = Anchor66;
position = "{383, 495}";
}
);
layerId = "C0CED439-FB43-4F2F-B9A6-3E073DE83FB3";
paths = (
{
closed = 1;
nodes = (
"750 0 LINE",
"750 25 LINE",
"635 25 LINE",
"635 384 LINE",
"624 382 OFFCURVE",
"597 380 OFFCURVE",
"575 379 CURVE SMOOTH",
"521 377 OFFCURVE",
"486 377 OFFCURVE",
"438 377 CURVE SMOOTH",
"224 377 LINE SMOOTH",
"178 377 OFFCURVE",
"143 359 OFFCURVE",
"121 333 CURVE SMOOTH",
"92 299 OFFCURVE",
"80 250 OFFCURVE",
"80 202 CURVE SMOOTH",
"80 141 OFFCURVE",
"94 91 OFFCURVE",
"126 53 CURVE SMOOTH",
"157 17 OFFCURVE",
"204 0 OFFCURVE",
"256 0 CURVE SMOOTH",
"416 0 OFFCURVE",
"431 140 OFFCURVE",
"431 266 CURVE SMOOTH",
"431 290 OFFCURVE",
"428 327 OFFCURVE",
"423 352 CURVE",
"485 352 OFFCURVE",
"543 353 OFFCURVE",
"609 356 CURVE",
"609 0 LINE"
);
},
{
closed = 1;
nodes = (
"397 352 LINE",
"403 331 OFFCURVE",
"406 288 OFFCURVE",
"406 266 CURVE SMOOTH",
"406 144 OFFCURVE",
"389 25 OFFCURVE",
"257 25 CURVE SMOOTH",
"159 25 OFFCURVE",
"107 89 OFFCURVE",
"107 209 CURVE SMOOTH",
"107 291 OFFCURVE",
"150 352 OFFCURVE",
"219 352 CURVE SMOOTH"
);
}
);
width = 750;
}
);
},
{
glyphname = uni0718;
lastChange = "2018-09-11 18:35:11 +0000";
layers = (
{
anchors = (
{
name = Anchor6;
position = "{291, -98}";
},
{
name = Anchor8;
position = "{262, 487}";
}
);
layerId = "C0CED439-FB43-4F2F-B9A6-3E073DE83FB3";
paths = (
{
closed = 1;
nodes = (
"488 -9 LINE",
"479 61 OFFCURVE",
"463 146 OFFCURVE",
"451 200 CURVE SMOOTH",
"422 327 OFFCURVE",
"380 386 OFFCURVE",
"272 386 CURVE SMOOTH",
"156 386 OFFCURVE",
"78 285 OFFCURVE",
"78 171 CURVE SMOOTH",
"78 50 OFFCURVE",
"158 -9 OFFCURVE",
"265 -9 CURVE SMOOTH",
"295 -9 OFFCURVE",
"330 -6 OFFCURVE",
"353 1 CURVE",
"347 24 LINE",
"326 18 OFFCURVE",
"298 16 OFFCURVE",
"274 16 CURVE SMOOTH",
"183 16 OFFCURVE",
"104 55 OFFCURVE",
"104 172 CURVE SMOOTH",
"104 273 OFFCURVE",
"172 361 OFFCURVE",
"274 361 CURVE SMOOTH",
"368 361 OFFCURVE",
"397 310 OFFCURVE",
"423 202 CURVE SMOOTH",
"439 137 OFFCURVE",
"451 63 OFFCURVE",
"462 -9 CURVE"
);
}
);
width = 563;
}
);
unicode = 0718;
},
{
glyphname = uni0718.SYRJ;
lastChange = "2018-09-11 18:35:11 +0000";
layers = (
{
anchors = (
{
name = Anchor120;
position = "{247, -98}";
},
{
name = Anchor122;
position = "{255, 507}";
}
);
layerId = "C0CED439-FB43-4F2F-B9A6-3E073DE83FB3";
paths = (
{
closed = 1;
nodes = (
"133 366 OFFCURVE",
"55 292 OFFCURVE",
"55 185 CURVE SMOOTH",
"55 85 OFFCURVE",
"131 -4 OFFCURVE",
"250 -4 CURVE SMOOTH",
"358 -4 OFFCURVE",
"438 66 OFFCURVE",
"438 180 CURVE SMOOTH",
"438 285 OFFCURVE",
"356 366 OFFCURVE",
"238 366 CURVE SMOOTH"
);
},
{
closed = 1;
nodes = (
"141 21 OFFCURVE",
"81 101 OFFCURVE",
"81 188 CURVE SMOOTH",
"81 279 OFFCURVE",
"147 341 OFFCURVE",
"237 341 CURVE SMOOTH",
"345 341 OFFCURVE",
"412 270 OFFCURVE",
"412 178 CURVE SMOOTH",
"412 75 OFFCURVE",
"338 21 OFFCURVE",
"253 21 CURVE SMOOTH"
);
}
);
width = 493;
}
);
},
{
glyphname = uni0718.SYRN;
lastChange = "2018-09-11 18:35:11 +0000";
layers = (
{
anchors = (
{
name = Anchor64;
position = "{271, -98}";
},
{
name = Anchor66;
position = "{272, 533}";
}
);
layerId = "C0CED439-FB43-4F2F-B9A6-3E073DE83FB3";
paths = (
{
closed = 1;
nodes = (
"394 -5 OFFCURVE",
"462 64 OFFCURVE",
"462 188 CURVE SMOOTH",
"462 254 OFFCURVE",
"445 306 OFFCURVE",
"411 347 CURVE SMOOTH",
"378 387 OFFCURVE",
"334 408 OFFCURVE",
"276 408 CURVE SMOOTH",
"216 408 OFFCURVE",
"168 389 OFFCURVE",
"134 348 CURVE SMOOTH",
"99 306 OFFCURVE",
"80 250 OFFCURVE",
"80 185 CURVE SMOOTH",
"80 65 OFFCURVE",
"144 -5 OFFCURVE",
"273 -5 CURVE SMOOTH"
);
},
{
closed = 1;
nodes = (
"158 20 OFFCURVE",
"106 79 OFFCURVE",
"106 187 CURVE SMOOTH",
"106 305 OFFCURVE",
"170 383 OFFCURVE",
"273 383 CURVE SMOOTH",
"375 383 OFFCURVE",
"436 305 OFFCURVE",
"436 187 CURVE SMOOTH",
"436 79 OFFCURVE",
"382 20 OFFCURVE",
"273 20 CURVE SMOOTH"
);
}
);
width = 542;
}
);
},
{
glyphname = uni0718.Fina;
lastChange = "2018-09-11 18:35:11 +0000";
layers = (
{
anchors = (
{
name = Anchor6;
position = "{291, -97}";
},
{
name = Anchor8;
position = "{263, 486}";
}
);
layerId = "C0CED439-FB43-4F2F-B9A6-3E073DE83FB3";
paths = (
{
closed = 1;
nodes = (
"551 0 LINE",
"551 25 LINE",
"522 25 LINE SMOOTH",
"508 25 OFFCURVE",
"498 26 OFFCURVE",
"487 28 CURVE",
"481 37 OFFCURVE",
"459 166 OFFCURVE",
"451 200 CURVE SMOOTH",
"422 327 OFFCURVE",
"380 386 OFFCURVE",
"272 386 CURVE SMOOTH",
"156 386 OFFCURVE",
"78 285 OFFCURVE",
"78 171 CURVE SMOOTH",
"78 50 OFFCURVE",
"158 -9 OFFCURVE",
"265 -9 CURVE SMOOTH",
"295 -9 OFFCURVE",
"330 -6 OFFCURVE",
"353 1 CURVE",
"347 24 LINE",
"326 18 OFFCURVE",
"298 16 OFFCURVE",
"274 16 CURVE SMOOTH",
"183 16 OFFCURVE",
"104 55 OFFCURVE",
"104 172 CURVE SMOOTH",
"104 273 OFFCURVE",
"172 361 OFFCURVE",
"274 361 CURVE SMOOTH",
"368 361 OFFCURVE",
"397 310 OFFCURVE",
"423 202 CURVE SMOOTH",
"439 137 OFFCURVE",
"444 96 OFFCURVE",
"456 37 CURVE SMOOTH",
"462 7 OFFCURVE",
"472 0 OFFCURVE",
"507 0 CURVE SMOOTH"
);
}
);
width = 551;
}
);
},
{
glyphname = uni0718.Fina.SYRJ;
lastChange = "2018-09-11 18:35:11 +0000";
layers = (
{
anchors = (
{
name = Anchor120;
position = "{247, -98}";
},
{
name = Anchor122;
position = "{256, 506}";
}
);
layerId = "C0CED439-FB43-4F2F-B9A6-3E073DE83FB3";
paths = (
{
closed = 1;
nodes = (
"133 366 OFFCURVE",
"55 294 OFFCURVE",
"55 187 CURVE SMOOTH",
"55 87 OFFCURVE",
"126 0 OFFCURVE",
"258 0 CURVE SMOOTH",
"500 0 LINE",
"500 25 LINE",
"419 25 LINE SMOOTH",
"396 25 OFFCURVE",
"366 24 OFFCURVE",
"339 21 CURVE",
"339 23 LINE",
"403 47 OFFCURVE",
"438 110 OFFCURVE",
"438 180 CURVE SMOOTH",
"438 285 OFFCURVE",
"356 366 OFFCURVE",
"238 366 CURVE SMOOTH"
);
},
{
closed = 1;
nodes = (
"141 25 OFFCURVE",
"81 103 OFFCURVE",
"81 190 CURVE SMOOTH",
"81 281 OFFCURVE",
"147 341 OFFCURVE",
"237 341 CURVE SMOOTH",
"345 341 OFFCURVE",
"412 270 OFFCURVE",
"412 178 CURVE SMOOTH",
"412 75 OFFCURVE",
"338 25 OFFCURVE",
"253 25 CURVE SMOOTH"
);
}
);
width = 500;
}
);
},
{
glyphname = uni0718.Fina.SYRN;
lastChange = "2018-09-11 18:35:11 +0000";
layers = (
{
anchors = (
{
name = Anchor64;
position = "{270, -99}";
},
{
name = Anchor66;
position = "{272, 533}";
}
);
layerId = "C0CED439-FB43-4F2F-B9A6-3E073DE83FB3";
paths = (
{
closed = 1;
nodes = (
"536 25 LINE",
"493 25 OFFCURVE",
"440 28 OFFCURVE",
"432 70 CURVE",
"451 101 OFFCURVE",
"462 140 OFFCURVE",
"462 188 CURVE SMOOTH",
"462 254 OFFCURVE",
"445 305 OFFCURVE",
"411 347 CURVE SMOOTH",
"378 387 OFFCURVE",
"334 408 OFFCURVE",
"276 408 CURVE SMOOTH",
"216 408 OFFCURVE",
"168 388 OFFCURVE",
"134 348 CURVE SMOOTH",
"98 306 OFFCURVE",
"80 250 OFFCURVE",
"80 185 CURVE SMOOTH",
"80 65 OFFCURVE",
"144 -5 OFFCURVE",
"273 -5 CURVE SMOOTH",
"335 -5 OFFCURVE",
"383 13 OFFCURVE",
"415 47 CURVE",
"418 47 LINE",
"433 7 OFFCURVE",
"481 0 OFFCURVE",
"536 0 CURVE"
);
},
{
closed = 1;
nodes = (
"158 20 OFFCURVE",
"106 79 OFFCURVE",
"106 187 CURVE SMOOTH",
"106 305 OFFCURVE",
"170 383 OFFCURVE",
"273 383 CURVE SMOOTH",
"375 383 OFFCURVE",
"436 305 OFFCURVE",
"436 187 CURVE SMOOTH",
"436 79 OFFCURVE",
"382 20 OFFCURVE",
"273 20 CURVE SMOOTH"
);
}
);
width = 536;
}
);
},
{
glyphname = uni0719;
lastChange = "2018-09-11 18:35:11 +0000";
layers = (
{
anchors = (
{
name = Anchor6;
position = "{143, -138}";
},
{
name = Anchor8;
position = "{73, 487}";
}
);
layerId = "C0CED439-FB43-4F2F-B9A6-3E073DE83FB3";
paths = (
{
closed = 1;
nodes = (
"162 -37 LINE",
"149 91 OFFCURVE",
"123 267 OFFCURVE",
"105 373 CURVE",
"78 370 LINE",
"97 266 OFFCURVE",
"122 95 OFFCURVE",
"136 -37 CURVE"
);
}
);
width = 238;
}
);
unicode = 0719;
},
{
glyphname = uni0719.SYRJ;
lastChange = "2018-09-11 18:35:11 +0000";
layers = (
{
anchors = (
{
name = Anchor120;
position = "{86, -195}";
},
{
name = Anchor122;
position = "{122, 537}";
}
);
layerId = "C0CED439-FB43-4F2F-B9A6-3E073DE83FB3";
paths = (
{
closed = 1;
nodes = (
"108 376 LINE",
"108 110 LINE SMOOTH",
"108 16 OFFCURVE",
"96 -34 OFFCURVE",
"75 -77 CURVE",
"96 -88 LINE",
"123 -40 OFFCURVE",
"134 25 OFFCURVE",
"134 123 CURVE SMOOTH",
"134 376 LINE"
);
}
);
width = 237;
}
);
},
{
glyphname = uni0719.SYRN;
lastChange = "2018-09-11 18:35:11 +0000";
layers = (
{
anchors = (
{
name = Anchor64;
position = "{127, -172}";
},
{
name = Anchor66;
position = "{121, 443}";
}
);
layerId = "C0CED439-FB43-4F2F-B9A6-3E073DE83FB3";
paths = (
{
closed = 1;
nodes = (
"146 -67 LINE",
"149 -18 LINE SMOOTH",
"153 46 OFFCURVE",
"157 131 OFFCURVE",
"157 213 CURVE SMOOTH",
"157 293 OFFCURVE",
"147 314 OFFCURVE",
"120 314 CURVE SMOOTH",
"92 314 OFFCURVE",
"80 290 OFFCURVE",
"80 210 CURVE SMOOTH",
"80 124 OFFCURVE",
"88 50 OFFCURVE",
"126 19 CURVE",
"122 -60 LINE"
);
},
{
closed = 1;
nodes = (
"128 57 LINE",
"111 78 OFFCURVE",
"104 150 OFFCURVE",
"104 210 CURVE SMOOTH",
"104 279 OFFCURVE",
"111 290 OFFCURVE",
"120 290 CURVE SMOOTH",
"131 290 OFFCURVE",
"133 274 OFFCURVE",
"133 213 CURVE SMOOTH",
"133 160 OFFCURVE",
"132 106 OFFCURVE",
"130 57 CURVE"
);
}
);
width = 237;
}
);
},
{
glyphname = uni0719.Fina;
lastChange = "2018-09-11 18:35:11 +0000";
layers = (
{
anchors = (
{
name = Anchor6;
position = "{143, -140}";
},
{
name = Anchor8;
position = "{74, 486}";
}
);
layerId = "C0CED439-FB43-4F2F-B9A6-3E073DE83FB3";
paths = (
{
closed = 1;
nodes = (
"239 0 LINE",
"239 25 LINE",
"233 25 LINE SMOOTH",
"209 25 OFFCURVE",
"155 26 OFFCURVE",
"148 82 CURVE SMOOTH",
"134 187 OFFCURVE",
"118 297 OFFCURVE",
"105 373 CURVE",
"78 370 LINE",
"97 266 OFFCURVE",
"122 95 OFFCURVE",
"136 -37 CURVE",
"162 -37 LINE",
"160 -17 OFFCURVE",
"158 3 OFFCURVE",
"155 24 CURVE",
"157 24 LINE",
"167 12 OFFCURVE",
"188 0 OFFCURVE",
"233 0 CURVE SMOOTH"
);
}
);
width = 239;
}
);
},
{
glyphname = uni0719.Fina.SYRJ;
lastChange = "2018-09-11 18:35:11 +0000";
layers = (
{
anchors = (
{
name = Anchor120;
position = "{86, -194}";
},
{
name = Anchor122;
position = "{122, 537}";
}
);
layerId = "C0CED439-FB43-4F2F-B9A6-3E073DE83FB3";
paths = (
{
closed = 1;
nodes = (
"108 376 LINE",
"108 110 LINE SMOOTH",
"108 16 OFFCURVE",
"96 -34 OFFCURVE",
"75 -77 CURVE",
"96 -88 LINE",
"116 -53 OFFCURVE",
"125 -12 OFFCURVE",
"131 39 CURVE",
"133 39 LINE",
"153 5 OFFCURVE",
"201 0 OFFCURVE",
"253 0 CURVE",
"253 25 LINE",
"184 25 OFFCURVE",
"143 35 OFFCURVE",
"134 85 CURVE",
"134 93 OFFCURVE",
"134 100 OFFCURVE",
"134 108 CURVE",
"134 376 LINE"
);
}
);
width = 253;
}
);
},
{
glyphname = uni0719.Fina.SYRN;
lastChange = "2018-09-11 18:35:11 +0000";
layers = (
{
anchors = (
{
name = Anchor64;
position = "{140, -172}";
},
{
name = Anchor66;
position = "{134, 443}";
}
);
layerId = "C0CED439-FB43-4F2F-B9A6-3E073DE83FB3";
paths = (
{
closed = 1;
nodes = (
"272 0 LINE",
"272 25 LINE",
"262 25 LINE SMOOTH",
"235 25 OFFCURVE",
"190 25 OFFCURVE",
"165 37 CURVE",
"167 91 OFFCURVE",
"170 153 OFFCURVE",
"170 213 CURVE SMOOTH",
"170 293 OFFCURVE",
"160 314 OFFCURVE",
"133 314 CURVE SMOOTH",
"105 314 OFFCURVE",
"93 290 OFFCURVE",
"93 210 CURVE SMOOTH",
"93 124 OFFCURVE",
"101 46 OFFCURVE",
"139 19 CURVE",
"135 -60 LINE",
"159 -67 LINE",
"164 10 LINE",
"190 1 OFFCURVE",
"234 0 OFFCURVE",
"263 0 CURVE SMOOTH"
);
},
{
closed = 1;
nodes = (
"141 49 LINE",
"124 70 OFFCURVE",
"117 150 OFFCURVE",
"117 210 CURVE SMOOTH",
"117 279 OFFCURVE",
"124 290 OFFCURVE",
"133 290 CURVE SMOOTH",
"144 290 OFFCURVE",
"146 274 OFFCURVE",
"146 213 CURVE SMOOTH",
"146 160 OFFCURVE",
"145 98 OFFCURVE",
"143 49 CURVE"
);
}
);
width = 272;
}
);
},
{
glyphname = uni071A;
lastChange = "2018-09-11 18:35:11 +0000";
layers = (
{
anchors = (
{
name = Anchor6;
position = "{453, -98}";
},
{
name = Anchor8;
position = "{412, 408}";
}
);
layerId = "C0CED439-FB43-4F2F-B9A6-3E073DE83FB3";
paths = (
{
closed = 1;
nodes = (
"501 0 OFFCURVE",
"570 9 OFFCURVE",
"570 91 CURVE SMOOTH",
"570 135 OFFCURVE",
"556 231 OFFCURVE",
"543 271 CURVE SMOOTH",
"538 286 OFFCURVE",
"534 287 OFFCURVE",
"528 287 CURVE SMOOTH",
"519 287 OFFCURVE",
"516 281 OFFCURVE",
"516 271 CURVE SMOOTH",
"516 253 OFFCURVE",
"538 147 OFFCURVE",
"546 70 CURVE",
"537 35 OFFCURVE",
"496 25 OFFCURVE",
"447 25 CURVE SMOOTH",
"410 25 OFFCURVE",
"364 32 OFFCURVE",
"347 68 CURVE",
"344 117 OFFCURVE",
"328 237 OFFCURVE",
"318 270 CURVE SMOOTH",
"313 287 OFFCURVE",
"310 288 OFFCURVE",
"303 288 CURVE SMOOTH",
"295 288 OFFCURVE",
"290 283 OFFCURVE",
"290 270 CURVE SMOOTH",
"290 245 OFFCURVE",
"304 147 OFFCURVE",
"323 63 CURVE",
"304 31 OFFCURVE",
"249 25 OFFCURVE",
"214 25 CURVE SMOOTH",
"169 25 OFFCURVE",
"107 40 OFFCURVE",
"78 91 CURVE",
"60 73 LINE",
"81 30 OFFCURVE",
"141 0 OFFCURVE",
"212 0 CURVE SMOOTH",
"282 0 OFFCURVE",
"314 16 OFFCURVE",
"335 39 CURVE",
"362 8 OFFCURVE",
"404 0 OFFCURVE",
"444 0 CURVE SMOOTH"
);
}
);
width = 644;
}
);
unicode = 071A;
},
{
glyphname = uni071A.SYRJ;
lastChange = "2018-09-11 18:35:11 +0000";
layers = (
{
anchors = (
{
name = Anchor120;
position = "{386, -98}";
},
{
name = Anchor122;
position = "{499, 366}";
}
);
layerId = "C0CED439-FB43-4F2F-B9A6-3E073DE83FB3";
paths = (
{
closed = 1;
nodes = (
"610 149 OFFCURVE",
"607 155 OFFCURVE",
"600 155 CURVE SMOOTH",
"594 155 OFFCURVE",
"589 154 OFFCURVE",
"580 136 CURVE SMOOTH",
"533 46 OFFCURVE",
"515 25 OFFCURVE",
"495 25 CURVE SMOOTH",
"493 25 LINE SMOOTH",
"477 25 OFFCURVE",
"464 37 OFFCURVE",
"424 111 CURVE SMOOTH",
"402 152 OFFCURVE",
"398 153 OFFCURVE",
"388 153 CURVE SMOOTH",
"379 153 OFFCURVE",
"375 152 OFFCURVE",
"361 128 CURVE SMOOTH",
"344 100 LINE SMOOTH",
"313 48 OFFCURVE",
"277 18 OFFCURVE",
"211 18 CURVE SMOOTH",
"129 18 OFFCURVE",
"90 55 OFFCURVE",
"86 140 CURVE",
"62 136 LINE",
"62 134 OFFCURVE",
"62 131 OFFCURVE",
"62 129 CURVE SMOOTH",
"62 35 OFFCURVE",
"123 -7 OFFCURVE",
"207 -7 CURVE SMOOTH",
"283 -7 OFFCURVE",
"331 16 OFFCURVE",
"387 126 CURVE",
"438 27 OFFCURVE",
"456 0 OFFCURVE",
"494 0 CURVE SMOOTH",
"524 0 OFFCURVE",
"550 21 OFFCURVE",
"583 79 CURVE SMOOTH",
"594 98 OFFCURVE",
"610 126 OFFCURVE",
"610 144 CURVE SMOOTH"
);
}
);
width = 682;
}
);
},
{
glyphname = uni071A.SYRN;
lastChange = "2018-09-11 18:35:11 +0000";
layers = (
{
anchors = (
{
name = Anchor64;
position = "{559, -98}";
},
{
name = Anchor66;
position = "{551, 434}";
}
);
layerId = "C0CED439-FB43-4F2F-B9A6-3E073DE83FB3";
paths = (
{
closed = 1;
nodes = (
"760 23 LINE",
"660 201 LINE",
"638 201 LINE",
"567 25 LINE",
"559 25 OFFCURVE",
"544 40 OFFCURVE",
"525 73 CURVE SMOOTH",
"453 201 LINE",
"431 201 LINE",
"363 32 LINE",
"323 26 OFFCURVE",
"280 25 OFFCURVE",
"250 25 CURVE SMOOTH",
"245 25 LINE SMOOTH",
"132 25 OFFCURVE",
"106 34 OFFCURVE",
"77 73 CURVE",
"60 53 LINE",
"77 23 OFFCURVE",
"108 0 OFFCURVE",
"214 0 CURVE SMOOTH",
"238 0 LINE SMOOTH",
"291 0 OFFCURVE",
"347 2 OFFCURVE",
"380 8 CURVE",
"442 166 LINE",
"444 166 LINE",
"500 66 LINE SMOOTH",
"525 22 OFFCURVE",
"541 0 OFFCURVE",
"571 0 CURVE SMOOTH",
"574 0 OFFCURVE",
"578 0 OFFCURVE",
"584 2 CURVE",
"649 166 LINE",
"651 166 LINE",
"730 23 LINE SMOOTH",
"738 9 OFFCURVE",
"744 0 OFFCURVE",
"757 0 CURVE SMOOTH",
"760 0 LINE"
);
}
);
width = 820;
}
);
},
{
glyphname = uni071A.Fina;
lastChange = "2018-09-11 18:35:11 +0000";
layers = (
{
anchors = (
{
name = Anchor6;
position = "{454, -99}";
},
{
name = Anchor8;
position = "{413, 407}";
}
);
layerId = "C0CED439-FB43-4F2F-B9A6-3E073DE83FB3";
paths = (
{
closed = 1;
nodes = (
"282 0 OFFCURVE",
"314 16 OFFCURVE",
"335 39 CURVE",
"362 8 OFFCURVE",
"404 0 OFFCURVE",
"444 0 CURVE SMOOTH",
"483 0 OFFCURVE",
"539 4 OFFCURVE",
"562 42 CURVE",
"586 10 OFFCURVE",
"632 0 OFFCURVE",
"681 0 CURVE",
"681 25 LINE",
"627 25 OFFCURVE",
"585 38 OFFCURVE",
"570 79 CURVE",
"570 83 LINE SMOOTH",
"568 119 OFFCURVE",
"557 237 OFFCURVE",
"547 270 CURVE SMOOTH",
"542 287 OFFCURVE",
"538 288 OFFCURVE",
"531 288 CURVE SMOOTH",
"523 288 OFFCURVE",
"519 283 OFFCURVE",
"519 270 CURVE SMOOTH",
"519 245 OFFCURVE",
"528 148 OFFCURVE",
"547 64 CURVE",
"537 33 OFFCURVE",
"496 25 OFFCURVE",
"447 25 CURVE SMOOTH",
"410 25 OFFCURVE",
"364 32 OFFCURVE",
"347 68 CURVE",
"344 117 OFFCURVE",
"328 237 OFFCURVE",
"318 270 CURVE SMOOTH",
"313 287 OFFCURVE",
"310 288 OFFCURVE",
"303 288 CURVE SMOOTH",
"295 288 OFFCURVE",
"290 283 OFFCURVE",
"290 270 CURVE SMOOTH",
"290 245 OFFCURVE",
"304 147 OFFCURVE",
"323 63 CURVE",
"304 31 OFFCURVE",
"249 25 OFFCURVE",
"214 25 CURVE SMOOTH",
"169 25 OFFCURVE",
"107 40 OFFCURVE",
"78 91 CURVE",
"60 73 LINE",
"81 30 OFFCURVE",
"141 0 OFFCURVE",
"212 0 CURVE SMOOTH"
);
}
);
width = 681;
}
);
},
{
glyphname = uni071A.Fina.SYRJ;
lastChange = "2018-09-11 18:35:11 +0000";
layers = (
{
anchors = (
{
name = Anchor120;
position = "{386, -98}";
},
{
name = Anchor122;
position = "{498, 366}";
}
);
layerId = "C0CED439-FB43-4F2F-B9A6-3E073DE83FB3";
paths = (
{
closed = 1;
nodes = (
"736 25 LINE",
"718 25 OFFCURVE",
"704 25 OFFCURVE",
"692 28 CURVE",
"683 33 OFFCURVE",
"663 59 OFFCURVE",
"633 111 CURVE SMOOTH",
"609 152 OFFCURVE",
"607 153 OFFCURVE",
"597 153 CURVE SMOOTH",
"588 153 OFFCURVE",
"585 152 OFFCURVE",
"569 126 CURVE SMOOTH",
"553 99 LINE SMOOTH",
"517 39 OFFCURVE",
"507 25 OFFCURVE",
"492 25 CURVE SMOOTH",
"489 25 LINE SMOOTH",
"474 25 OFFCURVE",
"463 40 OFFCURVE",
"424 111 CURVE SMOOTH",
"401 152 OFFCURVE",
"398 153 OFFCURVE",
"388 153 CURVE SMOOTH",
"379 153 OFFCURVE",
"375 152 OFFCURVE",
"361 128 CURVE SMOOTH",
"344 100 LINE SMOOTH",
"313 48 OFFCURVE",
"277 18 OFFCURVE",
"211 18 CURVE SMOOTH",
"132 18 OFFCURVE",
"90 55 OFFCURVE",
"86 140 CURVE",
"62 136 LINE",
"62 134 OFFCURVE",
"62 131 OFFCURVE",
"62 129 CURVE SMOOTH",
"62 35 OFFCURVE",
"126 -7 OFFCURVE",
"207 -7 CURVE SMOOTH",
"283 -7 OFFCURVE",
"331 16 OFFCURVE",
"387 126 CURVE",
"439 28 OFFCURVE",
"455 0 OFFCURVE",
"490 0 CURVE SMOOTH",
"514 0 OFFCURVE",
"531 14 OFFCURVE",
"570 81 CURVE SMOOTH",
"579 96 OFFCURVE",
"587 111 OFFCURVE",
"596 126 CURVE",
"662 7 OFFCURVE",
"673 0 OFFCURVE",
"718 0 CURVE SMOOTH",
"736 0 LINE"
);
}
);
width = 736;
}
);
},
{
glyphname = uni071A.Fina.SYRN;
lastChange = "2018-09-11 18:35:11 +0000";
layers = (
{
anchors = (
{
name = Anchor64;
position = "{558, -98}";
},
{
name = Anchor66;
position = "{554, 434}";
}
);
layerId = "C0CED439-FB43-4F2F-B9A6-3E073DE83FB3";
paths = (
{
closed = 1;
nodes = (
"638 201 LINE",
"567 25 LINE",
"559 25 OFFCURVE",
"545 40 OFFCURVE",
"526 73 CURVE SMOOTH",
"453 201 LINE",
"431 201 LINE",
"363 32 LINE",
"323 26 OFFCURVE",
"280 25 OFFCURVE",
"250 25 CURVE SMOOTH",
"245 25 LINE SMOOTH",
"132 25 OFFCURVE",
"106 34 OFFCURVE",
"77 73 CURVE",
"60 53 LINE",
"77 23 OFFCURVE",
"108 0 OFFCURVE",
"214 0 CURVE SMOOTH",
"228 0 LINE SMOOTH",
"281 0 OFFCURVE",
"347 2 OFFCURVE",
"380 8 CURVE",
"442 166 LINE",
"444 166 LINE",
"500 66 LINE SMOOTH",
"525 22 OFFCURVE",
"541 0 OFFCURVE",
"571 0 CURVE SMOOTH",
"574 0 OFFCURVE",
"578 0 OFFCURVE",
"584 2 CURVE",
"649 166 LINE",
"651 166 LINE",
"702 65 LINE SMOOTH",
"724 22 OFFCURVE",
"737 0 OFFCURVE",
"793 0 CURVE",
"793 25 LINE",
"764 25 OFFCURVE",
"752 27 OFFCURVE",
"729 71 CURVE SMOOTH",
"660 201 LINE"
);
}
);
width = 793;
}
);
},
{
glyphname = uni071A.Medi;
lastChange = "2018-09-11 18:35:11 +0000";
layers = (
{
anchors = (
{
name = Anchor6;
position = "{279, -98}";
},
{
name = Anchor8;
position = "{238, 409}";
}
);
layerId = "C0CED439-FB43-4F2F-B9A6-3E073DE83FB3";
paths = (
{
closed = 1;
nodes = (
"507 25 LINE",
"453 25 OFFCURVE",
"411 38 OFFCURVE",
"396 79 CURVE",
"396 83 LINE SMOOTH",
"394 119 OFFCURVE",
"383 237 OFFCURVE",
"373 270 CURVE SMOOTH",
"368 287 OFFCURVE",
"364 288 OFFCURVE",
"357 288 CURVE SMOOTH",
"349 288 OFFCURVE",
"345 283 OFFCURVE",
"345 270 CURVE SMOOTH",
"345 245 OFFCURVE",
"354 148 OFFCURVE",
"373 64 CURVE",
"363 33 OFFCURVE",
"322 25 OFFCURVE",
"273 25 CURVE SMOOTH",
"236 25 OFFCURVE",
"190 32 OFFCURVE",
"173 68 CURVE",
"170 117 OFFCURVE",
"154 237 OFFCURVE",
"144 270 CURVE SMOOTH",
"139 287 OFFCURVE",
"136 288 OFFCURVE",
"129 288 CURVE SMOOTH",
"121 288 OFFCURVE",
"116 283 OFFCURVE",
"116 270 CURVE SMOOTH",
"116 245 OFFCURVE",
"130 147 OFFCURVE",
"149 63 CURVE",
"129 29 OFFCURVE",
"65 25 OFFCURVE",
"12 25 CURVE SMOOTH",
"0 25 LINE SMOOTH",
"-19 25 OFFCURVE",
"-40 21 OFFCURVE",
"-40 13 CURVE SMOOTH",
"-40 4 OFFCURVE",
"-19 0 OFFCURVE",
"0 0 CURVE SMOOTH",
"17 0 LINE SMOOTH",
"102 0 OFFCURVE",
"141 18 OFFCURVE",
"161 39 CURVE",
"188 8 OFFCURVE",
"230 0 OFFCURVE",
"270 0 CURVE SMOOTH",
"309 0 OFFCURVE",
"365 4 OFFCURVE",
"388 42 CURVE",
"412 10 OFFCURVE",
"458 0 OFFCURVE",
"507 0 CURVE"
);
}
);
width = 507;
}
);
},
{
glyphname = uni071A.Medi.SYRJ;
lastChange = "2018-09-11 18:35:11 +0000";
layers = (
{
anchors = (
{
name = Anchor120;
position = "{242, -98}";
},
{
name = Anchor122;
position = "{251, 366}";
}
);
layerId = "C0CED439-FB43-4F2F-B9A6-3E073DE83FB3";
paths = (
{
closed = 1;
nodes = (
"489 25 LINE",
"471 25 OFFCURVE",
"457 25 OFFCURVE",
"445 28 CURVE",
"436 33 OFFCURVE",
"416 59 OFFCURVE",
"386 111 CURVE SMOOTH",
"362 152 OFFCURVE",
"360 153 OFFCURVE",
"350 153 CURVE SMOOTH",
"341 153 OFFCURVE",
"338 152 OFFCURVE",
"322 126 CURVE SMOOTH",
"306 99 LINE SMOOTH",
"270 39 OFFCURVE",
"260 25 OFFCURVE",
"245 25 CURVE SMOOTH",
"242 25 LINE SMOOTH",
"227 25 OFFCURVE",
"216 40 OFFCURVE",
"177 111 CURVE SMOOTH",
"154 152 OFFCURVE",
"151 153 OFFCURVE",
"141 153 CURVE SMOOTH",
"133 153 OFFCURVE",
"126 151 OFFCURVE",
"112 126 CURVE SMOOTH",
"98 102 LINE SMOOTH",
"73 59 OFFCURVE",
"45 25 OFFCURVE",
"0 25 CURVE SMOOTH",
"-17 25 OFFCURVE",
"-40 21 OFFCURVE",
"-40 13 CURVE SMOOTH",
"-40 4 OFFCURVE",
"-17 0 OFFCURVE",
"0 0 CURVE SMOOTH",
"55 0 OFFCURVE",
"90 39 OFFCURVE",
"114 81 CURVE SMOOTH",
"123 96 OFFCURVE",
"131 111 OFFCURVE",
"140 126 CURVE",
"192 28 OFFCURVE",
"208 0 OFFCURVE",
"243 0 CURVE SMOOTH",
"267 0 OFFCURVE",
"284 14 OFFCURVE",
"323 81 CURVE SMOOTH",
"332 96 OFFCURVE",
"340 111 OFFCURVE",
"349 126 CURVE",
"415 7 OFFCURVE",
"426 0 OFFCURVE",
"471 0 CURVE SMOOTH",
"489 0 LINE"
);
}
);
width = 489;
}
);
},
{
glyphname = uni071A.Medi.SYRN;
lastChange = "2018-09-11 18:35:11 +0000";
layers = (
{
anchors = (
{
name = Anchor64;
position = "{263, -98}";
},
{
name = Anchor66;
position = "{254, 431}";
}
);
layerId = "C0CED439-FB43-4F2F-B9A6-3E073DE83FB3";
paths = (
{
closed = 1;
nodes = (
"22 0 OFFCURVE",
"49 0 OFFCURVE",
"82 4 CURVE",
"145 166 LINE",
"147 166 LINE",
"203 66 LINE SMOOTH",
"228 22 OFFCURVE",
"244 0 OFFCURVE",
"274 0 CURVE SMOOTH",
"277 0 OFFCURVE",
"281 0 OFFCURVE",
"287 2 CURVE",
"352 166 LINE",
"354 166 LINE",
"405 65 LINE SMOOTH",
"427 22 OFFCURVE",
"440 0 OFFCURVE",
"496 0 CURVE",
"496 25 LINE",
"467 25 OFFCURVE",
"455 27 OFFCURVE",
"432 71 CURVE SMOOTH",
"363 201 LINE",
"341 201 LINE",
"270 25 LINE",
"262 25 OFFCURVE",
"248 40 OFFCURVE",
"229 73 CURVE SMOOTH",
"156 201 LINE",
"134 201 LINE",
"65 28 LINE",
"46 25 OFFCURVE",
"15 25 OFFCURVE",
"0 25 CURVE SMOOTH",
"-19 25 OFFCURVE",
"-40 21 OFFCURVE",
"-40 13 CURVE SMOOTH",
"-40 4 OFFCURVE",
"-19 0 OFFCURVE",
"0 0 CURVE SMOOTH"
);
}
);
width = 496;
}
);
},
{
glyphname = uni071A.Init;
lastChange = "2018-09-11 18:35:11 +0000";
layers = (
{
anchors = (
{
name = Anchor6;
position = "{280, -98}";
},
{
name = Anchor8;
position = "{238, 407}";
}
);
layerId = "C0CED439-FB43-4F2F-B9A6-3E073DE83FB3";
paths = (
{
closed = 1;
nodes = (
"17 0 LINE SMOOTH",
"102 0 OFFCURVE",
"139 22 OFFCURVE",
"160 45 CURVE",
"182 13 OFFCURVE",
"230 0 OFFCURVE",
"270 0 CURVE SMOOTH",
"327 0 OFFCURVE",
"396 9 OFFCURVE",
"396 91 CURVE SMOOTH",
"396 135 OFFCURVE",
"382 231 OFFCURVE",
"369 271 CURVE SMOOTH",
"364 286 OFFCURVE",
"360 287 OFFCURVE",
"354 287 CURVE SMOOTH",
"345 287 OFFCURVE",
"342 281 OFFCURVE",
"342 271 CURVE SMOOTH",
"342 253 OFFCURVE",
"364 147 OFFCURVE",
"372 70 CURVE",
"363 35 OFFCURVE",
"322 25 OFFCURVE",
"273 25 CURVE SMOOTH",
"231 25 OFFCURVE",
"191 33 OFFCURVE",
"172 74 CURVE",
"169 123 OFFCURVE",
"154 237 OFFCURVE",
"144 270 CURVE SMOOTH",
"139 287 OFFCURVE",
"136 288 OFFCURVE",
"129 288 CURVE SMOOTH",
"121 288 OFFCURVE",
"116 283 OFFCURVE",
"116 270 CURVE SMOOTH",
"116 245 OFFCURVE",
"129 153 OFFCURVE",
"148 69 CURVE",
"128 32 OFFCURVE",
"65 25 OFFCURVE",
"12 25 CURVE SMOOTH",
"0 25 LINE SMOOTH",
"-19 25 OFFCURVE",
"-40 21 OFFCURVE",
"-40 13 CURVE SMOOTH",
"-40 4 OFFCURVE",
"-19 0 OFFCURVE",
"0 0 CURVE SMOOTH"
);
}
);
width = 470;
}
);
},
{
glyphname = uni071A.Init.SYRJ;
lastChange = "2018-09-11 18:35:11 +0000";
layers = (
{
anchors = (
{
name = Anchor120;
position = "{248, -98}";
},
{
name = Anchor122;
position = "{248, 366}";
}
);
layerId = "C0CED439-FB43-4F2F-B9A6-3E073DE83FB3";
paths = (
{
closed = 1;
nodes = (
"363 149 OFFCURVE",
"360 155 OFFCURVE",
"353 155 CURVE SMOOTH",
"347 155 OFFCURVE",
"342 154 OFFCURVE",
"333 136 CURVE SMOOTH",
"286 46 OFFCURVE",
"268 25 OFFCURVE",
"248 25 CURVE SMOOTH",
"246 25 LINE SMOOTH",
"230 25 OFFCURVE",
"217 37 OFFCURVE",
"177 111 CURVE SMOOTH",
"155 152 OFFCURVE",
"151 153 OFFCURVE",
"141 153 CURVE SMOOTH",
"132 153 OFFCURVE",
"128 152 OFFCURVE",
"114 128 CURVE SMOOTH",
"97 100 LINE SMOOTH",
"66 48 OFFCURVE",
"37 25 OFFCURVE",
"0 25 CURVE SMOOTH",
"-17 25 OFFCURVE",
"-40 21 OFFCURVE",
"-40 13 CURVE SMOOTH",
"-40 4 OFFCURVE",
"-17 0 OFFCURVE",
"0 0 CURVE SMOOTH",
"32 0 OFFCURVE",
"71 11 OFFCURVE",
"113 78 CURVE SMOOTH",
"123 94 OFFCURVE",
"131 109 OFFCURVE",
"140 126 CURVE",
"191 27 OFFCURVE",
"209 0 OFFCURVE",
"247 0 CURVE SMOOTH",
"277 0 OFFCURVE",
"303 21 OFFCURVE",
"336 79 CURVE SMOOTH",
"347 98 OFFCURVE",
"363 126 OFFCURVE",
"363 144 CURVE SMOOTH"
);
}
);
width = 440;
}
);
},
{
glyphname = uni071A.Init.SYRN;
lastChange = "2018-09-11 18:35:11 +0000";
layers = (
{
anchors = (
{
name = Anchor64;
position = "{263, -98}";
},
{
name = Anchor66;
position = "{255, 433}";
}
);
layerId = "C0CED439-FB43-4F2F-B9A6-3E073DE83FB3";
paths = (
{
closed = 1;
nodes = (
"352 166 LINE",
"354 166 LINE",
"433 23 LINE SMOOTH",
"441 9 OFFCURVE",
"447 0 OFFCURVE",
"460 0 CURVE SMOOTH",
"463 0 LINE",
"463 23 LINE",
"363 201 LINE",
"341 201 LINE",
"270 25 LINE",
"262 25 OFFCURVE",
"248 40 OFFCURVE",
"229 73 CURVE SMOOTH",
"156 201 LINE",
"134 201 LINE",
"65 28 LINE",
"46 25 OFFCURVE",
"15 25 OFFCURVE",
"0 25 CURVE SMOOTH",
"-19 25 OFFCURVE",
"-40 21 OFFCURVE",
"-40 13 CURVE SMOOTH",
"-40 4 OFFCURVE",
"-19 0 OFFCURVE",
"0 0 CURVE SMOOTH",
"22 0 OFFCURVE",
"49 0 OFFCURVE",
"82 4 CURVE",
"145 166 LINE",
"147 166 LINE",
"203 66 LINE SMOOTH",
"228 22 OFFCURVE",
"244 0 OFFCURVE",
"274 0 CURVE SMOOTH",
"277 0 OFFCURVE",
"281 0 OFFCURVE",
"287 2 CURVE"
);
}
);
width = 523;
}
);
},
{
glyphname = uni071B;
lastChange = "2018-09-11 18:35:11 +0000";
layers = (
{
anchors = (
{
name = Anchor6;
position = "{518, -418}";
},
{
name = Anchor8;
position = "{489, 726}";
}
);
layerId = "C0CED439-FB43-4F2F-B9A6-3E073DE83FB3";
paths = (
{
closed = 1;
nodes = (
"615 -257 LINE SMOOTH",
"624 -280 OFFCURVE",
"639 -318 OFFCURVE",
"656 -333 CURVE SMOOTH",
"665 -341 OFFCURVE",
"676 -347 OFFCURVE",
"690 -347 CURVE SMOOTH",
"706 -347 OFFCURVE",
"717 -344 OFFCURVE",
"737 -321 CURVE SMOOTH",
"802 -248 OFFCURVE",
"882 -85 OFFCURVE",
"882 17 CURVE SMOOTH",
"882 25 LINE",
"538 25 LINE",
"291 686 LINE",
"266 676 LINE",
"509 25 LINE",
"228 25 LINE SMOOTH",
"137 25 OFFCURVE",
"106 34 OFFCURVE",
"77 73 CURVE",
"60 53 LINE",
"77 23 OFFCURVE",
"113 0 OFFCURVE",
"197 0 CURVE SMOOTH",
"517 0 LINE"
);
},
{
closed = 1;
nodes = (
"688 -321 LINE",
"677 -319 OFFCURVE",
"664 -310 OFFCURVE",
"642 -252 CURVE SMOOTH",
"546 0 LINE",
"856 0 LINE",
"845 -136 OFFCURVE",
"722 -318 OFFCURVE",
"700 -321 CURVE"
);
}
);
width = 941;
}
);
unicode = 071B;
},
{
glyphname = uni071B.SYRJ;
lastChange = "2018-09-11 18:35:11 +0000";
layers = (
{
anchors = (
{
name = Anchor120;
position = "{237, -352}";
},
{
name = Anchor122;
position = "{275, 693}";
}
);
layerId = "C0CED439-FB43-4F2F-B9A6-3E073DE83FB3";
paths = (
{
closed = 1;
nodes = (
"389 -38 OFFCURVE",
"318 14 OFFCURVE",
"210 60 CURVE",
"277 155 OFFCURVE",
"295 182 OFFCURVE",
"313 213 CURVE SMOOTH",
"377 321 OFFCURVE",
"403 428 OFFCURVE",
"403 500 CURVE SMOOTH",
"403 554 OFFCURVE",
"394 591 OFFCURVE",
"361 635 CURVE",
"359 635 LINE",
"342 616 LINE",
"367 580 OFFCURVE",
"377 544 OFFCURVE",
"377 498 CURVE SMOOTH",
"377 419 OFFCURVE",
"341 309 OFFCURVE",
"292 226 CURVE SMOOTH",
"261 174 OFFCURVE",
"217 114 OFFCURVE",
"187 71 CURVE",
"148 89 OFFCURVE",
"111 115 OFFCURVE",
"77 164 CURVE",
"75 164 LINE",
"59 146 LINE",
"86 103 OFFCURVE",
"123 75 OFFCURVE",
"171 51 CURVE",
"129 -12 OFFCURVE",
"99 -70 OFFCURVE",
"99 -144 CURVE SMOOTH",
"99 -227 OFFCURVE",
"154 -288 OFFCURVE",
"238 -288 CURVE SMOOTH",
"333 -288 OFFCURVE",
"389 -214 OFFCURVE",
"389 -132 CURVE SMOOTH"
);
},
{
closed = 1;
nodes = (
"363 -210 OFFCURVE",
"313 -263 OFFCURVE",
"241 -263 CURVE SMOOTH",
"160 -263 OFFCURVE",
"125 -206 OFFCURVE",
"125 -138 CURVE SMOOTH",
"125 -70 OFFCURVE",
"160 -9 OFFCURVE",
"195 41 CURVE",
"294 -3 OFFCURVE",
"363 -45 OFFCURVE",
"363 -133 CURVE SMOOTH"
);
}
);
width = 466;
}
);
},
{
glyphname = uni071B.SYRN;
lastChange = "2018-09-11 18:35:11 +0000";
layers = (
{
anchors = (
{
name = Anchor64;
position = "{418, -98}";
},
{
name = Anchor66;
position = "{331, 736}";
}
);
layerId = "C0CED439-FB43-4F2F-B9A6-3E073DE83FB3";
paths = (
{
closed = 1;
nodes = (
"833 -255 LINE",
"986 0 LINE",
"986 25 LINE",
"697 25 LINE",
"372 656 LINE",
"349 644 LINE",
"668 25 LINE",
"228 25 LINE SMOOTH",
"137 25 OFFCURVE",
"106 34 OFFCURVE",
"77 73 CURVE",
"60 53 LINE",
"77 23 OFFCURVE",
"113 0 OFFCURVE",
"197 0 CURVE SMOOTH",
"681 0 LINE",
"813 -255 LINE"
);
},
{
closed = 1;
nodes = (
"827 -226 LINE",
"710 0 LINE",
"963 0 LINE"
);
}
);
width = 1066;
}
);
},
{
glyphname = uni071B.Fina;
lastChange = "2018-09-11 18:35:11 +0000";
layers = (
{
anchors = (
{
name = Anchor6;
position = "{519, -418}";
},
{
name = Anchor8;
position = "{489, 724}";
}
);
layerId = "C0CED439-FB43-4F2F-B9A6-3E073DE83FB3";
paths = (
{
closed = 1;
nodes = (
"613 -257 LINE SMOOTH",
"622 -280 OFFCURVE",
"637 -318 OFFCURVE",
"654 -333 CURVE SMOOTH",
"663 -341 OFFCURVE",
"674 -347 OFFCURVE",
"688 -347 CURVE SMOOTH",
"704 -347 OFFCURVE",
"715 -344 OFFCURVE",
"735 -321 CURVE SMOOTH",
"800 -248 OFFCURVE",
"880 -85 OFFCURVE",
"880 17 CURVE SMOOTH",
"880 25 LINE",
"536 25 LINE",
"289 686 LINE",
"264 676 LINE",
"507 25 LINE",
"226 25 LINE SMOOTH",
"135 25 OFFCURVE",
"104 34 OFFCURVE",
"75 73 CURVE",
"58 53 LINE",
"75 23 OFFCURVE",
"111 0 OFFCURVE",
"195 0 CURVE SMOOTH",
"515 0 LINE"
);
},
{
closed = 1;
nodes = (
"686 -321 LINE",
"675 -319 OFFCURVE",
"662 -310 OFFCURVE",
"640 -252 CURVE SMOOTH",
"544 0 LINE",
"854 0 LINE",
"843 -136 OFFCURVE",
"720 -318 OFFCURVE",
"698 -321 CURVE"
);
}
);
width = 833;
}
);
},
{
glyphname = uni071B.Fina.SYRJ;
lastChange = "2018-09-11 18:35:11 +0000";
layers = (
{
anchors = (
{
name = Anchor120;
position = "{261, -353}";
},
{
name = Anchor122;
position = "{247, 668}";
}
);
layerId = "C0CED439-FB43-4F2F-B9A6-3E073DE83FB3";
paths = (
{
closed = 1;
nodes = (
"413 -41 OFFCURVE",
"356 -4 OFFCURVE",
"197 57 CURVE",
"208 89 OFFCURVE",
"220 125 OFFCURVE",
"230 166 CURVE SMOOTH",
"248 238 OFFCURVE",
"262 346 OFFCURVE",
"262 454 CURVE SMOOTH",
"262 472 OFFCURVE",
"262 483 OFFCURVE",
"259 527 CURVE",
"261 527 LINE",
"286 475 OFFCURVE",
"475 176 OFFCURVE",
"524 102 CURVE SMOOTH",
"590 3 OFFCURVE",
"622 0 OFFCURVE",
"669 0 CURVE",
"669 25 LINE",
"629 25 OFFCURVE",
"608 28 OFFCURVE",
"545 119 CURVE SMOOTH",
"472 224 OFFCURVE",
"314 477 OFFCURVE",
"257 586 CURVE",
"233 576 LINE",
"237 538 OFFCURVE",
"238 513 OFFCURVE",
"238 456 CURVE SMOOTH",
"238 348 OFFCURVE",
"225 241 OFFCURVE",
"206 169 CURVE SMOOTH",
"196 132 OFFCURVE",
"186 99 OFFCURVE",
"175 68 CURVE",
"138 88 OFFCURVE",
"104 114 OFFCURVE",
"77 158 CURVE",
"75 158 LINE",
"59 140 LINE",
"86 95 OFFCURVE",
"123 67 OFFCURVE",
"167 43 CURVE",
"145 -20 OFFCURVE",
"126 -76 OFFCURVE",
"126 -143 CURVE SMOOTH",
"126 -234 OFFCURVE",
"189 -288 OFFCURVE",
"267 -288 CURVE SMOOTH",
"364 -288 OFFCURVE",
"413 -211 OFFCURVE",
"413 -140 CURVE SMOOTH"
);
},
{
closed = 1;
nodes = (
"387 -203 OFFCURVE",
"345 -263 OFFCURVE",
"270 -263 CURVE SMOOTH",
"198 -263 OFFCURVE",
"152 -213 OFFCURVE",
"152 -137 CURVE SMOOTH",
"152 -77 OFFCURVE",
"168 -25 OFFCURVE",
"188 33 CURVE",
"325 -19 OFFCURVE",
"387 -47 OFFCURVE",
"387 -141 CURVE SMOOTH"
);
}
);
width = 669;
}
);
},
{
glyphname = uni071B.Fina.SYRN;
lastChange = "2018-09-11 18:35:11 +0000";
layers = (
{
anchors = (
{
name = Anchor64;
position = "{418, -98}";
},
{
name = Anchor66;
position = "{329, 736}";
}
);
layerId = "C0CED439-FB43-4F2F-B9A6-3E073DE83FB3";
paths = (
{
closed = 1;
nodes = (
"833 -255 LINE",
"986 0 LINE",
"986 25 LINE",
"697 25 LINE",
"372 656 LINE",
"349 644 LINE",
"668 25 LINE",
"228 25 LINE SMOOTH",
"137 25 OFFCURVE",
"106 34 OFFCURVE",
"77 73 CURVE",
"60 53 LINE",
"77 23 OFFCURVE",
"113 0 OFFCURVE",
"197 0 CURVE SMOOTH",
"681 0 LINE",
"813 -255 LINE"
);
},
{
closed = 1;
nodes = (
"827 -226 LINE",
"710 0 LINE",
"963 0 LINE"
);
}
);
width = 942;
}
);
},
{
glyphname = uni071B.Medi;
lastChange = "2018-09-11 18:35:11 +0000";
layers = (
{
anchors = (
{
name = Anchor6;
position = "{234, -418}";
},
{
name = Anchor8;
position = "{211, 726}";
}
);
layerId = "C0CED439-FB43-4F2F-B9A6-3E073DE83FB3";
paths = (
{
closed = 1;
nodes = (
"333 -257 LINE SMOOTH",
"342 -280 OFFCURVE",
"357 -318 OFFCURVE",
"374 -333 CURVE SMOOTH",
"383 -341 OFFCURVE",
"394 -347 OFFCURVE",
"408 -347 CURVE SMOOTH",
"424 -347 OFFCURVE",
"435 -344 OFFCURVE",
"455 -321 CURVE SMOOTH",
"520 -248 OFFCURVE",
"600 -85 OFFCURVE",
"600 17 CURVE SMOOTH",
"600 25 LINE",
"256 25 LINE",
"9 686 LINE",
"-16 676 LINE",
"227 25 LINE",
"0 25 LINE SMOOTH",
"-19 25 OFFCURVE",
"-40 21 OFFCURVE",
"-40 13 CURVE SMOOTH",
"-40 4 OFFCURVE",
"-19 0 OFFCURVE",
"0 0 CURVE SMOOTH",
"235 0 LINE"
);
},
{
closed = 1;
nodes = (
"406 -321 LINE",
"395 -319 OFFCURVE",
"382 -310 OFFCURVE",
"360 -252 CURVE SMOOTH",
"264 0 LINE",
"574 0 LINE",
"563 -136 OFFCURVE",
"440 -318 OFFCURVE",
"418 -321 CURVE"
);
}
);
width = 553;
}
);
},
{
glyphname = uni071B.Medi.SYRJ;
lastChange = "2018-09-11 18:35:11 +0000";
layers = (
{
anchors = (
{
name = Anchor120;
position = "{172, -356}";
},
{
name = Anchor122;
position = "{155, 665}";
}
);
layerId = "C0CED439-FB43-4F2F-B9A6-3E073DE83FB3";
paths = (
{
closed = 1;
nodes = (
"332 -41 OFFCURVE",
"273 25 OFFCURVE",
"114 25 CURVE SMOOTH",
"107 25 OFFCURVE",
"101 25 OFFCURVE",
"94 25 CURVE",
"106 67 OFFCURVE",
"121 116 OFFCURVE",
"135 171 CURVE SMOOTH",
"156 256 OFFCURVE",
"172 371 OFFCURVE",
"172 468 CURVE SMOOTH",
"172 476 OFFCURVE",
"172 493 OFFCURVE",
"169 527 CURVE",
"171 527 LINE",
"196 475 OFFCURVE",
"366 204 OFFCURVE",
"415 130 CURVE SMOOTH",
"493 13 OFFCURVE",
"516 0 OFFCURVE",
"579 0 CURVE",
"579 25 LINE",
"534 25 OFFCURVE",
"515 29 OFFCURVE",
"436 147 CURVE SMOOTH",
"365 253 OFFCURVE",
"224 477 OFFCURVE",
"167 586 CURVE",
"143 576 LINE",
"147 538 OFFCURVE",
"148 527 OFFCURVE",
"148 470 CURVE SMOOTH",
"148 366 OFFCURVE",
"131 259 OFFCURVE",
"111 175 CURVE SMOOTH",
"97 118 OFFCURVE",
"81 69 OFFCURVE",
"68 25 CURVE",
"0 25 LINE SMOOTH",
"-19 25 OFFCURVE",
"-40 21 OFFCURVE",
"-40 13 CURVE SMOOTH",
"-40 4 OFFCURVE",
"-19 0 OFFCURVE",
"0 0 CURVE SMOOTH",
"61 0 LINE",
"48 -45 OFFCURVE",
"39 -88 OFFCURVE",
"39 -132 CURVE SMOOTH",
"39 -221 OFFCURVE",
"90 -288 OFFCURVE",
"179 -288 CURVE SMOOTH",
"274 -288 OFFCURVE",
"332 -219 OFFCURVE",
"332 -134 CURVE SMOOTH"
);
},
{
closed = 1;
nodes = (
"306 -214 OFFCURVE",
"254 -263 OFFCURVE",
"182 -263 CURVE SMOOTH",
"96 -263 OFFCURVE",
"65 -200 OFFCURVE",
"65 -126 CURVE SMOOTH",
"65 -88 OFFCURVE",
"74 -46 OFFCURVE",
"87 0 CURVE",
"97 0 OFFCURVE",
"106 0 OFFCURVE",
"116 0 CURVE SMOOTH",
"234 0 OFFCURVE",
"306 -36 OFFCURVE",
"306 -135 CURVE SMOOTH"
);
}
);
width = 579;
}
);
},
{
glyphname = uni071B.Medi.SYRN;
lastChange = "2018-09-11 18:35:11 +0000";
layers = (
{
anchors = (
{
name = Anchor64;
position = "{175, -98}";
},
{
name = Anchor66;
position = "{-26, 739}";
}
);
layerId = "C0CED439-FB43-4F2F-B9A6-3E073DE83FB3";
paths = (
{
closed = 1;
nodes = (
"480 -255 LINE",
"633 0 LINE",
"633 25 LINE",
"344 25 LINE",
"19 656 LINE",
"-4 644 LINE",
"315 25 LINE",
"0 25 LINE SMOOTH",
"-19 25 OFFCURVE",
"-40 21 OFFCURVE",
"-40 13 CURVE SMOOTH",
"-40 4 OFFCURVE",
"-19 0 OFFCURVE",
"0 0 CURVE SMOOTH",
"328 0 LINE",
"460 -255 LINE"
);
},
{
closed = 1;
nodes = (
"474 -226 LINE",
"357 0 LINE",
"610 0 LINE"
);
}
);
width = 589;
}
);
},
{
glyphname = uni071B.Init;
lastChange = "2018-09-11 18:35:11 +0000";
layers = (
{
anchors = (
{
name = Anchor6;
position = "{234, -419}";
},
{
name = Anchor8;
position = "{211, 726}";
}
);
layerId = "C0CED439-FB43-4F2F-B9A6-3E073DE83FB3";
paths = (
{
closed = 1;
nodes = (
"333 -257 LINE SMOOTH",
"342 -280 OFFCURVE",
"357 -318 OFFCURVE",
"374 -333 CURVE SMOOTH",
"383 -341 OFFCURVE",
"394 -347 OFFCURVE",
"408 -347 CURVE SMOOTH",
"424 -347 OFFCURVE",
"435 -344 OFFCURVE",
"455 -321 CURVE SMOOTH",
"520 -248 OFFCURVE",
"600 -85 OFFCURVE",
"600 17 CURVE SMOOTH",
"600 25 LINE",
"256 25 LINE",
"9 686 LINE",
"-16 676 LINE",
"227 25 LINE",
"0 25 LINE SMOOTH",
"-19 25 OFFCURVE",
"-40 21 OFFCURVE",
"-40 13 CURVE SMOOTH",
"-40 4 OFFCURVE",
"-19 0 OFFCURVE",
"0 0 CURVE SMOOTH",
"235 0 LINE"
);
},
{
closed = 1;
nodes = (
"406 -321 LINE",
"395 -319 OFFCURVE",
"382 -310 OFFCURVE",
"360 -252 CURVE SMOOTH",
"264 0 LINE",
"574 0 LINE",
"563 -136 OFFCURVE",
"440 -318 OFFCURVE",
"418 -321 CURVE"
);
}
);
width = 659;
}
);
},
{
glyphname = uni071B.Init.SYRJ;
lastChange = "2018-09-11 18:35:11 +0000";
layers = (
{
anchors = (
{
name = Anchor120;
position = "{178, -352}";
},
{
name = Anchor122;
position = "{184, 691}";
}
);
layerId = "C0CED439-FB43-4F2F-B9A6-3E073DE83FB3";
paths = (
{
closed = 1;
nodes = (
"332 -41 OFFCURVE",
"273 25 OFFCURVE",
"114 25 CURVE SMOOTH",
"110 25 OFFCURVE",
"106 25 OFFCURVE",
"102 25 CURVE",
"137 100 OFFCURVE",
"188 170 OFFCURVE",
"224 235 CURVE SMOOTH",
"285 346 OFFCURVE",
"313 428 OFFCURVE",
"313 500 CURVE SMOOTH",
"313 554 OFFCURVE",
"304 591 OFFCURVE",
"271 635 CURVE",
"269 635 LINE",
"252 616 LINE",
"277 580 OFFCURVE",
"287 544 OFFCURVE",
"287 498 CURVE SMOOTH",
"287 419 OFFCURVE",
"250 334 OFFCURVE",
"203 248 CURVE SMOOTH",
"160 169 OFFCURVE",
"108 100 OFFCURVE",
"75 25 CURVE",
"0 25 LINE SMOOTH",
"-19 25 OFFCURVE",
"-40 21 OFFCURVE",
"-40 13 CURVE SMOOTH",
"-40 4 OFFCURVE",
"-19 0 OFFCURVE",
"0 0 CURVE SMOOTH",
"64 0 LINE",
"49 -41 OFFCURVE",
"39 -84 OFFCURVE",
"39 -132 CURVE SMOOTH",
"39 -221 OFFCURVE",
"90 -288 OFFCURVE",
"179 -288 CURVE SMOOTH",
"274 -288 OFFCURVE",
"332 -219 OFFCURVE",
"332 -134 CURVE SMOOTH"
);
},
{
closed = 1;
nodes = (
"306 -214 OFFCURVE",
"254 -263 OFFCURVE",
"182 -263 CURVE SMOOTH",
"96 -263 OFFCURVE",
"65 -200 OFFCURVE",
"65 -126 CURVE SMOOTH",
"65 -82 OFFCURVE",
"75 -40 OFFCURVE",
"91 0 CURVE",
"99 0 OFFCURVE",
"108 0 OFFCURVE",
"116 0 CURVE SMOOTH",
"234 0 OFFCURVE",
"306 -36 OFFCURVE",
"306 -135 CURVE SMOOTH"
);
}
);
width = 403;
}
);
},
{
glyphname = uni071B.Init.SYRN;
lastChange = "2018-09-11 18:35:11 +0000";
layers = (
{
anchors = (
{
name = Anchor64;
position = "{175, -98}";
},
{
name = Anchor66;
position = "{-25, 736}";
}
);
layerId = "C0CED439-FB43-4F2F-B9A6-3E073DE83FB3";
paths = (
{
closed = 1;
nodes = (
"480 -255 LINE",
"633 0 LINE",
"633 25 LINE",
"344 25 LINE",
"19 656 LINE",
"-4 644 LINE",
"315 25 LINE",
"0 25 LINE SMOOTH",
"-19 25 OFFCURVE",
"-40 21 OFFCURVE",
"-40 13 CURVE SMOOTH",
"-40 4 OFFCURVE",
"-19 0 OFFCURVE",
"0 0 CURVE SMOOTH",
"328 0 LINE",
"460 -255 LINE"
);
},
{
closed = 1;
nodes = (
"474 -226 LINE",
"357 0 LINE",
"610 0 LINE"
);
}
);
width = 713;
}
);
},
{
glyphname = uni071C;
lastChange = "2018-09-11 18:35:11 +0000";
layers = (
{
anchors = (
{
name = Anchor6;
position = "{519, -418}";
},
{
name = Anchor8;
position = "{489, 726}";
}
);
layerId = "C0CED439-FB43-4F2F-B9A6-3E073DE83FB3";
paths = (
{
closed = 1;
nodes = (
"727 -133 OFFCURVE",
"729 -120 OFFCURVE",
"729 -105 CURVE SMOOTH",
"729 -91 OFFCURVE",
"727 -77 OFFCURVE",
"705 -77 CURVE SMOOTH",
"687 -77 OFFCURVE",
"683 -91 OFFCURVE",
"683 -105 CURVE SMOOTH",
"683 -120 OFFCURVE",
"687 -133 OFFCURVE",
"705 -133 CURVE SMOOTH"
);
},
{
closed = 1;
nodes = (
"615 -257 LINE SMOOTH",
"624 -280 OFFCURVE",
"639 -318 OFFCURVE",
"656 -333 CURVE SMOOTH",
"665 -341 OFFCURVE",
"676 -347 OFFCURVE",
"690 -347 CURVE SMOOTH",
"706 -347 OFFCURVE",
"717 -344 OFFCURVE",
"737 -321 CURVE SMOOTH",
"802 -248 OFFCURVE",
"882 -85 OFFCURVE",
"882 17 CURVE SMOOTH",
"882 25 LINE",
"538 25 LINE",
"291 686 LINE",
"266 676 LINE",
"509 25 LINE",
"228 25 LINE SMOOTH",
"137 25 OFFCURVE",
"106 34 OFFCURVE",
"77 73 CURVE",
"60 53 LINE",
"77 23 OFFCURVE",
"113 0 OFFCURVE",
"197 0 CURVE SMOOTH",
"517 0 LINE"
);
},
{
closed = 1;
nodes = (
"688 -321 LINE",
"677 -319 OFFCURVE",
"664 -310 OFFCURVE",
"642 -252 CURVE SMOOTH",
"610 -168 OFFCURVE",
"578 -84 OFFCURVE",
"546 0 CURVE",
"856 0 LINE",
"845 -136 OFFCURVE",
"722 -318 OFFCURVE",
"700 -321 CURVE"
);
}
);
width = 941;
}
);
unicode = 071C;
},
{
glyphname = uni071C.SYRJ;
lastChange = "2018-09-11 18:35:11 +0000";
layers = (
{
anchors = (
{
name = Anchor120;
position = "{236, -353}";
},
{
name = Anchor122;
position = "{275, 690}";
}
);
layerId = "C0CED439-FB43-4F2F-B9A6-3E073DE83FB3";
paths = (
{
closed = 1;
nodes = (
"389 -38 OFFCURVE",
"318 14 OFFCURVE",
"210 60 CURVE",
"277 155 OFFCURVE",
"295 182 OFFCURVE",
"313 213 CURVE SMOOTH",
"377 321 OFFCURVE",
"403 428 OFFCURVE",
"403 500 CURVE SMOOTH",
"403 554 OFFCURVE",
"394 591 OFFCURVE",
"361 635 CURVE",
"359 635 LINE",
"342 616 LINE",
"367 580 OFFCURVE",
"377 544 OFFCURVE",
"377 498 CURVE SMOOTH",
"377 419 OFFCURVE",
"341 309 OFFCURVE",
"292 226 CURVE SMOOTH",
"261 174 OFFCURVE",
"217 114 OFFCURVE",
"187 71 CURVE",
"148 89 OFFCURVE",
"111 115 OFFCURVE",
"77 164 CURVE",
"75 164 LINE",
"59 146 LINE",
"86 103 OFFCURVE",
"123 75 OFFCURVE",
"171 51 CURVE",
"129 -12 OFFCURVE",
"99 -70 OFFCURVE",
"99 -144 CURVE SMOOTH",
"99 -227 OFFCURVE",
"154 -288 OFFCURVE",
"238 -288 CURVE SMOOTH",
"333 -288 OFFCURVE",
"389 -214 OFFCURVE",
"389 -132 CURVE SMOOTH"
);
},
{
closed = 1;
nodes = (
"363 -210 OFFCURVE",
"313 -263 OFFCURVE",
"241 -263 CURVE SMOOTH",
"160 -263 OFFCURVE",
"125 -206 OFFCURVE",
"125 -138 CURVE SMOOTH",
"125 -70 OFFCURVE",
"160 -9 OFFCURVE",
"195 41 CURVE",
"294 -3 OFFCURVE",
"363 -45 OFFCURVE",
"363 -133 CURVE SMOOTH"
);
},
{
closed = 1;
nodes = (
"218 -131 OFFCURVE",
"222 -144 OFFCURVE",
"240 -144 CURVE SMOOTH",
"262 -144 OFFCURVE",
"264 -131 OFFCURVE",
"264 -116 CURVE SMOOTH",
"264 -102 OFFCURVE",
"262 -88 OFFCURVE",
"240 -88 CURVE SMOOTH",
"222 -88 OFFCURVE",
"218 -102 OFFCURVE",
"218 -116 CURVE SMOOTH"
);
}
);
width = 466;
}
);
},
{
glyphname = uni071C.SYRN;
lastChange = "2018-09-11 18:35:11 +0000";
layers = (
{
anchors = (
{
name = Anchor64;
position = "{418, -98}";
},
{
name = Anchor66;
position = "{328, 737}";
}
);
layerId = "C0CED439-FB43-4F2F-B9A6-3E073DE83FB3";
paths = (
{
closed = 1;
nodes = (
"833 -255 LINE",
"986 0 LINE",
"986 25 LINE",
"697 25 LINE",
"372 656 LINE",
"349 644 LINE",
"668 25 LINE",
"228 25 LINE SMOOTH",
"137 25 OFFCURVE",
"106 34 OFFCURVE",
"77 73 CURVE",
"60 53 LINE",
"77 23 OFFCURVE",
"113 0 OFFCURVE",
"197 0 CURVE SMOOTH",
"681 0 LINE",
"813 -255 LINE"
);
},
{
closed = 1;
nodes = (
"810 -194 OFFCURVE",
"792 -161 OFFCURVE",
"774 -129 CURVE SMOOTH",
"752 -86 OFFCURVE",
"731 -43 OFFCURVE",
"710 0 CURVE",
"963 0 LINE",
"938 -42 OFFCURVE",
"912 -84 OFFCURVE",
"887 -126 CURVE SMOOTH",
"867 -159 OFFCURVE",
"847 -193 OFFCURVE",
"827 -226 CURVE"
);
},
{
closed = 1;
nodes = (
"857 -100 LINE",
"857 -52 LINE",
"809 -52 LINE",
"809 -100 LINE"
);
}
);
width = 1078;
}
);
},
{
glyphname = uni071C.Fina;
lastChange = "2018-09-11 18:35:11 +0000";
layers = (
{
anchors = (
{
name = Anchor6;
position = "{516, -418}";
},
{
name = Anchor8;
position = "{489, 726}";
}
);
layerId = "C0CED439-FB43-4F2F-B9A6-3E073DE83FB3";
paths = (
{
closed = 1;
nodes = (
"613 -257 LINE SMOOTH",
"622 -280 OFFCURVE",
"637 -318 OFFCURVE",
"654 -333 CURVE SMOOTH",
"663 -341 OFFCURVE",
"674 -347 OFFCURVE",
"688 -347 CURVE SMOOTH",
"704 -347 OFFCURVE",
"715 -344 OFFCURVE",
"735 -321 CURVE SMOOTH",
"800 -248 OFFCURVE",
"880 -85 OFFCURVE",
"880 17 CURVE SMOOTH",
"880 25 LINE",
"536 25 LINE",
"289 686 LINE",
"264 676 LINE",
"507 25 LINE",
"226 25 LINE SMOOTH",
"135 25 OFFCURVE",
"104 34 OFFCURVE",
"75 73 CURVE",
"58 53 LINE",
"75 23 OFFCURVE",
"111 0 OFFCURVE",
"195 0 CURVE SMOOTH",
"515 0 LINE"
);
},
{
closed = 1;
nodes = (
"686 -321 LINE",
"675 -319 OFFCURVE",
"662 -310 OFFCURVE",
"640 -252 CURVE SMOOTH",
"608 -168 OFFCURVE",
"576 -84 OFFCURVE",
"544 0 CURVE",
"854 0 LINE",
"843 -136 OFFCURVE",
"720 -318 OFFCURVE",
"698 -321 CURVE"
);
},
{
closed = 1;
nodes = (
"725 -133 OFFCURVE",
"727 -120 OFFCURVE",
"727 -105 CURVE SMOOTH",
"727 -91 OFFCURVE",
"725 -77 OFFCURVE",
"703 -77 CURVE SMOOTH",
"685 -77 OFFCURVE",
"681 -91 OFFCURVE",
"681 -105 CURVE SMOOTH",
"681 -120 OFFCURVE",
"685 -133 OFFCURVE",
"703 -133 CURVE SMOOTH"
);
}
);
width = 833;
}
);
},
{
glyphname = uni071C.Fina.SYRJ;
lastChange = "2018-09-11 18:35:11 +0000";
layers = (
{
anchors = (
{
name = Anchor120;
position = "{261, -353}";
},
{
name = Anchor122;
position = "{247, 668}";
}
);
layerId = "C0CED439-FB43-4F2F-B9A6-3E073DE83FB3";
paths = (
{
closed = 1;
nodes = (
"413 -41 OFFCURVE",
"356 -4 OFFCURVE",
"197 57 CURVE",
"208 89 OFFCURVE",
"220 125 OFFCURVE",
"230 166 CURVE SMOOTH",
"248 238 OFFCURVE",
"262 346 OFFCURVE",
"262 454 CURVE SMOOTH",
"262 472 OFFCURVE",
"262 483 OFFCURVE",
"259 527 CURVE",
"261 527 LINE",
"286 475 OFFCURVE",
"475 176 OFFCURVE",
"524 102 CURVE SMOOTH",
"590 3 OFFCURVE",
"622 0 OFFCURVE",
"669 0 CURVE",
"669 25 LINE",
"629 25 OFFCURVE",
"608 28 OFFCURVE",
"545 119 CURVE SMOOTH",
"472 224 OFFCURVE",
"314 477 OFFCURVE",
"257 586 CURVE",
"233 576 LINE",
"237 538 OFFCURVE",
"238 513 OFFCURVE",
"238 456 CURVE SMOOTH",
"238 348 OFFCURVE",
"225 241 OFFCURVE",
"206 169 CURVE SMOOTH",
"196 132 OFFCURVE",
"186 99 OFFCURVE",
"175 68 CURVE",
"138 88 OFFCURVE",
"104 114 OFFCURVE",
"77 158 CURVE",
"75 158 LINE",
"59 140 LINE",
"86 95 OFFCURVE",
"123 67 OFFCURVE",
"167 43 CURVE",
"145 -20 OFFCURVE",
"126 -76 OFFCURVE",
"126 -143 CURVE SMOOTH",
"126 -234 OFFCURVE",
"189 -288 OFFCURVE",
"267 -288 CURVE SMOOTH",
"364 -288 OFFCURVE",
"413 -211 OFFCURVE",
"413 -140 CURVE SMOOTH"
);
},
{
closed = 1;
nodes = (
"387 -203 OFFCURVE",
"345 -263 OFFCURVE",
"270 -263 CURVE SMOOTH",
"198 -263 OFFCURVE",
"152 -213 OFFCURVE",
"152 -137 CURVE SMOOTH",
"152 -77 OFFCURVE",
"168 -25 OFFCURVE",
"188 33 CURVE",
"325 -19 OFFCURVE",
"387 -47 OFFCURVE",
"387 -141 CURVE SMOOTH"
);
},
{
closed = 1;
nodes = (
"244 -131 OFFCURVE",
"248 -144 OFFCURVE",
"266 -144 CURVE SMOOTH",
"288 -144 OFFCURVE",
"290 -131 OFFCURVE",
"290 -116 CURVE SMOOTH",
"290 -102 OFFCURVE",
"288 -88 OFFCURVE",
"266 -88 CURVE SMOOTH",
"248 -88 OFFCURVE",
"244 -102 OFFCURVE",
"244 -116 CURVE SMOOTH"
);
}
);
width = 669;
}
);
},
{
glyphname = uni071C.Fina.SYRN;
lastChange = "2018-09-11 18:35:11 +0000";
layers = (
{
anchors = (
{
name = Anchor64;
position = "{420, -98}";
},
{
name = Anchor66;
position = "{328, 740}";
}
);
layerId = "C0CED439-FB43-4F2F-B9A6-3E073DE83FB3";
paths = (
{
closed = 1;
nodes = (
"833 -255 LINE",
"986 0 LINE",
"986 25 LINE",
"697 25 LINE",
"372 656 LINE",
"349 644 LINE",
"668 25 LINE",
"228 25 LINE SMOOTH",
"137 25 OFFCURVE",
"106 34 OFFCURVE",
"77 73 CURVE",
"60 53 LINE",
"77 23 OFFCURVE",
"113 0 OFFCURVE",
"197 0 CURVE SMOOTH",
"681 0 LINE",
"813 -255 LINE"
);
},
{
closed = 1;
nodes = (
"809 -194 OFFCURVE",
"791 -161 OFFCURVE",
"774 -129 CURVE SMOOTH",
"751 -86 OFFCURVE",
"731 -43 OFFCURVE",
"710 0 CURVE",
"963 0 LINE",
"938 -42 OFFCURVE",
"912 -84 OFFCURVE",
"887 -126 CURVE SMOOTH",
"867 -159 OFFCURVE",
"847 -193 OFFCURVE",
"827 -226 CURVE"
);
},
{
closed = 1;
nodes = (
"857 -100 LINE",
"857 -52 LINE",
"809 -52 LINE",
"809 -100 LINE"
);
}
);
width = 942;
}
);
},
{
glyphname = uni071C.Medi;
lastChange = "2018-09-11 18:35:11 +0000";
layers = (
{
anchors = (
{
name = Anchor6;
position = "{235, -418}";
},
{
name = Anchor8;
position = "{211, 726}";
}
);
layerId = "C0CED439-FB43-4F2F-B9A6-3E073DE83FB3";
paths = (
{
closed = 1;
nodes = (
"333 -257 LINE SMOOTH",
"342 -280 OFFCURVE",
"357 -318 OFFCURVE",
"374 -333 CURVE SMOOTH",
"383 -341 OFFCURVE",
"394 -347 OFFCURVE",
"408 -347 CURVE SMOOTH",
"424 -347 OFFCURVE",
"435 -344 OFFCURVE",
"455 -321 CURVE SMOOTH",
"520 -248 OFFCURVE",
"600 -85 OFFCURVE",
"600 17 CURVE SMOOTH",
"600 25 LINE",
"256 25 LINE",
"9 686 LINE",
"-16 676 LINE",
"227 25 LINE",
"0 25 LINE SMOOTH",
"-19 25 OFFCURVE",
"-40 21 OFFCURVE",
"-40 13 CURVE SMOOTH",
"-40 4 OFFCURVE",
"-19 0 OFFCURVE",
"0 0 CURVE SMOOTH",
"235 0 LINE"
);
},
{
closed = 1;
nodes = (
"406 -321 LINE",
"395 -319 OFFCURVE",
"382 -310 OFFCURVE",
"360 -252 CURVE SMOOTH",
"328 -168 OFFCURVE",
"296 -84 OFFCURVE",
"264 0 CURVE",
"574 0 LINE",
"563 -136 OFFCURVE",
"440 -318 OFFCURVE",
"418 -321 CURVE"
);
},
{
closed = 1;
nodes = (
"443 -133 OFFCURVE",
"445 -120 OFFCURVE",
"445 -105 CURVE SMOOTH",
"445 -91 OFFCURVE",
"443 -77 OFFCURVE",
"421 -77 CURVE SMOOTH",
"403 -77 OFFCURVE",
"399 -91 OFFCURVE",
"399 -105 CURVE SMOOTH",
"399 -120 OFFCURVE",
"403 -133 OFFCURVE",
"421 -133 CURVE SMOOTH"
);
}
);
width = 553;
}
);
},
{
glyphname = uni071C.Medi.SYRJ;
lastChange = "2018-09-11 18:35:11 +0000";
layers = (
{
anchors = (
{
name = Anchor120;
position = "{170, -354}";
},
{
name = Anchor122;
position = "{155, 664}";
}
);
layerId = "C0CED439-FB43-4F2F-B9A6-3E073DE83FB3";
paths = (
{
closed = 1;
nodes = (
"332 -41 OFFCURVE",
"273 25 OFFCURVE",
"114 25 CURVE SMOOTH",
"107 25 OFFCURVE",
"101 25 OFFCURVE",
"94 25 CURVE",
"106 67 OFFCURVE",
"121 116 OFFCURVE",
"135 171 CURVE SMOOTH",
"156 256 OFFCURVE",
"172 371 OFFCURVE",
"172 468 CURVE SMOOTH",
"172 476 OFFCURVE",
"172 493 OFFCURVE",
"169 527 CURVE",
"171 527 LINE",
"196 475 OFFCURVE",
"366 204 OFFCURVE",
"415 130 CURVE SMOOTH",
"493 13 OFFCURVE",
"516 0 OFFCURVE",
"579 0 CURVE",
"579 25 LINE",
"534 25 OFFCURVE",
"515 29 OFFCURVE",
"436 147 CURVE SMOOTH",
"365 253 OFFCURVE",
"224 477 OFFCURVE",
"167 586 CURVE",
"143 576 LINE",
"147 538 OFFCURVE",
"148 527 OFFCURVE",
"148 470 CURVE SMOOTH",
"148 366 OFFCURVE",
"131 259 OFFCURVE",
"111 175 CURVE SMOOTH",
"97 118 OFFCURVE",
"81 69 OFFCURVE",
"68 25 CURVE",
"0 25 LINE SMOOTH",
"-19 25 OFFCURVE",
"-40 21 OFFCURVE",
"-40 13 CURVE SMOOTH",
"-40 4 OFFCURVE",
"-19 0 OFFCURVE",
"0 0 CURVE SMOOTH",
"61 0 LINE",
"48 -45 OFFCURVE",
"39 -88 OFFCURVE",
"39 -132 CURVE SMOOTH",
"39 -221 OFFCURVE",
"90 -288 OFFCURVE",
"179 -288 CURVE SMOOTH",
"274 -288 OFFCURVE",
"332 -219 OFFCURVE",
"332 -134 CURVE SMOOTH"
);
},
{
closed = 1;
nodes = (
"306 -214 OFFCURVE",
"254 -263 OFFCURVE",
"182 -263 CURVE SMOOTH",
"96 -263 OFFCURVE",
"65 -200 OFFCURVE",
"65 -126 CURVE SMOOTH",
"65 -88 OFFCURVE",
"74 -46 OFFCURVE",
"87 0 CURVE",
"116 0 LINE SMOOTH",
"234 0 OFFCURVE",
"306 -36 OFFCURVE",
"306 -135 CURVE SMOOTH"
);
},
{
closed = 1;
nodes = (
"158 -131 OFFCURVE",
"162 -144 OFFCURVE",
"180 -144 CURVE SMOOTH",
"202 -144 OFFCURVE",
"204 -131 OFFCURVE",
"204 -116 CURVE SMOOTH",
"204 -102 OFFCURVE",
"202 -88 OFFCURVE",
"180 -88 CURVE SMOOTH",
"162 -88 OFFCURVE",
"158 -102 OFFCURVE",
"158 -116 CURVE SMOOTH"
);
}
);
width = 579;
}
);
},
{
glyphname = uni071C.Medi.SYRN;
lastChange = "2018-09-11 18:35:11 +0000";
layers = (
{
anchors = (
{
name = Anchor64;
position = "{175, -98}";
},
{
name = Anchor66;
position = "{-25, 737}";
}
);
layerId = "C0CED439-FB43-4F2F-B9A6-3E073DE83FB3";
paths = (
{
closed = 1;
nodes = (
"480 -255 LINE",
"633 0 LINE",
"633 25 LINE",
"344 25 LINE",
"19 656 LINE",
"-4 644 LINE",
"315 25 LINE",
"0 25 LINE SMOOTH",
"-19 25 OFFCURVE",
"-40 21 OFFCURVE",
"-40 13 CURVE SMOOTH",
"-40 4 OFFCURVE",
"-19 0 OFFCURVE",
"0 0 CURVE SMOOTH",
"328 0 LINE",
"460 -255 LINE"
);
},
{
closed = 1;
nodes = (
"456 -194 OFFCURVE",
"438 -161 OFFCURVE",
"421 -129 CURVE SMOOTH",
"399 -86 OFFCURVE",
"378 -43 OFFCURVE",
"357 0 CURVE",
"610 0 LINE",
"585 -42 OFFCURVE",
"559 -84 OFFCURVE",
"534 -126 CURVE SMOOTH",
"514 -159 OFFCURVE",
"494 -193 OFFCURVE",
"474 -226 CURVE"
);
},
{
closed = 1;
nodes = (
"504 -100 LINE",
"504 -52 LINE",
"456 -52 LINE",
"456 -100 LINE"
);
}
);
width = 589;
}
);
},
{
glyphname = uni071C.Init;
lastChange = "2018-09-11 18:35:11 +0000";
layers = (
{
anchors = (
{
name = Anchor6;
position = "{234, -418}";
},
{
name = Anchor8;
position = "{211, 726}";
}
);
layerId = "C0CED439-FB43-4F2F-B9A6-3E073DE83FB3";
paths = (
{
closed = 1;
nodes = (
"333 -257 LINE SMOOTH",
"342 -280 OFFCURVE",
"357 -318 OFFCURVE",
"374 -333 CURVE SMOOTH",
"383 -341 OFFCURVE",
"394 -347 OFFCURVE",
"408 -347 CURVE SMOOTH",
"424 -347 OFFCURVE",
"435 -344 OFFCURVE",
"455 -321 CURVE SMOOTH",
"520 -248 OFFCURVE",
"600 -85 OFFCURVE",
"600 17 CURVE SMOOTH",
"600 25 LINE",
"256 25 LINE",
"9 686 LINE",
"-16 676 LINE",
"227 25 LINE",
"0 25 LINE SMOOTH",
"-19 25 OFFCURVE",
"-40 21 OFFCURVE",
"-40 13 CURVE SMOOTH",
"-40 4 OFFCURVE",
"-19 0 OFFCURVE",
"0 0 CURVE SMOOTH",
"235 0 LINE"
);
},
{
closed = 1;
nodes = (
"406 -321 LINE",
"395 -319 OFFCURVE",
"382 -310 OFFCURVE",
"360 -252 CURVE SMOOTH",
"328 -168 OFFCURVE",
"296 -84 OFFCURVE",
"264 0 CURVE",
"574 0 LINE",
"563 -136 OFFCURVE",
"440 -318 OFFCURVE",
"418 -321 CURVE"
);
},
{
closed = 1;
nodes = (
"443 -133 OFFCURVE",
"445 -120 OFFCURVE",
"445 -105 CURVE SMOOTH",
"445 -91 OFFCURVE",
"443 -77 OFFCURVE",
"421 -77 CURVE SMOOTH",
"403 -77 OFFCURVE",
"399 -91 OFFCURVE",
"399 -105 CURVE SMOOTH",
"399 -120 OFFCURVE",
"403 -133 OFFCURVE",
"421 -133 CURVE SMOOTH"
);
}
);
width = 659;
}
);
},
{
glyphname = uni071C.Init.SYRJ;
lastChange = "2018-09-11 18:35:11 +0000";
layers = (
{
anchors = (
{
name = Anchor120;
position = "{178, -352}";
},
{
name = Anchor122;
position = "{185, 692}";
}
);
layerId = "C0CED439-FB43-4F2F-B9A6-3E073DE83FB3";
paths = (
{
closed = 1;
nodes = (
"332 -41 OFFCURVE",
"273 25 OFFCURVE",
"114 25 CURVE SMOOTH",
"110 25 OFFCURVE",
"106 25 OFFCURVE",
"102 25 CURVE",
"137 100 OFFCURVE",
"188 170 OFFCURVE",
"224 235 CURVE SMOOTH",
"285 346 OFFCURVE",
"313 428 OFFCURVE",
"313 500 CURVE SMOOTH",
"313 554 OFFCURVE",
"304 591 OFFCURVE",
"271 635 CURVE",
"269 635 LINE",
"252 616 LINE",
"277 580 OFFCURVE",
"287 544 OFFCURVE",
"287 498 CURVE SMOOTH",
"287 419 OFFCURVE",
"250 334 OFFCURVE",
"203 248 CURVE SMOOTH",
"160 169 OFFCURVE",
"108 100 OFFCURVE",
"75 25 CURVE",
"0 25 LINE SMOOTH",
"-19 25 OFFCURVE",
"-40 21 OFFCURVE",
"-40 13 CURVE SMOOTH",
"-40 4 OFFCURVE",
"-19 0 OFFCURVE",
"0 0 CURVE SMOOTH",
"64 0 LINE",
"49 -41 OFFCURVE",
"39 -84 OFFCURVE",
"39 -132 CURVE SMOOTH",
"39 -221 OFFCURVE",
"90 -288 OFFCURVE",
"179 -288 CURVE SMOOTH",
"274 -288 OFFCURVE",
"332 -219 OFFCURVE",
"332 -134 CURVE SMOOTH"
);
},
{
closed = 1;
nodes = (
"306 -214 OFFCURVE",
"254 -263 OFFCURVE",
"182 -263 CURVE SMOOTH",
"96 -263 OFFCURVE",
"65 -200 OFFCURVE",
"65 -126 CURVE SMOOTH",
"65 -82 OFFCURVE",
"75 -40 OFFCURVE",
"91 0 CURVE",
"116 0 LINE SMOOTH",
"234 0 OFFCURVE",
"306 -36 OFFCURVE",
"306 -135 CURVE SMOOTH"
);
},
{
closed = 1;
nodes = (
"160 -131 OFFCURVE",
"164 -144 OFFCURVE",
"182 -144 CURVE SMOOTH",
"204 -144 OFFCURVE",
"206 -131 OFFCURVE",
"206 -116 CURVE SMOOTH",
"206 -102 OFFCURVE",
"204 -88 OFFCURVE",
"182 -88 CURVE SMOOTH",
"164 -88 OFFCURVE",
"160 -102 OFFCURVE",
"160 -116 CURVE SMOOTH"
);
}
);
width = 403;
}
);
},
{
glyphname = uni071C.Init.SYRN;
lastChange = "2018-09-11 18:35:11 +0000";
layers = (
{
anchors = (
{
name = Anchor64;
position = "{175, -98}";
},
{
name = Anchor66;
position = "{-25, 739}";
}
);
layerId = "C0CED439-FB43-4F2F-B9A6-3E073DE83FB3";
paths = (
{
closed = 1;
nodes = (
"480 -255 LINE",
"633 0 LINE",
"633 25 LINE",
"344 25 LINE",
"19 656 LINE",
"-4 644 LINE",
"315 25 LINE",
"0 25 LINE SMOOTH",
"-19 25 OFFCURVE",
"-40 21 OFFCURVE",
"-40 13 CURVE SMOOTH",
"-40 4 OFFCURVE",
"-19 0 OFFCURVE",
"0 0 CURVE SMOOTH",
"328 0 LINE",
"460 -255 LINE"
);
},
{
closed = 1;
nodes = (
"456 -194 OFFCURVE",
"438 -162 OFFCURVE",
"421 -129 CURVE SMOOTH",
"399 -86 OFFCURVE",
"378 -43 OFFCURVE",
"357 0 CURVE",
"610 0 LINE",
"585 -42 OFFCURVE",
"559 -84 OFFCURVE",
"534 -126 CURVE SMOOTH",
"514 -159 OFFCURVE",
"494 -193 OFFCURVE",
"474 -226 CURVE"
);
},
{
closed = 1;
nodes = (
"504 -100 LINE",
"504 -52 LINE",
"456 -52 LINE",
"456 -100 LINE"
);
}
);
width = 713;
}
);
},
{
glyphname = uni071D;
lastChange = "2018-09-11 18:35:11 +0000";
layers = (
{
anchors = (
{
name = Anchor6;
position = "{102, -226}";
},
{
name = Anchor8;
position = "{80, 304}";
}
);
layerId = "C0CED439-FB43-4F2F-B9A6-3E073DE83FB3";
paths = (
{
closed = 1;
nodes = (
"152 73 OFFCURVE",
"124 131 OFFCURVE",
"100 161 CURVE SMOOTH",
"95 167 OFFCURVE",
"90 170 OFFCURVE",
"84 170 CURVE SMOOTH",
"77 170 OFFCURVE",
"71 165 OFFCURVE",
"71 157 CURVE SMOOTH",
"71 151 OFFCURVE",
"74 145 OFFCURVE",
"82 133 CURVE SMOOTH",
"113 86 OFFCURVE",
"124 52 OFFCURVE",
"129 13 CURVE",
"125 -21 OFFCURVE",
"113 -60 OFFCURVE",
"81 -105 CURVE SMOOTH",
"72 -117 OFFCURVE",
"70 -121 OFFCURVE",
"70 -127 CURVE SMOOTH",
"70 -133 OFFCURVE",
"76 -137 OFFCURVE",
"82 -137 CURVE SMOOTH",
"87 -137 OFFCURVE",
"92 -135 OFFCURVE",
"98 -128 CURVE SMOOTH",
"121 -104 OFFCURVE",
"152 -41 OFFCURVE",
"152 12 CURVE SMOOTH"
);
}
);
width = 212;
}
);
unicode = 071D;
},
{
glyphname = uni071D.SYRJ;
lastChange = "2018-09-11 18:35:11 +0000";
layers = (
{
anchors = (
{
name = Anchor120;
position = "{236, -98}";
},
{
name = Anchor122;
position = "{262, 283}";
}
);
layerId = "C0CED439-FB43-4F2F-B9A6-3E073DE83FB3";
paths = (
{
closed = 1;
nodes = (
"348 28 OFFCURVE",
"309 25 OFFCURVE",
"242 25 CURVE SMOOTH",
"127 25 OFFCURVE",
"91 69 OFFCURVE",
"86 146 CURVE",
"62 142 LINE",
"62 141 OFFCURVE",
"62 139 OFFCURVE",
"62 138 CURVE SMOOTH",
"62 48 OFFCURVE",
"122 0 OFFCURVE",
"244 0 CURVE SMOOTH",
"312 0 OFFCURVE",
"362 2 OFFCURVE",
"387 22 CURVE SMOOTH",
"410 40 OFFCURVE",
"417 78 OFFCURVE",
"417 114 CURVE SMOOTH",
"417 130 OFFCURVE",
"416 146 OFFCURVE",
"403 146 CURVE SMOOTH",
"395 146 OFFCURVE",
"389 142 OFFCURVE",
"386 126 CURVE SMOOTH",
"379 92 OFFCURVE",
"371 49 OFFCURVE",
"365 37 CURVE"
);
}
);
width = 498;
}
);
},
{
glyphname = uni071D.SYRN;
lastChange = "2018-09-11 18:35:11 +0000";
layers = (
{
anchors = (
{
name = Anchor64;
position = "{457, -99}";
},
{
name = Anchor66;
position = "{445, 418}";
}
);
layerId = "C0CED439-FB43-4F2F-B9A6-3E073DE83FB3";
paths = (
{
closed = 1;
nodes = (
"454 186 LINE",
"431 186 LINE",
"363 32 LINE",
"323 26 OFFCURVE",
"280 25 OFFCURVE",
"250 25 CURVE SMOOTH",
"245 25 LINE SMOOTH",
"132 25 OFFCURVE",
"106 34 OFFCURVE",
"77 73 CURVE",
"60 53 LINE",
"77 23 OFFCURVE",
"108 0 OFFCURVE",
"214 0 CURVE SMOOTH",
"228 0 LINE SMOOTH",
"281 0 OFFCURVE",
"346 2 OFFCURVE",
"379 8 CURVE",
"442 154 LINE",
"444 154 LINE",
"515 25 LINE SMOOTH",
"523 10 OFFCURVE",
"529 0 OFFCURVE",
"543 0 CURVE SMOOTH",
"546 0 LINE",
"546 23 LINE"
);
}
);
width = 606;
}
);
},
{
glyphname = uni071D.Fina;
lastChange = "2018-09-11 18:35:11 +0000";
layers = (
{
anchors = (
{
name = Anchor6;
position = "{103, -226}";
},
{
name = Anchor8;
position = "{80, 304}";
}
);
layerId = "C0CED439-FB43-4F2F-B9A6-3E073DE83FB3";
paths = (
{
closed = 1;
nodes = (
"228 25 LINE",
"211 25 OFFCURVE",
"169 25 OFFCURVE",
"151 26 CURVE",
"147 81 OFFCURVE",
"122 133 OFFCURVE",
"100 161 CURVE SMOOTH",
"95 167 OFFCURVE",
"90 170 OFFCURVE",
"84 170 CURVE SMOOTH",
"77 170 OFFCURVE",
"71 165 OFFCURVE",
"71 157 CURVE SMOOTH",
"71 151 OFFCURVE",
"74 145 OFFCURVE",
"82 133 CURVE SMOOTH",
"113 86 OFFCURVE",
"124 52 OFFCURVE",
"129 13 CURVE",
"125 -21 OFFCURVE",
"113 -60 OFFCURVE",
"81 -105 CURVE SMOOTH",
"72 -117 OFFCURVE",
"70 -121 OFFCURVE",
"70 -127 CURVE SMOOTH",
"70 -133 OFFCURVE",
"76 -137 OFFCURVE",
"82 -137 CURVE SMOOTH",
"87 -137 OFFCURVE",
"92 -135 OFFCURVE",
"98 -128 CURVE SMOOTH",
"119 -106 OFFCURVE",
"147 -51 OFFCURVE",
"151 -1 CURVE",
"172 0 OFFCURVE",
"207 0 OFFCURVE",
"228 0 CURVE"
);
}
);
width = 228;
}
);
},
{
glyphname = uni071D.Fina.SYRJ;
lastChange = "2018-09-11 18:35:11 +0000";
layers = (
{
anchors = (
{
name = Anchor120;
position = "{236, -98}";
},
{
name = Anchor122;
position = "{262, 282}";
}
);
layerId = "C0CED439-FB43-4F2F-B9A6-3E073DE83FB3";
paths = (
{
closed = 1;
nodes = (
"522 25 LINE",
"509 25 OFFCURVE",
"489 25 OFFCURVE",
"478 26 CURVE",
"468 28 OFFCURVE",
"453 43 OFFCURVE",
"423 98 CURVE SMOOTH",
"400 140 OFFCURVE",
"398 143 OFFCURVE",
"386 143 CURVE SMOOTH",
"378 143 OFFCURVE",
"374 141 OFFCURVE",
"364 126 CURVE SMOOTH",
"346 98 LINE SMOOTH",
"314 48 OFFCURVE",
"283 18 OFFCURVE",
"214 18 CURVE SMOOTH",
"132 18 OFFCURVE",
"90 55 OFFCURVE",
"86 140 CURVE",
"62 136 LINE",
"62 134 OFFCURVE",
"62 131 OFFCURVE",
"62 129 CURVE SMOOTH",
"62 35 OFFCURVE",
"126 -7 OFFCURVE",
"210 -7 CURVE SMOOTH",
"290 -7 OFFCURVE",
"333 23 OFFCURVE",
"385 115 CURVE",
"438 13 OFFCURVE",
"453 0 OFFCURVE",
"499 0 CURVE SMOOTH",
"522 0 LINE"
);
}
);
width = 522;
}
);
},
{
glyphname = uni071D.Fina.SYRN;
lastChange = "2018-09-11 18:35:11 +0000";
layers = (
{
anchors = (
{
name = Anchor64;
position = "{458, -98}";
},
{
name = Anchor66;
position = "{446, 419}";
}
);
layerId = "C0CED439-FB43-4F2F-B9A6-3E073DE83FB3";
paths = (
{
closed = 1;
nodes = (
"442 154 LINE",
"444 154 LINE",
"495 62 LINE SMOOTH",
"517 22 OFFCURVE",
"530 0 OFFCURVE",
"586 0 CURVE",
"586 25 LINE",
"557 25 OFFCURVE",
"545 27 OFFCURVE",
"522 67 CURVE SMOOTH",
"453 186 LINE",
"431 186 LINE",
"363 32 LINE",
"323 26 OFFCURVE",
"280 25 OFFCURVE",
"250 25 CURVE SMOOTH",
"245 25 LINE SMOOTH",
"132 25 OFFCURVE",
"106 34 OFFCURVE",
"77 73 CURVE",
"60 53 LINE",
"77 23 OFFCURVE",
"108 0 OFFCURVE",
"214 0 CURVE SMOOTH",
"228 0 LINE SMOOTH",
"281 0 OFFCURVE",
"346 2 OFFCURVE",
"379 8 CURVE"
);
}
);
width = 593;
}
);
},
{
glyphname = uni071D.Medi;
lastChange = "2018-09-11 18:35:11 +0000";
layers = (
{
anchors = (
{
name = Anchor6;
position = "{143, -98}";
},
{
name = Anchor8;
position = "{133, 381}";
}
);
layerId = "C0CED439-FB43-4F2F-B9A6-3E073DE83FB3";
paths = (
{
closed = 1;
nodes = (
"295 25 LINE",
"218 25 OFFCURVE",
"196 41 OFFCURVE",
"184 59 CURVE",
"184 60 OFFCURVE",
"184 62 OFFCURVE",
"184 63 CURVE SMOOTH",
"184 87 OFFCURVE",
"165 207 OFFCURVE",
"153 228 CURVE SMOOTH",
"150 233 OFFCURVE",
"147 234 OFFCURVE",
"143 234 CURVE SMOOTH",
"132 234 OFFCURVE",
"130 226 OFFCURVE",
"130 218 CURVE SMOOTH",
"130 194 OFFCURVE",
"150 84 OFFCURVE",
"160 55 CURVE",
"152 42 OFFCURVE",
"107 25 OFFCURVE",
"13 25 CURVE SMOOTH",
"0 25 LINE SMOOTH",
"-19 25 OFFCURVE",
"-40 21 OFFCURVE",
"-40 13 CURVE SMOOTH",
"-40 4 OFFCURVE",
"-19 0 OFFCURVE",
"0 0 CURVE SMOOTH",
"5 0 LINE SMOOTH",
"99 0 OFFCURVE",
"149 14 OFFCURVE",
"172 33 CURVE",
"189 15 OFFCURVE",
"222 0 OFFCURVE",
"295 0 CURVE"
);
}
);
width = 295;
}
);
},
{
glyphname = uni071D.Medi.SYRJ;
lastChange = "2018-09-11 18:35:11 +0000";
layers = (
{
anchors = (
{
name = Anchor120;
position = "{123, -98}";
},
{
name = Anchor122;
position = "{144, 282}";
}
);
layerId = "C0CED439-FB43-4F2F-B9A6-3E073DE83FB3";
paths = (
{
closed = 1;
nodes = (
"277 0 LINE",
"277 25 LINE",
"264 25 OFFCURVE",
"244 25 OFFCURVE",
"233 26 CURVE",
"223 28 OFFCURVE",
"208 43 OFFCURVE",
"178 98 CURVE SMOOTH",
"155 140 OFFCURVE",
"153 143 OFFCURVE",
"141 143 CURVE SMOOTH",
"132 143 OFFCURVE",
"127 141 OFFCURVE",
"113 117 CURVE SMOOTH",
"99 94 LINE SMOOTH",
"71 48 OFFCURVE",
"52 25 OFFCURVE",
"0 25 CURVE SMOOTH",
"-18 25 OFFCURVE",
"-40 21 OFFCURVE",
"-40 13 CURVE SMOOTH",
"-40 4 OFFCURVE",
"-18 0 OFFCURVE",
"0 0 CURVE SMOOTH",
"62 0 OFFCURVE",
"90 30 OFFCURVE",
"115 72 CURVE SMOOTH",
"123 86 OFFCURVE",
"132 101 OFFCURVE",
"140 115 CURVE",
"193 13 OFFCURVE",
"208 0 OFFCURVE",
"254 0 CURVE SMOOTH"
);
}
);
width = 277;
}
);
},
{
glyphname = uni071D.Medi.SYRN;
lastChange = "2018-09-11 18:35:11 +0000";
layers = (
{
anchors = (
{
name = Anchor64;
position = "{161, -98}";
},
{
name = Anchor66;
position = "{149, 419}";
}
);
layerId = "C0CED439-FB43-4F2F-B9A6-3E073DE83FB3";
paths = (
{
closed = 1;
nodes = (
"16 0 OFFCURVE",
"49 0 OFFCURVE",
"82 5 CURVE",
"146 154 LINE",
"148 154 LINE",
"199 62 LINE SMOOTH",
"221 22 OFFCURVE",
"234 0 OFFCURVE",
"290 0 CURVE",
"290 25 LINE",
"261 25 OFFCURVE",
"249 27 OFFCURVE",
"226 67 CURVE SMOOTH",
"157 186 LINE",
"135 186 LINE",
"66 29 LINE",
"51 26 OFFCURVE",
"18 25 OFFCURVE",
"0 25 CURVE SMOOTH",
"-19 25 OFFCURVE",
"-40 21 OFFCURVE",
"-40 13 CURVE SMOOTH",
"-40 4 OFFCURVE",
"-19 0 OFFCURVE",
"0 0 CURVE SMOOTH"
);
}
);
width = 290;
}
);
},
{
glyphname = uni071D.Init;
lastChange = "2018-09-11 18:35:11 +0000";
layers = (
{
anchors = (
{
name = Anchor6;
position = "{135, -97}";
},
{
name = Anchor8;
position = "{124, 380}";
}
);
layerId = "C0CED439-FB43-4F2F-B9A6-3E073DE83FB3";
paths = (
{
closed = 1;
nodes = (
"45 0 LINE SMOOTH",
"93 0 OFFCURVE",
"124 9 OFFCURVE",
"143 24 CURVE SMOOTH",
"165 41 OFFCURVE",
"172 66 OFFCURVE",
"172 93 CURVE SMOOTH",
"172 116 OFFCURVE",
"164 208 OFFCURVE",
"152 228 CURVE SMOOTH",
"149 233 OFFCURVE",
"146 234 OFFCURVE",
"142 234 CURVE SMOOTH",
"131 234 OFFCURVE",
"129 226 OFFCURVE",
"129 218 CURVE SMOOTH",
"129 193 OFFCURVE",
"142 120 OFFCURVE",
"147 74 CURVE",
"147 51 OFFCURVE",
"120 25 OFFCURVE",
"54 25 CURVE SMOOTH",
"0 25 LINE SMOOTH",
"-19 25 OFFCURVE",
"-40 21 OFFCURVE",
"-40 13 CURVE SMOOTH",
"-40 4 OFFCURVE",
"-19 0 OFFCURVE",
"0 0 CURVE SMOOTH"
);
}
);
width = 253;
}
);
},
{
glyphname = uni071D.Init.SYRJ;
lastChange = "2018-09-11 18:35:11 +0000";
layers = (
{
anchors = (
{
name = Anchor120;
position = "{119, -98}";
},
{
name = Anchor122;
position = "{147, 278}";
}
);
layerId = "C0CED439-FB43-4F2F-B9A6-3E073DE83FB3";
paths = (
{
closed = 1;
nodes = (
"26 0 LINE SMOOTH",
"83 0 OFFCURVE",
"114 6 OFFCURVE",
"128 16 CURVE SMOOTH",
"150 31 OFFCURVE",
"159 72 OFFCURVE",
"159 111 CURVE SMOOTH",
"159 128 OFFCURVE",
"158 146 OFFCURVE",
"145 146 CURVE SMOOTH",
"137 146 OFFCURVE",
"131 142 OFFCURVE",
"128 124 CURVE SMOOTH",
"119 73 OFFCURVE",
"113 47 OFFCURVE",
"108 35 CURVE",
"101 30 OFFCURVE",
"72 25 OFFCURVE",
"0 25 CURVE SMOOTH",
"-19 25 OFFCURVE",
"-40 21 OFFCURVE",
"-40 13 CURVE SMOOTH",
"-40 4 OFFCURVE",
"-19 0 OFFCURVE",
"0 0 CURVE SMOOTH"
);
}
);
width = 229;
}
);
},
{
glyphname = uni071D.Init.SYRN;
lastChange = "2018-09-11 18:35:11 +0000";
layers = (
{
anchors = (
{
name = Anchor64;
position = "{161, -98}";
},
{
name = Anchor66;
position = "{149, 419}";
}
);
layerId = "C0CED439-FB43-4F2F-B9A6-3E073DE83FB3";
paths = (
{
closed = 1;
nodes = (
"66 29 LINE",
"51 26 OFFCURVE",
"19 25 OFFCURVE",
"0 25 CURVE SMOOTH",
"-19 25 OFFCURVE",
"-40 21 OFFCURVE",
"-40 13 CURVE SMOOTH",
"-40 4 OFFCURVE",
"-19 0 OFFCURVE",
"0 0 CURVE SMOOTH",
"25 0 OFFCURVE",
"49 0 OFFCURVE",
"82 5 CURVE",
"145 154 LINE",
"147 154 LINE",
"218 25 LINE SMOOTH",
"226 10 OFFCURVE",
"232 0 OFFCURVE",
"246 0 CURVE SMOOTH",
"249 0 LINE",
"249 23 LINE",
"157 186 LINE",
"134 186 LINE"
);
}
);
width = 309;
}
);
},
{
glyphname = uni071E;
lastChange = "2018-09-11 18:35:11 +0000";
layers = (
{
layerId = "C0CED439-FB43-4F2F-B9A6-3E073DE83FB3";
paths = (
{
closed = 1;
nodes = (
"893 0 LINE SMOOTH",
"941 0 OFFCURVE",
"972 9 OFFCURVE",
"991 24 CURVE SMOOTH",
"1013 41 OFFCURVE",
"1020 66 OFFCURVE",
"1020 93 CURVE SMOOTH",
"1020 116 OFFCURVE",
"1012 208 OFFCURVE",
"1000 228 CURVE SMOOTH",
"997 233 OFFCURVE",
"994 234 OFFCURVE",
"990 234 CURVE SMOOTH",
"979 234 OFFCURVE",
"977 226 OFFCURVE",
"977 218 CURVE SMOOTH",
"977 193 OFFCURVE",
"990 120 OFFCURVE",
"995 74 CURVE",
"995 51 OFFCURVE",
"968 25 OFFCURVE",
"902 25 CURVE SMOOTH",
"723 25 LINE",
"723 27 LINE",
"776 58 OFFCURVE",
"792 119 OFFCURVE",
"792 173 CURVE SMOOTH",
"792 298 OFFCURVE",
"738 384 OFFCURVE",
"601 384 CURVE SMOOTH",
"539 384 OFFCURVE",
"506 376 OFFCURVE",
"458 376 CURVE SMOOTH",
"430 376 OFFCURVE",
"348 387 OFFCURVE",
"290 387 CURVE SMOOTH",
"156 387 OFFCURVE",
"78 315 OFFCURVE",
"78 202 CURVE SMOOTH",
"78 98 OFFCURVE",
"118 35 OFFCURVE",
"202 -3 CURVE",
"212 18 LINE",
"142 53 OFFCURVE",
"104 107 OFFCURVE",
"104 197 CURVE SMOOTH",
"104 323 OFFCURVE",
"195 362 OFFCURVE",
"295 362 CURVE SMOOTH",
"344 362 OFFCURVE",
"432 354 OFFCURVE",
"459 351 CURVE",
"356 1 LINE",
"381 -4 LINE",
"485 351 LINE",
"515 356 OFFCURVE",
"557 359 OFFCURVE",
"595 359 CURVE SMOOTH",
"712 359 OFFCURVE",
"766 302 OFFCURVE",
"766 174 CURVE SMOOTH",
"766 100 OFFCURVE",
"741 24 OFFCURVE",
"633 24 CURVE SMOOTH",
"629 24 OFFCURVE",
"626 24 OFFCURVE",
"622 24 CURVE",
"620 1 LINE",
"638 0 OFFCURVE",
"659 0 OFFCURVE",
"673 0 CURVE SMOOTH"
);
},
{
closed = 1;
nodes = (
"428 -140 OFFCURVE",
"430 -127 OFFCURVE",
"430 -112 CURVE SMOOTH",
"430 -98 OFFCURVE",
"428 -84 OFFCURVE",
"406 -84 CURVE SMOOTH",
"388 -84 OFFCURVE",
"384 -98 OFFCURVE",
"384 -112 CURVE SMOOTH",
"384 -127 OFFCURVE",
"388 -140 OFFCURVE",
"406 -140 CURVE SMOOTH"
);
},
{
closed = 1;
nodes = (
"506 625 OFFCURVE",
"508 638 OFFCURVE",
"508 653 CURVE SMOOTH",
"508 667 OFFCURVE",
"506 681 OFFCURVE",
"484 681 CURVE SMOOTH",
"466 681 OFFCURVE",
"462 667 OFFCURVE",
"462 653 CURVE SMOOTH",
"462 638 OFFCURVE",
"466 625 OFFCURVE",
"484 625 CURVE SMOOTH"
);
},
{
closed = 1;
nodes = (
"439 495 OFFCURVE",
"441 508 OFFCURVE",
"441 523 CURVE SMOOTH",
"441 537 OFFCURVE",
"439 551 OFFCURVE",
"417 551 CURVE SMOOTH",
"399 551 OFFCURVE",
"395 537 OFFCURVE",
"395 523 CURVE SMOOTH",
"395 508 OFFCURVE",
"399 495 OFFCURVE",
"417 495 CURVE SMOOTH"
);
},
{
closed = 1;
nodes = (
"572 495 OFFCURVE",
"574 508 OFFCURVE",
"574 523 CURVE SMOOTH",
"574 537 OFFCURVE",
"572 551 OFFCURVE",
"550 551 CURVE SMOOTH",
"532 551 OFFCURVE",
"528 537 OFFCURVE",
"528 523 CURVE SMOOTH",
"528 508 OFFCURVE",
"532 495 OFFCURVE",
"550 495 CURVE SMOOTH"
);
}
);
width = 1100;
}
);
unicode = 071E;
},
{
glyphname = uni071E.SYRJ;
lastChange = "2018-09-11 18:35:11 +0000";
layers = (
{
layerId = "C0CED439-FB43-4F2F-B9A6-3E073DE83FB3";
paths = (
{
closed = 1;
nodes = (
"154 377 OFFCURVE",
"69 294 OFFCURVE",
"69 185 CURVE SMOOTH",
"69 80 OFFCURVE",
"148 -4 OFFCURVE",
"270 -4 CURVE SMOOTH",
"369 -4 OFFCURVE",
"443 56 OFFCURVE",
"462 145 CURVE",
"515 203 OFFCURVE",
"550 258 OFFCURVE",
"582 320 CURVE",
"584 320 LINE",
"591 298 OFFCURVE",
"603 240 OFFCURVE",
"603 177 CURVE SMOOTH",
"603 117 OFFCURVE",
"601 64 OFFCURVE",
"588 0 CURVE",
"612 -4 LINE",
"616 11 OFFCURVE",
"619 26 OFFCURVE",
"621 42 CURVE",
"623 42 LINE",
"643 5 OFFCURVE",
"703 0 OFFCURVE",
"745 0 CURVE SMOOTH",
"754 0 OFFCURVE",
"762 0 OFFCURVE",
"771 0 CURVE SMOOTH",
"828 0 OFFCURVE",
"859 6 OFFCURVE",
"873 16 CURVE SMOOTH",
"895 31 OFFCURVE",
"904 72 OFFCURVE",
"904 111 CURVE SMOOTH",
"904 128 OFFCURVE",
"903 146 OFFCURVE",
"890 146 CURVE SMOOTH",
"882 146 OFFCURVE",
"876 142 OFFCURVE",
"873 124 CURVE SMOOTH",
"864 73 OFFCURVE",
"858 47 OFFCURVE",
"853 35 CURVE",
"846 30 OFFCURVE",
"817 25 OFFCURVE",
"745 25 CURVE SMOOTH",
"690 25 OFFCURVE",
"633 35 OFFCURVE",
"626 87 CURVE",
"628 116 OFFCURVE",
"629 146 OFFCURVE",
"629 179 CURVE SMOOTH",
"629 240 OFFCURVE",
"616 309 OFFCURVE",
"599 360 CURVE",
"573 355 LINE",
"556 318 OFFCURVE",
"519 246 OFFCURVE",
"468 185 CURVE",
"466 185 LINE",
"466 295 OFFCURVE",
"383 377 OFFCURVE",
"261 377 CURVE SMOOTH"
);
},
{
closed = 1;
nodes = (
"159 21 OFFCURVE",
"96 96 OFFCURVE",
"96 187 CURVE SMOOTH",
"96 280 OFFCURVE",
"169 352 OFFCURVE",
"260 352 CURVE SMOOTH",
"370 352 OFFCURVE",
"440 283 OFFCURVE",
"440 186 CURVE SMOOTH",
"440 77 OFFCURVE",
"357 21 OFFCURVE",
"273 21 CURVE SMOOTH"
);
},
{
closed = 1;
nodes = (
"267 503 OFFCURVE",
"271 490 OFFCURVE",
"289 490 CURVE SMOOTH",
"311 490 OFFCURVE",
"313 503 OFFCURVE",
"313 518 CURVE SMOOTH",
"313 532 OFFCURVE",
"311 546 OFFCURVE",
"289 546 CURVE SMOOTH",
"271 546 OFFCURVE",
"267 532 OFFCURVE",
"267 518 CURVE SMOOTH"
);
},
{
closed = 1;
nodes = (
"402 503 OFFCURVE",
"406 490 OFFCURVE",
"424 490 CURVE SMOOTH",
"446 490 OFFCURVE",
"448 503 OFFCURVE",
"448 518 CURVE SMOOTH",
"448 532 OFFCURVE",
"446 546 OFFCURVE",
"424 546 CURVE SMOOTH",
"406 546 OFFCURVE",
"402 532 OFFCURVE",
"402 518 CURVE SMOOTH"
);
},
{
closed = 1;
nodes = (
"336 -140 OFFCURVE",
"340 -153 OFFCURVE",
"358 -153 CURVE SMOOTH",
"380 -153 OFFCURVE",
"382 -140 OFFCURVE",
"382 -125 CURVE SMOOTH",
"382 -111 OFFCURVE",
"380 -97 OFFCURVE",
"358 -97 CURVE SMOOTH",
"340 -97 OFFCURVE",
"336 -111 OFFCURVE",
"336 -125 CURVE SMOOTH"
);
},
{
closed = 1;
nodes = (
"335 642 OFFCURVE",
"339 629 OFFCURVE",
"357 629 CURVE SMOOTH",
"379 629 OFFCURVE",
"381 642 OFFCURVE",
"381 657 CURVE SMOOTH",
"381 671 OFFCURVE",
"379 685 OFFCURVE",
"357 685 CURVE SMOOTH",
"339 685 OFFCURVE",
"335 671 OFFCURVE",
"335 657 CURVE SMOOTH"
);
}
);
width = 974;
}
);
},
{
glyphname = uni071E.SYRN;
lastChange = "2018-09-11 18:35:11 +0000";
layers = (
{
layerId = "C0CED439-FB43-4F2F-B9A6-3E073DE83FB3";
paths = (
{
closed = 1;
nodes = (
"811 29 LINE",
"796 26 OFFCURVE",
"764 25 OFFCURVE",
"745 25 CURVE",
"635 25 LINE",
"635 384 LINE",
"624 382 OFFCURVE",
"597 380 OFFCURVE",
"575 379 CURVE SMOOTH",
"521 377 OFFCURVE",
"486 377 OFFCURVE",
"438 377 CURVE SMOOTH",
"224 377 LINE SMOOTH",
"178 377 OFFCURVE",
"143 359 OFFCURVE",
"121 333 CURVE SMOOTH",
"92 299 OFFCURVE",
"80 250 OFFCURVE",
"80 202 CURVE SMOOTH",
"80 141 OFFCURVE",
"94 91 OFFCURVE",
"126 53 CURVE SMOOTH",
"157 17 OFFCURVE",
"204 0 OFFCURVE",
"256 0 CURVE SMOOTH",
"416 0 OFFCURVE",
"431 140 OFFCURVE",
"431 266 CURVE SMOOTH",
"431 290 OFFCURVE",
"428 327 OFFCURVE",
"423 352 CURVE",
"485 352 OFFCURVE",
"543 353 OFFCURVE",
"609 356 CURVE",
"609 0 LINE",
"750 0 LINE SMOOTH",
"773 0 OFFCURVE",
"796 0 OFFCURVE",
"827 5 CURVE",
"890 154 LINE",
"892 154 LINE",
"963 25 LINE SMOOTH",
"971 10 OFFCURVE",
"977 0 OFFCURVE",
"991 0 CURVE SMOOTH",
"994 0 LINE",
"994 23 LINE",
"902 186 LINE",
"879 186 LINE"
);
},
{
closed = 1;
nodes = (
"397 352 LINE",
"403 331 OFFCURVE",
"406 288 OFFCURVE",
"406 266 CURVE SMOOTH",
"406 144 OFFCURVE",
"389 25 OFFCURVE",
"257 25 CURVE SMOOTH",
"159 25 OFFCURVE",
"107 89 OFFCURVE",
"107 209 CURVE SMOOTH",
"107 291 OFFCURVE",
"150 352 OFFCURVE",
"219 352 CURVE SMOOTH"
);
},
{
closed = 1;
nodes = (
"383 -154 LINE",
"383 -106 LINE",
"335 -106 LINE",
"335 -154 LINE"
);
},
{
closed = 1;
nodes = (
"382 630 LINE",
"382 678 LINE",
"334 678 LINE",
"334 630 LINE"
);
},
{
closed = 1;
nodes = (
"308 493 LINE",
"308 541 LINE",
"260 541 LINE",
"260 493 LINE"
);
},
{
closed = 1;
nodes = (
"458 493 LINE",
"458 541 LINE",
"410 541 LINE",
"410 493 LINE"
);
}
);
width = 1054;
}
);
},
{
glyphname = uni071F;
lastChange = "2018-09-11 18:35:11 +0000";
layers = (
{
anchors = (
{
name = Anchor2;
position = "{652, 386}";
},
{
name = Anchor4;
position = "{631, -156}";
},
{
name = Anchor6;
position = "{301, -117}";
},
{
name = Anchor8;
position = "{296, 403}";
}
);
layerId = "C0CED439-FB43-4F2F-B9A6-3E073DE83FB3";
paths = (
{
closed = 1;
nodes = (
"875 -353 LINE",
"779 -67 OFFCURVE",
"697 108 OFFCURVE",
"645 206 CURVE SMOOTH",
"595 301 OFFCURVE",
"551 328 OFFCURVE",
"507 328 CURVE SMOOTH",
"437 328 OFFCURVE",
"406 276 OFFCURVE",
"391 167 CURVE SMOOTH",
"373 35 OFFCURVE",
"347 3 OFFCURVE",
"276 3 CURVE SMOOTH",
"167 3 OFFCURVE",
"103 127 OFFCURVE",
"103 256 CURVE SMOOTH",
"103 282 OFFCURVE",
"107 307 OFFCURVE",
"112 327 CURVE",
"90 334 LINE",
"82 310 OFFCURVE",
"78 274 OFFCURVE",
"78 250 CURVE SMOOTH",
"78 110 OFFCURVE",
"146 -22 OFFCURVE",
"276 -22 CURVE SMOOTH",
"381 -22 OFFCURVE",
"401 53 OFFCURVE",
"416 157 CURVE SMOOTH",
"430 255 OFFCURVE",
"446 303 OFFCURVE",
"506 303 CURVE SMOOTH",
"551 303 OFFCURVE",
"583 267 OFFCURVE",
"621 196 CURVE SMOOTH",
"685 76 OFFCURVE",
"774 -141 OFFCURVE",
"851 -361 CURVE"
);
}
);
width = 814;
}
);
unicode = 071F;
},
{
glyphname = uni071F.SYRJ;
lastChange = "2018-09-11 18:35:11 +0000";
layers = (
{
anchors = (
{
name = Anchor116;
position = "{420, 275}";
},
{
name = Anchor118;
position = "{419, -65}";
},
{
name = Anchor120;
position = "{317, -244}";
},
{
name = Anchor122;
position = "{231, 329}";
}
);
layerId = "C0CED439-FB43-4F2F-B9A6-3E073DE83FB3";
paths = (
{
closed = 1;
nodes = (
"62 147 LINE",
"62 144 OFFCURVE",
"62 140 OFFCURVE",
"62 137 CURVE SMOOTH",
"62 64 OFFCURVE",
"118 0 OFFCURVE",
"243 0 CURVE SMOOTH",
"252 0 OFFCURVE",
"266 1 OFFCURVE",
"280 4 CURVE",
"90 -360 LINE",
"111 -371 LINE",
"310 10 LINE",
"345 28 OFFCURVE",
"381 91 OFFCURVE",
"381 126 CURVE SMOOTH",
"381 137 OFFCURVE",
"376 144 OFFCURVE",
"367 144 CURVE SMOOTH",
"353 144 OFFCURVE",
"345 132 OFFCURVE",
"306 56 CURVE SMOOTH",
"292 29 LINE",
"284 26 OFFCURVE",
"258 25 OFFCURVE",
"251 25 CURVE SMOOTH",
"175 25 OFFCURVE",
"86 45 OFFCURVE",
"86 150 CURVE"
);
}
);
width = 451;
}
);
},
{
glyphname = uni071F.SYRN;
lastChange = "2018-09-11 18:35:11 +0000";
layers = (
{
anchors = (
{
name = Anchor60;
position = "{527, 433}";
},
{
name = Anchor62;
position = "{522, -330}";
},
{
name = Anchor64;
position = "{208, -385}";
},
{
name = Anchor66;
position = "{251, 518}";
}
);
layerId = "C0CED439-FB43-4F2F-B9A6-3E073DE83FB3";
paths = (
{
closed = 1;
nodes = (
"382 -327 LINE",
"514 -184 OFFCURVE",
"573 -59 OFFCURVE",
"573 45 CURVE SMOOTH",
"573 141 OFFCURVE",
"517 199 OFFCURVE",
"426 199 CURVE SMOOTH",
"338 199 OFFCURVE",
"287 131 OFFCURVE",
"256 38 CURVE",
"254 38 LINE",
"118 295 LINE SMOOTH",
"115 301 OFFCURVE",
"111 310 OFFCURVE",
"111 316 CURVE SMOOTH",
"111 323 OFFCURVE",
"112 326 OFFCURVE",
"123 350 CURVE SMOOTH",
"133 372 LINE",
"372 372 LINE",
"372 397 LINE",
"115 397 LINE",
"80 313 LINE",
"103 269 OFFCURVE",
"126 224 OFFCURVE",
"149 180 CURVE SMOOTH",
"181 120 OFFCURVE",
"213 60 OFFCURVE",
"245 0 CURVE",
"266 0 LINE",
"308 127 OFFCURVE",
"357 174 OFFCURVE",
"427 174 CURVE SMOOTH",
"501 174 OFFCURVE",
"547 127 OFFCURVE",
"547 44 CURVE SMOOTH",
"547 -13 OFFCURVE",
"530 -69 OFFCURVE",
"498 -128 CURVE SMOOTH",
"467 -186 OFFCURVE",
"421 -246 OFFCURVE",
"363 -311 CURVE"
);
}
);
width = 653;
}
);
},
{
glyphname = uni071F.Fina;
lastChange = "2018-09-11 18:35:11 +0000";
layers = (
{
anchors = (
{
name = Anchor2;
position = "{654, 381}";
},
{
name = Anchor4;
position = "{630, -160}";
},
{
name = Anchor6;
position = "{302, -117}";
},
{
name = Anchor8;
position = "{297, 403}";
}
);
layerId = "C0CED439-FB43-4F2F-B9A6-3E073DE83FB3";
paths = (
{
closed = 1;
nodes = (
"875 -353 LINE",
"826 -208 OFFCURVE",
"781 -92 OFFCURVE",
"742 0 CURVE",
"820 0 LINE",
"820 25 LINE",
"731 25 LINE",
"697 103 OFFCURVE",
"668 162 OFFCURVE",
"645 206 CURVE SMOOTH",
"595 301 OFFCURVE",
"551 328 OFFCURVE",
"507 328 CURVE SMOOTH",
"437 328 OFFCURVE",
"406 276 OFFCURVE",
"391 167 CURVE SMOOTH",
"373 35 OFFCURVE",
"347 3 OFFCURVE",
"276 3 CURVE SMOOTH",
"167 3 OFFCURVE",
"103 127 OFFCURVE",
"103 256 CURVE SMOOTH",
"103 282 OFFCURVE",
"107 307 OFFCURVE",
"112 327 CURVE",
"90 334 LINE",
"82 310 OFFCURVE",
"78 274 OFFCURVE",
"78 250 CURVE SMOOTH",
"78 110 OFFCURVE",
"146 -22 OFFCURVE",
"276 -22 CURVE SMOOTH",
"381 -22 OFFCURVE",
"401 53 OFFCURVE",
"416 157 CURVE SMOOTH",
"430 255 OFFCURVE",
"446 303 OFFCURVE",
"506 303 CURVE SMOOTH",
"551 303 OFFCURVE",
"583 267 OFFCURVE",
"621 196 CURVE SMOOTH",
"685 76 OFFCURVE",
"774 -141 OFFCURVE",
"851 -361 CURVE"
);
}
);
width = 820;
}
);
},
{
glyphname = uni071F.Fina.SYRJ;
lastChange = "2018-09-11 18:35:11 +0000";
layers = (
{
anchors = (
{
name = Anchor116;
position = "{420, 279}";
},
{
name = Anchor118;
position = "{419, -65}";
},
{
name = Anchor120;
position = "{317, -243}";
},
{
name = Anchor122;
position = "{262, 377}";
}
);
layerId = "C0CED439-FB43-4F2F-B9A6-3E073DE83FB3";
paths = (
{
closed = 1;
nodes = (
"63 147 LINE",
"62 140 OFFCURVE",
"62 139 OFFCURVE",
"62 137 CURVE SMOOTH",
"62 59 OFFCURVE",
"124 0 OFFCURVE",
"278 0 CURVE",
"90 -360 LINE",
"111 -371 LINE",
"305 0 LINE",
"472 0 LINE",
"472 25 LINE",
"330 25 LINE",
"347 39 OFFCURVE",
"381 91 OFFCURVE",
"381 126 CURVE SMOOTH",
"381 137 OFFCURVE",
"376 144 OFFCURVE",
"367 144 CURVE SMOOTH",
"353 144 OFFCURVE",
"346 133 OFFCURVE",
"306 56 CURVE SMOOTH",
"290 25 LINE",
"278 25 LINE SMOOTH",
"187 25 OFFCURVE",
"86 46 OFFCURVE",
"86 148 CURVE"
);
}
);
width = 472;
}
);
},
{
glyphname = uni071F.Fina.SYRN;
lastChange = "2018-09-11 18:35:11 +0000";
layers = (
{
anchors = (
{
name = Anchor60;
position = "{499, 442}";
},
{
name = Anchor62;
position = "{535, -69}";
},
{
name = Anchor64;
position = "{254, -334}";
},
{
name = Anchor66;
position = "{243, 422}";
}
);
layerId = "C0CED439-FB43-4F2F-B9A6-3E073DE83FB3";
paths = (
{
closed = 1;
nodes = (
"588 -316 LINE",
"580 -318 OFFCURVE",
"571 -319 OFFCURVE",
"565 -319 CURVE SMOOTH",
"518 -319 OFFCURVE",
"488 -301 OFFCURVE",
"450 -254 CURVE SMOOTH",
"417 -214 OFFCURVE",
"390 -180 OFFCURVE",
"330 -104 CURVE SMOOTH",
"272 -30 OFFCURVE",
"185 95 OFFCURVE",
"142 159 CURVE SMOOTH",
"123 187 OFFCURVE",
"113 203 OFFCURVE",
"113 218 CURVE SMOOTH",
"113 227 OFFCURVE",
"119 241 OFFCURVE",
"134 274 CURVE",
"266 275 LINE SMOOTH",
"335 276 OFFCURVE",
"392 275 OFFCURVE",
"426 283 CURVE",
"426 80 LINE SMOOTH",
"426 32 OFFCURVE",
"437 0 OFFCURVE",
"491 0 CURVE SMOOTH",
"564 0 LINE",
"564 25 LINE",
"496 25 LINE SMOOTH",
"455 25 OFFCURVE",
"452 45 OFFCURVE",
"452 98 CURVE SMOOTH",
"452 352 LINE",
"426 352 LINE",
"426 308 LINE",
"400 302 OFFCURVE",
"346 300 OFFCURVE",
"289 300 CURVE SMOOTH",
"231 300 OFFCURVE",
"174 299 OFFCURVE",
"116 299 CURVE",
"80 212 LINE",
"133 116 OFFCURVE",
"198 24 OFFCURVE",
"278 -79 CURVE SMOOTH",
"359 -184 OFFCURVE",
"402 -239 OFFCURVE",
"442 -284 CURVE SMOOTH",
"477 -324 OFFCURVE",
"512 -344 OFFCURVE",
"559 -344 CURVE SMOOTH",
"566 -344 OFFCURVE",
"582 -343 OFFCURVE",
"592 -340 CURVE"
);
}
);
width = 564;
}
);
},
{
glyphname = uni071F.Medi;
lastChange = "2018-09-11 18:35:11 +0000";
layers = (
{
anchors = (
{
name = Anchor2;
position = "{505, 364}";
},
{
name = Anchor4;
position = "{515, -95}";
},
{
name = Anchor6;
position = "{255, -98}";
},
{
name = Anchor8;
position = "{244, 479}";
}
);
layerId = "C0CED439-FB43-4F2F-B9A6-3E073DE83FB3";
paths = (
{
closed = 1;
nodes = (
"614 0 LINE",
"614 25 LINE",
"581 25 LINE",
"556 73 OFFCURVE",
"495 167 OFFCURVE",
"467 208 CURVE SMOOTH",
"377 339 OFFCURVE",
"322 386 OFFCURVE",
"226 386 CURVE SMOOTH",
"188 386 OFFCURVE",
"135 375 OFFCURVE",
"94 332 CURVE",
"110 315 LINE",
"142 345 OFFCURVE",
"183 361 OFFCURVE",
"225 361 CURVE SMOOTH",
"308 361 OFFCURVE",
"359 322 OFFCURVE",
"447 189 CURVE SMOOTH",
"492 122 OFFCURVE",
"532 59 OFFCURVE",
"551 25 CURVE",
"0 25 LINE SMOOTH",
"-19 25 OFFCURVE",
"-40 21 OFFCURVE",
"-40 13 CURVE SMOOTH",
"-40 4 OFFCURVE",
"-19 0 OFFCURVE",
"0 0 CURVE SMOOTH"
);
}
);
width = 614;
}
);
},
{
glyphname = uni071F.Medi.SYRJ;
lastChange = "2018-09-11 18:35:11 +0000";
layers = (
{
anchors = (
{
name = Anchor116;
position = "{493, 417}";
},
{
name = Anchor118;
position = "{459, -100}";
},
{
name = Anchor120;
position = "{215, -98}";
},
{
name = Anchor122;
position = "{248, 508}";
}
);
layerId = "C0CED439-FB43-4F2F-B9A6-3E073DE83FB3";
paths = (
{
closed = 1;
nodes = (
"519 0 LINE",
"519 25 LINE",
"478 25 LINE SMOOTH",
"458 25 OFFCURVE",
"429 24 OFFCURVE",
"409 21 CURVE",
"409 23 LINE",
"461 44 OFFCURVE",
"473 112 OFFCURVE",
"473 157 CURVE SMOOTH",
"473 322 OFFCURVE",
"369 404 OFFCURVE",
"261 404 CURVE SMOOTH",
"175 404 OFFCURVE",
"104 351 OFFCURVE",
"69 255 CURVE",
"92 249 LINE",
"129 338 OFFCURVE",
"192 379 OFFCURVE",
"261 379 CURVE SMOOTH",
"366 379 OFFCURVE",
"446 296 OFFCURVE",
"446 156 CURVE SMOOTH",
"446 71 OFFCURVE",
"407 25 OFFCURVE",
"324 25 CURVE SMOOTH",
"0 25 LINE SMOOTH",
"-19 25 OFFCURVE",
"-40 21 OFFCURVE",
"-40 13 CURVE SMOOTH",
"-40 4 OFFCURVE",
"-19 0 OFFCURVE",
"0 0 CURVE SMOOTH"
);
}
);
width = 519;
}
);
},
{
glyphname = uni071F.Medi.SYRN;
lastChange = "2018-09-11 18:35:11 +0000";
layers = (
{
anchors = (
{
name = Anchor60;
position = "{498, 377}";
},
{
name = Anchor62;
position = "{481, -81}";
},
{
name = Anchor64;
position = "{223, -99}";
},
{
name = Anchor66;
position = "{240, 509}";
}
);
layerId = "C0CED439-FB43-4F2F-B9A6-3E073DE83FB3";
paths = (
{
closed = 1;
nodes = (
"552 0 LINE",
"552 25 LINE",
"534 25 OFFCURVE",
"532 26 OFFCURVE",
"519 51 CURVE SMOOTH",
"454 177 LINE SMOOTH",
"378 325 OFFCURVE",
"318 388 OFFCURVE",
"212 388 CURVE SMOOTH",
"137 388 OFFCURVE",
"85 349 OFFCURVE",
"77 297 CURVE",
"102 297 LINE",
"113 335 OFFCURVE",
"151 362 OFFCURVE",
"211 362 CURVE SMOOTH",
"261 362 OFFCURVE",
"297 344 OFFCURVE",
"330 313 CURVE SMOOTH",
"363 282 OFFCURVE",
"399 225 OFFCURVE",
"437 152 CURVE SMOOTH",
"503 25 LINE",
"0 25 LINE SMOOTH",
"-19 25 OFFCURVE",
"-40 21 OFFCURVE",
"-40 13 CURVE SMOOTH",
"-40 4 OFFCURVE",
"-19 0 OFFCURVE",
"0 0 CURVE SMOOTH",
"500 0 LINE",
"507 18 LINE",
"509 18 LINE",
"518 5 OFFCURVE",
"529 0 OFFCURVE",
"545 0 CURVE SMOOTH"
);
}
);
width = 552;
}
);
},
{
glyphname = uni071F.Init;
lastChange = "2018-09-11 18:35:11 +0000";
layers = (
{
anchors = (
{
name = Anchor2;
position = "{505, 364}";
},
{
name = Anchor4;
position = "{514, -92}";
},
{
name = Anchor6;
position = "{255, -98}";
},
{
name = Anchor8;
position = "{243, 479}";
}
);
layerId = "C0CED439-FB43-4F2F-B9A6-3E073DE83FB3";
paths = (
{
closed = 1;
nodes = (
"557 0 LINE SMOOTH",
"571 0 OFFCURVE",
"579 7 OFFCURVE",
"579 20 CURVE SMOOTH",
"579 24 OFFCURVE",
"578 31 OFFCURVE",
"573 40 CURVE SMOOTH",
"548 85 OFFCURVE",
"494 167 OFFCURVE",
"467 208 CURVE SMOOTH",
"378 340 OFFCURVE",
"322 386 OFFCURVE",
"226 386 CURVE SMOOTH",
"188 386 OFFCURVE",
"135 375 OFFCURVE",
"94 332 CURVE",
"110 315 LINE",
"142 345 OFFCURVE",
"183 361 OFFCURVE",
"225 361 CURVE SMOOTH",
"308 361 OFFCURVE",
"359 322 OFFCURVE",
"447 189 CURVE SMOOTH",
"492 122 OFFCURVE",
"532 59 OFFCURVE",
"551 25 CURVE",
"0 25 LINE SMOOTH",
"-19 25 OFFCURVE",
"-40 21 OFFCURVE",
"-40 13 CURVE SMOOTH",
"-40 4 OFFCURVE",
"-19 0 OFFCURVE",
"0 0 CURVE SMOOTH"
);
}
);
width = 649;
}
);
},
{
glyphname = uni071F.Init.SYRJ;
lastChange = "2018-09-11 18:35:11 +0000";
layers = (
{
anchors = (
{
name = Anchor116;
position = "{494, 418}";
},
{
name = Anchor118;
position = "{459, -75}";
},
{
name = Anchor120;
position = "{215, -98}";
},
{
name = Anchor122;
position = "{249, 507}";
}
);
layerId = "C0CED439-FB43-4F2F-B9A6-3E073DE83FB3";
paths = (
{
closed = 1;
nodes = (
"313 0 LINE SMOOTH",
"435 0 OFFCURVE",
"473 62 OFFCURVE",
"473 157 CURVE SMOOTH",
"473 322 OFFCURVE",
"369 404 OFFCURVE",
"261 404 CURVE SMOOTH",
"175 404 OFFCURVE",
"104 351 OFFCURVE",
"69 255 CURVE",
"92 249 LINE",
"129 338 OFFCURVE",
"192 379 OFFCURVE",
"261 379 CURVE SMOOTH",
"366 379 OFFCURVE",
"446 296 OFFCURVE",
"446 156 CURVE SMOOTH",
"446 66 OFFCURVE",
"406 25 OFFCURVE",
"323 25 CURVE SMOOTH",
"0 25 LINE SMOOTH",
"-19 25 OFFCURVE",
"-40 21 OFFCURVE",
"-40 13 CURVE SMOOTH",
"-40 4 OFFCURVE",
"-19 0 OFFCURVE",
"0 0 CURVE SMOOTH"
);
}
);
width = 551;
}
);
},
{
glyphname = uni071F.Init.SYRN;
lastChange = "2018-09-11 18:35:11 +0000";
layers = (
{
anchors = (
{
name = Anchor60;
position = "{498, 377}";
},
{
name = Anchor62;
position = "{504, -82}";
},
{
name = Anchor64;
position = "{223, -102}";
},
{
name = Anchor66;
position = "{240, 507}";
}
);
layerId = "C0CED439-FB43-4F2F-B9A6-3E073DE83FB3";
paths = (
{
closed = 1;
nodes = (
"520 0 LINE",
"535 20 LINE",
"508 72 OFFCURVE",
"481 125 OFFCURVE",
"454 177 CURVE SMOOTH",
"378 325 OFFCURVE",
"318 388 OFFCURVE",
"212 388 CURVE SMOOTH",
"137 388 OFFCURVE",
"85 349 OFFCURVE",
"77 297 CURVE",
"102 297 LINE",
"113 335 OFFCURVE",
"151 362 OFFCURVE",
"211 362 CURVE SMOOTH",
"261 362 OFFCURVE",
"297 344 OFFCURVE",
"330 313 CURVE SMOOTH",
"363 282 OFFCURVE",
"399 225 OFFCURVE",
"437 152 CURVE SMOOTH",
"503 25 LINE",
"0 25 LINE SMOOTH",
"-19 25 OFFCURVE",
"-40 21 OFFCURVE",
"-40 13 CURVE SMOOTH",
"-40 4 OFFCURVE",
"-19 0 OFFCURVE",
"0 0 CURVE SMOOTH"
);
}
);
width = 595;
}
);
},
{
glyphname = uni0720;
lastChange = "2018-09-11 18:35:11 +0000";
layers = (
{
anchors = (
{
name = Anchor6;
position = "{300, -98}";
},
{
name = Anchor8;
position = "{243, 788}";
}
);
layerId = "C0CED439-FB43-4F2F-B9A6-3E073DE83FB3";
paths = (
{
closed = 1;
nodes = (
"517 0 LINE SMOOTH",
"531 0 OFFCURVE",
"539 8 OFFCURVE",
"539 21 CURVE SMOOTH",
"539 29 OFFCURVE",
"536 38 OFFCURVE",
"532 53 CURVE SMOOTH",
"495 186 OFFCURVE",
"335 619 OFFCURVE",
"292 720 CURVE",
"268 710 LINE",
"345 515 OFFCURVE",
"477 155 OFFCURVE",
"513 25 CURVE",
"228 25 LINE SMOOTH",
"137 25 OFFCURVE",
"106 34 OFFCURVE",
"77 73 CURVE",
"60 53 LINE",
"77 23 OFFCURVE",
"113 0 OFFCURVE",
"197 0 CURVE SMOOTH"
);
}
);
width = 613;
}
);
unicode = 0720;
},
{
glyphname = uni0720.SYRJ;
lastChange = "2018-09-11 18:35:11 +0000";
layers = (
{
anchors = (
{
name = Anchor120;
position = "{471, -98}";
},
{
name = Anchor122;
position = "{122, 719}";
}
);
layerId = "C0CED439-FB43-4F2F-B9A6-3E073DE83FB3";
paths = (
{
closed = 1;
nodes = (
"537 -15 OFFCURVE",
"588 22 OFFCURVE",
"588 90 CURVE",
"590 90 LINE",
"666 0 LINE",
"689 17 LINE",
"121 660 LINE",
"101 643 LINE",
"537 151 LINE SMOOTH",
"559 126 OFFCURVE",
"564 107 OFFCURVE",
"564 86 CURVE SMOOTH",
"564 43 OFFCURVE",
"528 10 OFFCURVE",
"457 10 CURVE SMOOTH",
"402 10 OFFCURVE",
"355 42 OFFCURVE",
"310 92 CURVE SMOOTH",
"-157 620 LINE",
"-177 603 LINE",
"283 83 LINE SMOOTH",
"354 2 OFFCURVE",
"404 -15 OFFCURVE",
"456 -15 CURVE SMOOTH"
);
}
);
width = 748;
}
);
},
{
glyphname = uni0720.SYRN;
lastChange = "2018-09-11 18:35:11 +0000";
layers = (
{
anchors = (
{
name = Anchor64;
position = "{390, -98}";
},
{
name = Anchor66;
position = "{327, 740}";
}
);
layerId = "C0CED439-FB43-4F2F-B9A6-3E073DE83FB3";
paths = (
{
closed = 1;
nodes = (
"685 0 LINE",
"700 20 LINE",
"372 656 LINE",
"349 644 LINE",
"668 25 LINE",
"228 25 LINE SMOOTH",
"137 25 OFFCURVE",
"106 34 OFFCURVE",
"77 73 CURVE",
"60 53 LINE",
"77 23 OFFCURVE",
"113 0 OFFCURVE",
"197 0 CURVE SMOOTH"
);
}
);
width = 760;
}
);
},
{
glyphname = uni0720.Fina;
lastChange = "2018-09-11 18:35:11 +0000";
layers = (
{
anchors = (
{
name = Anchor6;
position = "{300, -98}";
},
{
name = Anchor8;
position = "{244, 786}";
}
);
layerId = "C0CED439-FB43-4F2F-B9A6-3E073DE83FB3";
paths = (
{
closed = 1;
nodes = (
"606 25 LINE",
"552 25 LINE",
"490 204 OFFCURVE",
"312 676 OFFCURVE",
"293 720 CURVE",
"269 710 LINE",
"302 625 OFFCURVE",
"467 187 OFFCURVE",
"525 25 CURVE",
"228 25 LINE SMOOTH",
"137 25 OFFCURVE",
"106 34 OFFCURVE",
"77 73 CURVE",
"60 53 LINE",
"77 23 OFFCURVE",
"113 0 OFFCURVE",
"197 0 CURVE SMOOTH",
"606 0 LINE"
);
}
);
width = 606;
}
);
},
{
glyphname = uni0720.Fina.SYRJ;
lastChange = "2018-09-11 18:35:11 +0000";
layers = (
{
anchors = (
{
name = Anchor120;
position = "{471, -98}";
},
{
name = Anchor122;
position = "{121, 719}";
}
);
layerId = "C0CED439-FB43-4F2F-B9A6-3E073DE83FB3";
paths = (
{
closed = 1;
nodes = (
"537 -15 OFFCURVE",
"588 22 OFFCURVE",
"588 91 CURVE",
"591 91 LINE",
"658 12 OFFCURVE",
"687 0 OFFCURVE",
"735 0 CURVE",
"735 25 LINE",
"693 25 OFFCURVE",
"672 37 OFFCURVE",
"625 90 CURVE SMOOTH",
"121 660 LINE",
"101 643 LINE",
"537 151 LINE SMOOTH",
"559 126 OFFCURVE",
"564 107 OFFCURVE",
"564 86 CURVE SMOOTH",
"564 43 OFFCURVE",
"528 10 OFFCURVE",
"457 10 CURVE SMOOTH",
"402 10 OFFCURVE",
"355 42 OFFCURVE",
"310 92 CURVE SMOOTH",
"-157 620 LINE",
"-177 603 LINE",
"283 83 LINE SMOOTH",
"354 2 OFFCURVE",
"404 -15 OFFCURVE",
"456 -15 CURVE SMOOTH"
);
}
);
width = 735;
}
);
},
{
glyphname = uni0720.Fina.SYRN;
lastChange = "2018-09-11 18:35:11 +0000";
layers = (
{
anchors = (
{
name = Anchor64;
position = "{388, -98}";
},
{
name = Anchor66;
position = "{327, 737}";
}
);
layerId = "C0CED439-FB43-4F2F-B9A6-3E073DE83FB3";
paths = (
{
closed = 1;
nodes = (
"717 0 LINE",
"717 25 LINE",
"699 25 OFFCURVE",
"697 26 OFFCURVE",
"684 51 CURVE SMOOTH",
"372 656 LINE",
"349 644 LINE",
"668 25 LINE",
"228 25 LINE SMOOTH",
"137 25 OFFCURVE",
"106 34 OFFCURVE",
"77 73 CURVE",
"60 53 LINE",
"77 23 OFFCURVE",
"113 0 OFFCURVE",
"197 0 CURVE SMOOTH",
"665 0 LINE",
"672 18 LINE",
"674 18 LINE",
"683 5 OFFCURVE",
"694 0 OFFCURVE",
"710 0 CURVE SMOOTH"
);
}
);
width = 717;
}
);
},
{
glyphname = uni0720.Medi;
lastChange = "2018-09-11 18:35:11 +0000";
layers = (
{
anchors = (
{
name = Anchor6;
position = "{164, -98}";
},
{
name = Anchor8;
position = "{-54, 788}";
}
);
layerId = "C0CED439-FB43-4F2F-B9A6-3E073DE83FB3";
paths = (
{
closed = 1;
nodes = (
"309 25 LINE",
"255 25 LINE",
"191 204 OFFCURVE",
"15 676 OFFCURVE",
"-4 720 CURVE",
"-28 710 LINE",
"5 625 OFFCURVE",
"170 187 OFFCURVE",
"228 25 CURVE",
"0 25 LINE SMOOTH",
"-19 25 OFFCURVE",
"-40 21 OFFCURVE",
"-40 13 CURVE SMOOTH",
"-40 4 OFFCURVE",
"-19 0 OFFCURVE",
"0 0 CURVE SMOOTH",
"309 0 LINE"
);
}
);
width = 309;
}
);
},
{
glyphname = uni0720.Medi.SYRJ;
lastChange = "2018-09-11 18:35:11 +0000";
layers = (
{
anchors = (
{
name = Anchor120;
position = "{192, -98}";
},
{
name = Anchor122;
position = "{-115, 718}";
}
);
layerId = "C0CED439-FB43-4F2F-B9A6-3E073DE83FB3";
paths = (
{
closed = 1;
nodes = (
"0 25 LINE SMOOTH",
"-19 25 OFFCURVE",
"-40 21 OFFCURVE",
"-40 13 CURVE SMOOTH",
"-40 4 OFFCURVE",
"-19 0 OFFCURVE",
"0 0 CURVE SMOOTH",
"266 0 LINE SMOOTH",
"331 0 OFFCURVE",
"369 16 OFFCURVE",
"393 48 CURVE",
"430 13 OFFCURVE",
"450 0 OFFCURVE",
"498 0 CURVE",
"498 25 LINE",
"456 25 OFFCURVE",
"435 37 OFFCURVE",
"388 90 CURVE SMOOTH",
"-115 660 LINE",
"-135 643 LINE",
"376 65 LINE",
"347 26 OFFCURVE",
"301 25 OFFCURVE",
"270 25 CURVE SMOOTH"
);
}
);
width = 498;
}
);
},
{
glyphname = uni0720.Medi.SYRN;
lastChange = "2018-09-11 18:35:11 +0000";
layers = (
{
anchors = (
{
name = Anchor64;
position = "{169, -98}";
},
{
name = Anchor66;
position = "{-25, 741}";
}
);
layerId = "C0CED439-FB43-4F2F-B9A6-3E073DE83FB3";
paths = (
{
closed = 1;
nodes = (
"364 0 LINE",
"364 25 LINE",
"346 25 OFFCURVE",
"344 26 OFFCURVE",
"331 51 CURVE SMOOTH",
"19 656 LINE",
"-4 644 LINE",
"315 25 LINE",
"0 25 LINE SMOOTH",
"-19 25 OFFCURVE",
"-40 21 OFFCURVE",
"-40 13 CURVE SMOOTH",
"-40 4 OFFCURVE",
"-19 0 OFFCURVE",
"0 0 CURVE SMOOTH",
"312 0 LINE",
"319 18 LINE",
"321 18 LINE",
"330 5 OFFCURVE",
"341 0 OFFCURVE",
"357 0 CURVE SMOOTH"
);
}
);
width = 364;
}
);
},
{
glyphname = uni0720.Init;
lastChange = "2018-09-11 18:35:11 +0000";
layers = (
{
anchors = (
{
name = Anchor6;
position = "{169, -98}";
},
{
name = Anchor8;
position = "{-54, 788}";
}
);
layerId = "C0CED439-FB43-4F2F-B9A6-3E073DE83FB3";
paths = (
{
closed = 1;
nodes = (
"224 0 LINE SMOOTH",
"238 0 OFFCURVE",
"246 8 OFFCURVE",
"246 21 CURVE SMOOTH",
"246 29 OFFCURVE",
"243 38 OFFCURVE",
"239 53 CURVE SMOOTH",
"202 186 OFFCURVE",
"42 619 OFFCURVE",
"-1 720 CURVE",
"-25 710 LINE",
"52 515 OFFCURVE",
"184 155 OFFCURVE",
"220 25 CURVE",
"0 25 LINE SMOOTH",
"-19 25 OFFCURVE",
"-40 21 OFFCURVE",
"-40 13 CURVE SMOOTH",
"-40 4 OFFCURVE",
"-19 0 OFFCURVE",
"0 0 CURVE SMOOTH"
);
}
);
width = 320;
}
);
},
{
glyphname = uni0720.Init.SYRJ;
lastChange = "2018-09-11 18:35:11 +0000";
layers = (
{
anchors = (
{
name = Anchor120;
position = "{192, -98}";
},
{
name = Anchor122;
position = "{-115, 719}";
}
);
layerId = "C0CED439-FB43-4F2F-B9A6-3E073DE83FB3";
paths = (
{
closed = 1;
nodes = (
"-114 660 LINE",
"-134 643 LINE",
"376 65 LINE",
"347 26 OFFCURVE",
"301 25 OFFCURVE",
"270 25 CURVE SMOOTH",
"0 25 LINE SMOOTH",
"-19 25 OFFCURVE",
"-40 21 OFFCURVE",
"-40 13 CURVE SMOOTH",
"-40 4 OFFCURVE",
"-19 0 OFFCURVE",
"0 0 CURVE SMOOTH",
"266 0 LINE SMOOTH",
"331 0 OFFCURVE",
"368 15 OFFCURVE",
"392 47 CURVE",
"435 -2 LINE",
"454 15 LINE"
);
}
);
width = 513;
}
);
},
{
glyphname = uni0720.Init.SYRN;
lastChange = "2018-09-11 18:35:11 +0000";
layers = (
{
anchors = (
{
name = Anchor64;
position = "{169, -98}";
},
{
name = Anchor66;
position = "{-23, 738}";
}
);
layerId = "C0CED439-FB43-4F2F-B9A6-3E073DE83FB3";
paths = (
{
closed = 1;
nodes = (
"332 0 LINE",
"347 20 LINE",
"19 656 LINE",
"-4 644 LINE",
"315 25 LINE",
"0 25 LINE SMOOTH",
"-19 25 OFFCURVE",
"-40 21 OFFCURVE",
"-40 13 CURVE SMOOTH",
"-40 4 OFFCURVE",
"-19 0 OFFCURVE",
"0 0 CURVE SMOOTH"
);
}
);
width = 407;
}
);
},
{
glyphname = uni0721;
lastChange = "2018-09-11 18:35:11 +0000";
layers = (
{
anchors = (
{
name = Anchor6;
position = "{565, -98}";
},
{
name = Anchor8;
position = "{447, 486}";
}
);
layerId = "C0CED439-FB43-4F2F-B9A6-3E073DE83FB3";
paths = (
{
closed = 1;
nodes = (
"595 0 LINE SMOOTH",
"713 0 OFFCURVE",
"748 60 OFFCURVE",
"748 160 CURVE SMOOTH",
"748 228 OFFCURVE",
"740 283 OFFCURVE",
"715 320 CURVE SMOOTH",
"691 355 OFFCURVE",
"651 374 OFFCURVE",
"588 374 CURVE SMOOTH",
"540 374 OFFCURVE",
"473 365 OFFCURVE",
"413 365 CURVE SMOOTH",
"289 365 OFFCURVE",
"163 389 OFFCURVE",
"80 420 CURVE",
"70 397 LINE",
"125 376 OFFCURVE",
"256 343 OFFCURVE",
"403 340 CURVE",
"397 279 OFFCURVE",
"396 233 OFFCURVE",
"392 192 CURVE SMOOTH",
"377 43 OFFCURVE",
"323 -65 OFFCURVE",
"230 -159 CURVE",
"248 -177 LINE",
"332 -95 OFFCURVE",
"389 14 OFFCURVE",
"404 123 CURVE",
"407 123 LINE",
"418 45 OFFCURVE",
"474 0 OFFCURVE",
"576 0 CURVE SMOOTH"
);
},
{
closed = 1;
nodes = (
"582 25 LINE SMOOTH",
"524 25 OFFCURVE",
"474 40 OFFCURVE",
"448 79 CURVE SMOOTH",
"422 119 OFFCURVE",
"420 146 OFFCURVE",
"420 217 CURVE SMOOTH",
"420 234 OFFCURVE",
"424 308 OFFCURVE",
"428 340 CURVE",
"498 344 OFFCURVE",
"558 349 OFFCURVE",
"584 349 CURVE SMOOTH",
"684 349 OFFCURVE",
"722 308 OFFCURVE",
"722 160 CURVE SMOOTH",
"722 72 OFFCURVE",
"691 25 OFFCURVE",
"604 25 CURVE SMOOTH"
);
}
);
width = 828;
}
);
unicode = 0721;
},
{
glyphname = uni0721.SYRJ;
lastChange = "2018-09-11 18:35:11 +0000";
layers = (
{
anchors = (
{
name = Anchor120;
position = "{387, -98}";
},
{
name = Anchor122;
position = "{331, 520}";
}
);
layerId = "C0CED439-FB43-4F2F-B9A6-3E073DE83FB3";
paths = (
{
closed = 1;
nodes = (
"272 382 OFFCURVE",
"174 346 OFFCURVE",
"154 233 CURVE",
"152 233 LINE",
"135 291 OFFCURVE",
"101 360 OFFCURVE",
"81 394 CURVE",
"59 382 LINE",
"127 257 OFFCURVE",
"172 133 OFFCURVE",
"172 -55 CURVE SMOOTH",
"172 -179 OFFCURVE",
"133 -308 OFFCURVE",
"106 -375 CURVE",
"129 -382 LINE",
"171 -278 OFFCURVE",
"198 -165 OFFCURVE",
"198 -55 CURVE SMOOTH",
"198 -9 OFFCURVE",
"196 30 OFFCURVE",
"186 83 CURVE",
"188 83 LINE",
"229 19 OFFCURVE",
"290 -4 OFFCURVE",
"350 -4 CURVE SMOOTH",
"450 -4 OFFCURVE",
"545 72 OFFCURVE",
"545 193 CURVE SMOOTH",
"545 302 OFFCURVE",
"468 382 OFFCURVE",
"343 382 CURVE SMOOTH"
);
},
{
closed = 1;
nodes = (
"228 21 OFFCURVE",
"174 132 OFFCURVE",
"174 200 CURVE SMOOTH",
"174 288 OFFCURVE",
"243 357 OFFCURVE",
"343 357 CURVE SMOOTH",
"455 357 OFFCURVE",
"519 290 OFFCURVE",
"519 193 CURVE SMOOTH",
"519 83 OFFCURVE",
"438 21 OFFCURVE",
"350 21 CURVE SMOOTH"
);
}
);
width = 610;
}
);
},
{
glyphname = uni0721.SYRN;
lastChange = "2018-09-11 18:35:11 +0000";
layers = (
{
anchors = (
{
name = Anchor64;
position = "{405, -99}";
},
{
name = Anchor66;
position = "{399, 496}";
}
);
layerId = "C0CED439-FB43-4F2F-B9A6-3E073DE83FB3";
paths = (
{
closed = 1;
nodes = (
"548 0 LINE",
"563 20 LINE",
"563 377 LINE",
"210 377 LINE SMOOTH",
"162 377 OFFCURVE",
"102 381 OFFCURVE",
"60 388 CURVE",
"60 363 LINE",
"88 357 OFFCURVE",
"153 352 OFFCURVE",
"214 352 CURVE SMOOTH",
"282 352 LINE",
"142 -132 LINE",
"165 -139 LINE",
"223 60 LINE",
"236 21 OFFCURVE",
"279 0 OFFCURVE",
"352 0 CURVE SMOOTH"
);
},
{
closed = 1;
nodes = (
"362 25 LINE SMOOTH",
"277 25 OFFCURVE",
"242 52 OFFCURVE",
"234 97 CURVE",
"308 352 LINE",
"537 352 LINE",
"537 25 LINE"
);
}
);
width = 643;
}
);
},
{
glyphname = uni0721.Fina;
lastChange = "2018-09-11 18:35:11 +0000";
layers = (
{
anchors = (
{
name = Anchor6;
position = "{567, -98}";
},
{
name = Anchor8;
position = "{448, 485}";
}
);
layerId = "C0CED439-FB43-4F2F-B9A6-3E073DE83FB3";
paths = (
{
closed = 1;
nodes = (
"837 25 LINE",
"695 25 LINE",
"695 27 LINE",
"738 58 OFFCURVE",
"748 106 OFFCURVE",
"748 160 CURVE SMOOTH",
"748 228 OFFCURVE",
"740 283 OFFCURVE",
"715 320 CURVE SMOOTH",
"691 355 OFFCURVE",
"651 374 OFFCURVE",
"588 374 CURVE SMOOTH",
"540 374 OFFCURVE",
"473 365 OFFCURVE",
"413 365 CURVE SMOOTH",
"289 365 OFFCURVE",
"163 389 OFFCURVE",
"80 420 CURVE",
"70 397 LINE",
"125 376 OFFCURVE",
"256 343 OFFCURVE",
"403 340 CURVE",
"397 279 OFFCURVE",
"396 233 OFFCURVE",
"392 192 CURVE SMOOTH",
"377 43 OFFCURVE",
"323 -65 OFFCURVE",
"230 -159 CURVE",
"248 -177 LINE",
"332 -95 OFFCURVE",
"389 14 OFFCURVE",
"404 123 CURVE",
"407 123 LINE",
"418 45 OFFCURVE",
"474 0 OFFCURVE",
"576 0 CURVE SMOOTH",
"837 0 LINE"
);
},
{
closed = 1;
nodes = (
"582 25 LINE SMOOTH",
"524 25 OFFCURVE",
"474 40 OFFCURVE",
"448 79 CURVE SMOOTH",
"422 119 OFFCURVE",
"420 146 OFFCURVE",
"420 217 CURVE SMOOTH",
"420 234 OFFCURVE",
"424 308 OFFCURVE",
"428 340 CURVE",
"498 344 OFFCURVE",
"558 349 OFFCURVE",
"584 349 CURVE SMOOTH",
"684 349 OFFCURVE",
"722 308 OFFCURVE",
"722 160 CURVE SMOOTH",
"722 72 OFFCURVE",
"691 25 OFFCURVE",
"604 25 CURVE SMOOTH"
);
}
);
width = 837;
}
);
},
{
glyphname = uni0721.Fina.SYRJ;
lastChange = "2018-09-11 18:35:11 +0000";
layers = (
{
anchors = (
{
name = Anchor120;
position = "{388, -98}";
},
{
name = Anchor122;
position = "{331, 518}";
}
);
layerId = "C0CED439-FB43-4F2F-B9A6-3E073DE83FB3";
paths = (
{
closed = 1;
nodes = (
"511 25 LINE SMOOTH",
"489 25 OFFCURVE",
"462 22 OFFCURVE",
"445 21 CURVE",
"445 23 LINE",
"503 53 OFFCURVE",
"545 112 OFFCURVE",
"545 193 CURVE SMOOTH",
"545 302 OFFCURVE",
"468 382 OFFCURVE",
"343 382 CURVE SMOOTH",
"272 382 OFFCURVE",
"174 346 OFFCURVE",
"154 233 CURVE",
"152 233 LINE",
"135 291 OFFCURVE",
"101 360 OFFCURVE",
"81 394 CURVE",
"59 382 LINE",
"127 257 OFFCURVE",
"172 133 OFFCURVE",
"172 -55 CURVE SMOOTH",
"172 -179 OFFCURVE",
"133 -308 OFFCURVE",
"106 -375 CURVE",
"129 -382 LINE",
"171 -278 OFFCURVE",
"198 -165 OFFCURVE",
"198 -55 CURVE SMOOTH",
"198 -9 OFFCURVE",
"197 33 OFFCURVE",
"187 86 CURVE",
"189 86 LINE",
"230 20 OFFCURVE",
"302 0 OFFCURVE",
"367 0 CURVE SMOOTH",
"618 0 LINE",
"618 25 LINE"
);
},
{
closed = 1;
nodes = (
"236 25 OFFCURVE",
"174 127 OFFCURVE",
"174 200 CURVE SMOOTH",
"174 288 OFFCURVE",
"243 357 OFFCURVE",
"343 357 CURVE SMOOTH",
"455 357 OFFCURVE",
"519 290 OFFCURVE",
"519 193 CURVE SMOOTH",
"519 83 OFFCURVE",
"439 25 OFFCURVE",
"355 25 CURVE SMOOTH"
);
}
);
width = 618;
}
);
},
{
glyphname = uni0721.Fina.SYRN;
lastChange = "2018-09-11 18:35:11 +0000";
layers = (
{
anchors = (
{
name = Anchor64;
position = "{407, -99}";
},
{
name = Anchor66;
position = "{399, 495}";
}
);
layerId = "C0CED439-FB43-4F2F-B9A6-3E073DE83FB3";
paths = (
{
closed = 1;
nodes = (
"675 0 LINE",
"675 25 LINE",
"607 25 LINE SMOOTH",
"566 25 OFFCURVE",
"563 45 OFFCURVE",
"563 98 CURVE SMOOTH",
"563 377 LINE",
"210 377 LINE SMOOTH",
"162 377 OFFCURVE",
"102 381 OFFCURVE",
"60 388 CURVE",
"60 363 LINE",
"88 357 OFFCURVE",
"153 352 OFFCURVE",
"214 352 CURVE SMOOTH",
"282 352 LINE",
"142 -132 LINE",
"165 -139 LINE",
"223 60 LINE",
"236 21 OFFCURVE",
"279 0 OFFCURVE",
"352 0 CURVE SMOOTH",
"545 0 LINE",
"551 17 LINE",
"553 17 LINE",
"563 6 OFFCURVE",
"578 0 OFFCURVE",
"602 0 CURVE SMOOTH"
);
},
{
closed = 1;
nodes = (
"537 80 LINE SMOOTH",
"537 57 OFFCURVE",
"539 39 OFFCURVE",
"547 25 CURVE",
"362 25 LINE SMOOTH",
"277 25 OFFCURVE",
"242 52 OFFCURVE",
"234 97 CURVE",
"308 352 LINE",
"537 352 LINE"
);
}
);
width = 675;
}
);
},
{
glyphname = uni0721.Medi;
lastChange = "2018-09-11 18:35:11 +0000";
layers = (
{
anchors = (
{
name = Anchor6;
position = "{409, -97}";
},
{
name = Anchor8;
position = "{439, 479}";
}
);
layerId = "C0CED439-FB43-4F2F-B9A6-3E073DE83FB3";
paths = (
{
closed = 1;
nodes = (
"808 25 LINE",
"674 25 LINE",
"674 27 LINE",
"712 63 OFFCURVE",
"721 111 OFFCURVE",
"721 164 CURVE SMOOTH",
"721 219 OFFCURVE",
"717 258 OFFCURVE",
"704 293 CURVE SMOOTH",
"679 361 OFFCURVE",
"630 381 OFFCURVE",
"559 381 CURVE SMOOTH",
"525 381 OFFCURVE",
"450 371 OFFCURVE",
"369 371 CURVE SMOOTH",
"229 371 OFFCURVE",
"159 385 OFFCURVE",
"85 420 CURVE",
"74 398 LINE",
"117 373 OFFCURVE",
"209 346 OFFCURVE",
"353 346 CURVE SMOOTH",
"373 346 OFFCURVE",
"400 346 OFFCURVE",
"432 348 CURVE",
"392 166 OFFCURVE",
"352 25 OFFCURVE",
"137 25 CURVE SMOOTH",
"0 25 LINE SMOOTH",
"-19 25 OFFCURVE",
"-40 21 OFFCURVE",
"-40 13 CURVE SMOOTH",
"-40 4 OFFCURVE",
"-19 0 OFFCURVE",
"0 0 CURVE SMOOTH",
"129 0 LINE SMOOTH",
"381 0 OFFCURVE",
"418 164 OFFCURVE",
"458 350 CURVE",
"503 353 OFFCURVE",
"518 356 OFFCURVE",
"559 356 CURVE SMOOTH",
"621 356 OFFCURVE",
"655 338 OFFCURVE",
"675 295 CURVE SMOOTH",
"695 251 OFFCURVE",
"695 203 OFFCURVE",
"695 157 CURVE SMOOTH",
"695 65 OFFCURVE",
"653 14 OFFCURVE",
"577 14 CURVE SMOOTH",
"532 14 OFFCURVE",
"476 33 OFFCURVE",
"428 67 CURVE",
"413 47 LINE",
"455 13 OFFCURVE",
"523 -11 OFFCURVE",
"575 -11 CURVE SMOOTH",
"599 -11 OFFCURVE",
"619 -7 OFFCURVE",
"636 0 CURVE",
"808 0 LINE"
);
}
);
width = 808;
}
);
},
{
glyphname = uni0721.Medi.SYRJ;
lastChange = "2018-09-11 18:35:11 +0000";
layers = (
{
anchors = (
{
name = Anchor120;
position = "{377, -98}";
},
{
name = Anchor122;
position = "{388, 508}";
}
);
layerId = "C0CED439-FB43-4F2F-B9A6-3E073DE83FB3";
paths = (
{
closed = 1;
nodes = (
"43 382 LINE",
"310 95 LINE",
"303 26 OFFCURVE",
"230 25 OFFCURVE",
"200 25 CURVE SMOOTH",
"0 25 LINE SMOOTH",
"-19 25 OFFCURVE",
"-40 21 OFFCURVE",
"-40 13 CURVE SMOOTH",
"-40 4 OFFCURVE",
"-19 0 OFFCURVE",
"0 0 CURVE SMOOTH",
"190 0 LINE SMOOTH",
"268 0 OFFCURVE",
"318 18 OFFCURVE",
"329 76 CURVE",
"331 76 LINE",
"375 32 OFFCURVE",
"426 0 OFFCURVE",
"512 0 CURVE SMOOTH",
"741 0 LINE",
"741 25 LINE",
"662 25 LINE SMOOTH",
"642 25 OFFCURVE",
"608 23 OFFCURVE",
"580 21 CURVE",
"580 23 LINE",
"652 54 OFFCURVE",
"669 138 OFFCURVE",
"669 177 CURVE SMOOTH",
"669 278 OFFCURVE",
"591 361 OFFCURVE",
"467 361 CURVE SMOOTH",
"402 361 OFFCURVE",
"287 324 OFFCURVE",
"287 189 CURVE SMOOTH",
"287 176 OFFCURVE",
"289 161 OFFCURVE",
"297 142 CURVE",
"295 142 LINE",
"271 172 OFFCURVE",
"257 188 OFFCURVE",
"206 242 CURVE SMOOTH",
"62 397 LINE"
);
},
{
closed = 1;
nodes = (
"405 25 OFFCURVE",
"312 104 OFFCURVE",
"312 186 CURVE SMOOTH",
"312 291 OFFCURVE",
"386 336 OFFCURVE",
"467 336 CURVE SMOOTH",
"575 336 OFFCURVE",
"643 269 OFFCURVE",
"643 176 CURVE SMOOTH",
"643 75 OFFCURVE",
"578 25 OFFCURVE",
"498 25 CURVE SMOOTH"
);
}
);
width = 741;
}
);
},
{
glyphname = uni0721.Medi.SYRN;
lastChange = "2018-09-11 18:35:11 +0000";
layers = (
{
anchors = (
{
name = Anchor64;
position = "{355, -98}";
},
{
name = Anchor66;
position = "{458, 495}";
}
);
layerId = "C0CED439-FB43-4F2F-B9A6-3E073DE83FB3";
paths = (
{
closed = 1;
nodes = (
"713 0 LINE",
"713 25 LINE",
"709 25 LINE SMOOTH",
"672 25 OFFCURVE",
"615 26 OFFCURVE",
"599 53 CURVE",
"623 84 OFFCURVE",
"630 124 OFFCURVE",
"630 163 CURVE SMOOTH",
"630 222 OFFCURVE",
"613 273 OFFCURVE",
"581 309 CURVE SMOOTH",
"551 343 OFFCURVE",
"507 363 OFFCURVE",
"455 363 CURVE SMOOTH",
"412 363 OFFCURVE",
"373 350 OFFCURVE",
"340 321 CURVE SMOOTH",
"314 299 OFFCURVE",
"294 268 OFFCURVE",
"282 230 CURVE",
"193 299 LINE SMOOTH",
"133 345 OFFCURVE",
"74 396 OFFCURVE",
"51 419 CURVE",
"33 400 LINE",
"64 371 OFFCURVE",
"116 324 OFFCURVE",
"180 276 CURVE SMOOTH",
"276 203 LINE",
"274 190 OFFCURVE",
"273 177 OFFCURVE",
"273 163 CURVE SMOOTH",
"273 98 OFFCURVE",
"295 52 OFFCURVE",
"335 25 CURVE",
"0 25 LINE SMOOTH",
"-19 25 OFFCURVE",
"-40 21 OFFCURVE",
"-40 13 CURVE SMOOTH",
"-40 4 OFFCURVE",
"-19 0 OFFCURVE",
"0 0 CURVE SMOOTH",
"335 0 LINE",
"342 20 LINE",
"344 20 LINE",
"373 3 OFFCURVE",
"409 -5 OFFCURVE",
"454 -5 CURVE SMOOTH",
"514 -5 OFFCURVE",
"554 10 OFFCURVE",
"581 34 CURVE",
"583 34 LINE",
"607 2 OFFCURVE",
"657 0 OFFCURVE",
"709 0 CURVE SMOOTH"
);
},
{
closed = 1;
nodes = (
"604 69 OFFCURVE",
"562 20 OFFCURVE",
"455 20 CURVE SMOOTH",
"349 20 OFFCURVE",
"299 69 OFFCURVE",
"299 163 CURVE SMOOTH",
"299 269 OFFCURVE",
"363 338 OFFCURVE",
"454 338 CURVE SMOOTH",
"546 338 OFFCURVE",
"604 271 OFFCURVE",
"604 163 CURVE SMOOTH"
);
}
);
width = 713;
}
);
},
{
glyphname = uni0721.Init;
lastChange = "2018-09-11 18:35:11 +0000";
layers = (
{
anchors = (
{
name = Anchor6;
position = "{406, -97}";
},
{
name = Anchor8;
position = "{441, 479}";
}
);
layerId = "C0CED439-FB43-4F2F-B9A6-3E073DE83FB3";
paths = (
{
closed = 1;
nodes = (
"413 47 LINE",
"455 13 OFFCURVE",
"523 -11 OFFCURVE",
"575 -11 CURVE SMOOTH",
"682 -11 OFFCURVE",
"721 63 OFFCURVE",
"721 160 CURVE SMOOTH",
"721 215 OFFCURVE",
"717 258 OFFCURVE",
"704 293 CURVE SMOOTH",
"679 361 OFFCURVE",
"630 381 OFFCURVE",
"559 381 CURVE SMOOTH",
"525 381 OFFCURVE",
"450 371 OFFCURVE",
"369 371 CURVE SMOOTH",
"229 371 OFFCURVE",
"159 385 OFFCURVE",
"85 420 CURVE",
"74 398 LINE",
"117 373 OFFCURVE",
"209 346 OFFCURVE",
"353 346 CURVE SMOOTH",
"373 346 OFFCURVE",
"400 346 OFFCURVE",
"432 348 CURVE",
"392 166 OFFCURVE",
"352 25 OFFCURVE",
"137 25 CURVE SMOOTH",
"0 25 LINE SMOOTH",
"-19 25 OFFCURVE",
"-40 21 OFFCURVE",
"-40 13 CURVE SMOOTH",
"-40 4 OFFCURVE",
"-19 0 OFFCURVE",
"0 0 CURVE SMOOTH",
"129 0 LINE SMOOTH",
"381 0 OFFCURVE",
"418 164 OFFCURVE",
"458 350 CURVE",
"503 353 OFFCURVE",
"518 356 OFFCURVE",
"559 356 CURVE SMOOTH",
"621 356 OFFCURVE",
"655 338 OFFCURVE",
"675 295 CURVE SMOOTH",
"695 251 OFFCURVE",
"695 199 OFFCURVE",
"695 153 CURVE SMOOTH",
"695 61 OFFCURVE",
"653 14 OFFCURVE",
"577 14 CURVE SMOOTH",
"532 14 OFFCURVE",
"476 33 OFFCURVE",
"428 67 CURVE"
);
}
);
width = 801;
}
);
},
{
glyphname = uni0721.Init.SYRJ;
lastChange = "2018-09-11 18:35:11 +0000";
layers = (
{
anchors = (
{
name = Anchor120;
position = "{376, -98}";
},
{
name = Anchor122;
position = "{390, 507}";
}
);
layerId = "C0CED439-FB43-4F2F-B9A6-3E073DE83FB3";
paths = (
{
closed = 1;
nodes = (
"43 382 LINE",
"310 95 LINE",
"303 26 OFFCURVE",
"230 25 OFFCURVE",
"200 25 CURVE SMOOTH",
"0 25 LINE SMOOTH",
"-19 25 OFFCURVE",
"-40 21 OFFCURVE",
"-40 13 CURVE SMOOTH",
"-40 4 OFFCURVE",
"-19 0 OFFCURVE",
"0 0 CURVE SMOOTH",
"190 0 LINE SMOOTH",
"268 0 OFFCURVE",
"318 18 OFFCURVE",
"329 76 CURVE",
"331 76 LINE",
"375 32 OFFCURVE",
"429 0 OFFCURVE",
"498 0 CURVE SMOOTH",
"626 0 OFFCURVE",
"669 91 OFFCURVE",
"669 177 CURVE SMOOTH",
"669 278 OFFCURVE",
"591 361 OFFCURVE",
"467 361 CURVE SMOOTH",
"402 361 OFFCURVE",
"287 324 OFFCURVE",
"287 189 CURVE SMOOTH",
"287 176 OFFCURVE",
"289 161 OFFCURVE",
"297 142 CURVE",
"295 142 LINE",
"271 172 OFFCURVE",
"257 188 OFFCURVE",
"206 242 CURVE SMOOTH",
"62 397 LINE"
);
},
{
closed = 1;
nodes = (
"408 25 OFFCURVE",
"312 101 OFFCURVE",
"312 186 CURVE SMOOTH",
"312 291 OFFCURVE",
"386 336 OFFCURVE",
"467 336 CURVE SMOOTH",
"575 336 OFFCURVE",
"643 269 OFFCURVE",
"643 176 CURVE SMOOTH",
"643 72 OFFCURVE",
"578 25 OFFCURVE",
"498 25 CURVE SMOOTH"
);
}
);
width = 724;
}
);
},
{
glyphname = uni0721.Init.SYRN;
lastChange = "2018-09-11 18:35:11 +0000";
layers = (
{
anchors = (
{
name = Anchor64;
position = "{355, -98}";
},
{
name = Anchor66;
position = "{461, 495}";
}
);
layerId = "C0CED439-FB43-4F2F-B9A6-3E073DE83FB3";
paths = (
{
closed = 1;
nodes = (
"335 0 LINE",
"342 20 LINE",
"344 20 LINE",
"373 3 OFFCURVE",
"409 -5 OFFCURVE",
"454 -5 CURVE SMOOTH",
"596 -5 OFFCURVE",
"630 81 OFFCURVE",
"630 163 CURVE SMOOTH",
"630 222 OFFCURVE",
"613 273 OFFCURVE",
"581 309 CURVE SMOOTH",
"551 343 OFFCURVE",
"507 363 OFFCURVE",
"455 363 CURVE SMOOTH",
"412 363 OFFCURVE",
"373 350 OFFCURVE",
"340 321 CURVE SMOOTH",
"314 299 OFFCURVE",
"294 268 OFFCURVE",
"282 230 CURVE",
"193 299 LINE SMOOTH",
"133 345 OFFCURVE",
"74 396 OFFCURVE",
"51 419 CURVE",
"33 400 LINE",
"64 371 OFFCURVE",
"116 324 OFFCURVE",
"180 276 CURVE SMOOTH",
"276 203 LINE",
"274 190 OFFCURVE",
"273 177 OFFCURVE",
"273 163 CURVE SMOOTH",
"273 98 OFFCURVE",
"295 52 OFFCURVE",
"335 25 CURVE",
"0 25 LINE SMOOTH",
"-19 25 OFFCURVE",
"-40 21 OFFCURVE",
"-40 13 CURVE SMOOTH",
"-40 4 OFFCURVE",
"-19 0 OFFCURVE",
"0 0 CURVE SMOOTH"
);
},
{
closed = 1;
nodes = (
"604 69 OFFCURVE",
"562 20 OFFCURVE",
"455 20 CURVE SMOOTH",
"349 20 OFFCURVE",
"299 69 OFFCURVE",
"299 163 CURVE SMOOTH",
"299 269 OFFCURVE",
"363 338 OFFCURVE",
"454 338 CURVE SMOOTH",
"546 338 OFFCURVE",
"604 271 OFFCURVE",
"604 163 CURVE SMOOTH"
);
}
);
width = 710;
}
);
},
{
glyphname = uni0722;
lastChange = "2018-09-11 18:35:11 +0000";
layers = (
{
anchors = (
{
name = Anchor6;
position = "{160, -161}";
},
{
name = Anchor8;
position = "{197, 301}";
}
);
layerId = "C0CED439-FB43-4F2F-B9A6-3E073DE83FB3";
paths = (
{
closed = 1;
nodes = (
"971 -244 LINE",
"762 -184 OFFCURVE",
"669 -157 OFFCURVE",
"398 -64 CURVE SMOOTH",
"355 -49 OFFCURVE",
"285 -24 OFFCURVE",
"194 14 CURVE SMOOTH",
"110 49 OFFCURVE",
"87 56 OFFCURVE",
"78 56 CURVE SMOOTH",
"72 56 OFFCURVE",
"66 53 OFFCURVE",
"66 45 CURVE SMOOTH",
"66 41 OFFCURVE",
"68 36 OFFCURVE",
"82 28 CURVE SMOOTH",
"121 6 OFFCURVE",
"251 -41 OFFCURVE",
"360 -79 CURVE SMOOTH",
"599 -162 OFFCURVE",
"758 -210 OFFCURVE",
"964 -266 CURVE"
);
}
);
width = 560;
}
);
unicode = 0722;
},
{
glyphname = uni0722.SYRJ;
lastChange = "2018-09-11 18:35:11 +0000";
layers = (
{
anchors = (
{
name = Anchor120;
position = "{142, -342}";
},
{
name = Anchor122;
position = "{135, 308}";
}
);
layerId = "C0CED439-FB43-4F2F-B9A6-3E073DE83FB3";
paths = (
{
closed = 1;
nodes = (
"407 -356 LINE",
"275 -189 OFFCURVE",
"156 -32 OFFCURVE",
"50 120 CURVE",
"28 105 LINE",
"119 -30 OFFCURVE",
"306 -270 OFFCURVE",
"387 -371 CURVE"
);
}
);
width = 274;
}
);
},
{
glyphname = uni0722.SYRN;
lastChange = "2018-09-11 18:35:11 +0000";
layers = (
{
anchors = (
{
name = Anchor64;
position = "{179, -184}";
},
{
name = Anchor66;
position = "{174, 301}";
}
);
layerId = "C0CED439-FB43-4F2F-B9A6-3E073DE83FB3";
paths = (
{
closed = 1;
nodes = (
"624 -366 LINE",
"639 -348 LINE",
"579 -296 OFFCURVE",
"517 -244 OFFCURVE",
"455 -193 CURVE SMOOTH",
"372 -125 OFFCURVE",
"294 -58 OFFCURVE",
"211 9 CURVE SMOOTH",
"123 80 LINE",
"88 37 LINE",
"127 4 LINE",
"149 28 LINE"
);
}
);
width = 376;
}
);
},
{
glyphname = uni0722.Fina;
lastChange = "2018-09-11 18:35:11 +0000";
layers = (
{
anchors = (
{
name = Anchor6;
position = "{123, -391}";
},
{
name = Anchor8;
position = "{110, 286}";
}
);
layerId = "C0CED439-FB43-4F2F-B9A6-3E073DE83FB3";
paths = (
{
closed = 1;
nodes = (
"355 -389 LINE",
"271 -277 OFFCURVE",
"141 -97 OFFCURVE",
"103 19 CURVE",
"104 21 LINE",
"131 11 OFFCURVE",
"170 0 OFFCURVE",
"233 0 CURVE",
"233 25 LINE",
"201 25 OFFCURVE",
"167 29 OFFCURVE",
"129 40 CURVE SMOOTH",
"112 45 OFFCURVE",
"106 46 OFFCURVE",
"101 46 CURVE SMOOTH",
"87 46 OFFCURVE",
"80 31 OFFCURVE",
"80 20 CURVE SMOOTH",
"80 4 OFFCURVE",
"84 -8 OFFCURVE",
"91 -25 CURVE SMOOTH",
"131 -122 OFFCURVE",
"236 -277 OFFCURVE",
"334 -405 CURVE"
);
}
);
width = 233;
}
);
},
{
glyphname = uni0722.Fina.SYRJ;
lastChange = "2018-09-11 18:35:11 +0000";
layers = (
{
anchors = (
{
name = Anchor120;
position = "{132, -379}";
},
{
name = Anchor122;
position = "{124, 268}";
}
);
layerId = "C0CED439-FB43-4F2F-B9A6-3E073DE83FB3";
paths = (
{
closed = 1;
nodes = (
"374 -356 LINE",
"279 -244 OFFCURVE",
"139 -68 OFFCURVE",
"74 27 CURVE",
"78 27 LINE",
"111 2 OFFCURVE",
"175 0 OFFCURVE",
"216 0 CURVE SMOOTH",
"225 0 LINE",
"225 25 LINE",
"221 25 LINE SMOOTH",
"152 25 OFFCURVE",
"106 31 OFFCURVE",
"86 50 CURVE SMOOTH",
"82 54 OFFCURVE",
"80 57 OFFCURVE",
"76 62 CURVE SMOOTH",
"61 80 OFFCURVE",
"57 81 OFFCURVE",
"49 81 CURVE SMOOTH",
"41 81 OFFCURVE",
"34 74 OFFCURVE",
"34 61 CURVE SMOOTH",
"34 45 OFFCURVE",
"46 24 OFFCURVE",
"54 13 CURVE SMOOTH",
"111 -70 OFFCURVE",
"262 -268 OFFCURVE",
"354 -371 CURVE"
);
}
);
width = 225;
}
);
},
{
glyphname = uni0722.Fina.SYRN;
lastChange = "2018-09-11 18:35:11 +0000";
layers = (
{
anchors = (
{
name = Anchor64;
position = "{151, -444}";
},
{
name = Anchor66;
position = "{121, 323}";
}
);
layerId = "C0CED439-FB43-4F2F-B9A6-3E073DE83FB3";
paths = (
{
closed = 1;
nodes = (
"237 -356 LINE",
"186 -301 OFFCURVE",
"144 -243 OFFCURVE",
"117 -179 CURVE SMOOTH",
"96 -128 OFFCURVE",
"85 -73 OFFCURVE",
"85 -18 CURVE SMOOTH",
"85 6 OFFCURVE",
"88 36 OFFCURVE",
"93 51 CURVE",
"95 51 LINE",
"122 22 OFFCURVE",
"172 0 OFFCURVE",
"227 0 CURVE",
"227 25 LINE",
"165 25 OFFCURVE",
"131 49 OFFCURVE",
"98 78 CURVE",
"76 78 LINE",
"67 56 OFFCURVE",
"60 17 OFFCURVE",
"60 -27 CURVE SMOOTH",
"60 -160 OFFCURVE",
"121 -266 OFFCURVE",
"218 -372 CURVE"
);
}
);
width = 227;
}
);
},
{
glyphname = uni0722.Medi;
lastChange = "2018-09-11 18:35:11 +0000";
layers = (
{
anchors = (
{
name = Anchor6;
position = "{140, -97}";
},
{
name = Anchor8;
position = "{112, 486}";
}
);
layerId = "C0CED439-FB43-4F2F-B9A6-3E073DE83FB3";
paths = (
{
closed = 1;
nodes = (
"271 25 LINE",
"219 25 OFFCURVE",
"207 34 OFFCURVE",
"190 114 CURVE SMOOTH",
"172 198 OFFCURVE",
"161 269 OFFCURVE",
"146 373 CURVE",
"119 368 LINE",
"136 261 OFFCURVE",
"150 179 OFFCURVE",
"157 142 CURVE SMOOTH",
"164 105 OFFCURVE",
"175 59 OFFCURVE",
"185 40 CURVE",
"172 26 OFFCURVE",
"114 25 OFFCURVE",
"88 25 CURVE SMOOTH",
"0 25 LINE SMOOTH",
"-19 25 OFFCURVE",
"-40 21 OFFCURVE",
"-40 13 CURVE SMOOTH",
"-40 4 OFFCURVE",
"-19 0 OFFCURVE",
"0 0 CURVE SMOOTH",
"86 0 LINE SMOOTH",
"130 0 OFFCURVE",
"172 2 OFFCURVE",
"198 18 CURVE",
"201 18 LINE",
"215 5 OFFCURVE",
"235 0 OFFCURVE",
"271 0 CURVE"
);
}
);
width = 271;
}
);
},
{
glyphname = uni0722.Medi.SYRJ;
lastChange = "2018-09-11 18:35:11 +0000";
layers = (
{
anchors = (
{
name = Anchor120;
position = "{144, -98}";
},
{
name = Anchor122;
position = "{147, 447}";
}
);
layerId = "C0CED439-FB43-4F2F-B9A6-3E073DE83FB3";
paths = (
{
closed = 1;
nodes = (
"293 25 LINE",
"209 25 OFFCURVE",
"180 33 OFFCURVE",
"162 67 CURVE",
"173 99 OFFCURVE",
"174 164 OFFCURVE",
"174 196 CURVE SMOOTH",
"174 234 OFFCURVE",
"172 292 OFFCURVE",
"169 318 CURVE",
"145 316 LINE",
"147 289 OFFCURVE",
"149 247 OFFCURVE",
"149 195 CURVE SMOOTH",
"149 130 OFFCURVE",
"146 90 OFFCURVE",
"136 69 CURVE SMOOTH",
"120 35 OFFCURVE",
"84 25 OFFCURVE",
"24 25 CURVE SMOOTH",
"0 25 LINE SMOOTH",
"-19 25 OFFCURVE",
"-40 21 OFFCURVE",
"-40 13 CURVE SMOOTH",
"-40 4 OFFCURVE",
"-19 0 OFFCURVE",
"0 0 CURVE SMOOTH",
"24 0 LINE SMOOTH",
"76 0 OFFCURVE",
"122 6 OFFCURVE",
"149 43 CURVE",
"176 5 OFFCURVE",
"205 0 OFFCURVE",
"293 0 CURVE"
);
}
);
width = 293;
}
);
},
{
glyphname = uni0722.Medi.SYRN;
lastChange = "2018-09-11 18:35:11 +0000";
layers = (
{
anchors = (
{
name = Anchor64;
position = "{156, -98}";
},
{
name = Anchor66;
position = "{154, 498}";
}
);
layerId = "C0CED439-FB43-4F2F-B9A6-3E073DE83FB3";
paths = (
{
closed = 1;
nodes = (
"293 25 LINE",
"252 25 OFFCURVE",
"232 44 OFFCURVE",
"214 152 CURVE SMOOTH",
"206 197 OFFCURVE",
"197 268 OFFCURVE",
"194 374 CURVE SMOOTH",
"194 377 LINE",
"167 377 LINE SMOOTH",
"143 377 OFFCURVE",
"139 377 OFFCURVE",
"116 379 CURVE",
"116 354 LINE",
"138 352 OFFCURVE",
"141 352 OFFCURVE",
"158 352 CURVE SMOOTH",
"170 352 LINE",
"174 264 OFFCURVE",
"182 200 OFFCURVE",
"189 150 CURVE SMOOTH",
"196 101 OFFCURVE",
"209 48 OFFCURVE",
"230 25 CURVE",
"0 25 LINE SMOOTH",
"-19 25 OFFCURVE",
"-40 21 OFFCURVE",
"-40 13 CURVE SMOOTH",
"-40 4 OFFCURVE",
"-19 0 OFFCURVE",
"0 0 CURVE SMOOTH",
"228 0 LINE",
"235 18 LINE",
"237 18 LINE",
"250 7 OFFCURVE",
"261 0 OFFCURVE",
"293 0 CURVE"
);
}
);
width = 293;
}
);
},
{
glyphname = uni0722.Init;
lastChange = "2018-09-11 18:35:11 +0000";
layers = (
{
anchors = (
{
name = Anchor6;
position = "{132, -97}";
},
{
name = Anchor8;
position = "{114, 485}";
}
);
layerId = "C0CED439-FB43-4F2F-B9A6-3E073DE83FB3";
paths = (
{
closed = 1;
nodes = (
"194 81 OFFCURVE",
"160 289 OFFCURVE",
"140 373 CURVE",
"113 368 LINE",
"135 280 OFFCURVE",
"167 80 OFFCURVE",
"170 25 CURVE",
"142 25 OFFCURVE",
"113 25 OFFCURVE",
"85 25 CURVE SMOOTH",
"0 25 LINE SMOOTH",
"-19 25 OFFCURVE",
"-40 21 OFFCURVE",
"-40 13 CURVE SMOOTH",
"-40 4 OFFCURVE",
"-19 0 OFFCURVE",
"0 0 CURVE SMOOTH",
"166 0 LINE SMOOTH",
"178 0 OFFCURVE",
"185 3 OFFCURVE",
"189 9 CURVE",
"194 14 OFFCURVE",
"195 22 OFFCURVE",
"195 30 CURVE SMOOTH"
);
}
);
width = 271;
}
);
},
{
glyphname = uni0722.Init.SYRJ;
lastChange = "2018-09-11 18:35:11 +0000";
layers = (
{
anchors = (
{
name = Anchor120;
position = "{125, -98}";
},
{
name = Anchor122;
position = "{147, 447}";
}
);
layerId = "C0CED439-FB43-4F2F-B9A6-3E073DE83FB3";
paths = (
{
closed = 1;
nodes = (
"145 316 LINE",
"148 273 OFFCURVE",
"149 234 OFFCURVE",
"149 201 CURVE SMOOTH",
"149 150 OFFCURVE",
"145 110 OFFCURVE",
"138 88 CURVE SMOOTH",
"123 40 OFFCURVE",
"92 25 OFFCURVE",
"37 25 CURVE SMOOTH",
"0 25 LINE SMOOTH",
"-19 25 OFFCURVE",
"-40 21 OFFCURVE",
"-40 13 CURVE SMOOTH",
"-40 4 OFFCURVE",
"-19 0 OFFCURVE",
"0 0 CURVE SMOOTH",
"38 0 LINE SMOOTH",
"114 0 OFFCURVE",
"147 33 OFFCURVE",
"162 81 CURVE SMOOTH",
"173 115 OFFCURVE",
"174 157 OFFCURVE",
"174 200 CURVE SMOOTH",
"174 222 OFFCURVE",
"173 280 OFFCURVE",
"169 318 CURVE"
);
}
);
width = 276;
}
);
},
{
glyphname = uni0722.Init.SYRN;
lastChange = "2018-09-11 18:35:11 +0000";
layers = (
{
anchors = (
{
name = Anchor64;
position = "{153, -97}";
},
{
name = Anchor66;
position = "{154, 499}";
}
);
layerId = "C0CED439-FB43-4F2F-B9A6-3E073DE83FB3";
paths = (
{
closed = 1;
nodes = (
"246 0 LINE",
"254 20 LINE",
"237 63 OFFCURVE",
"225 98 OFFCURVE",
"214 158 CURVE SMOOTH",
"202 224 OFFCURVE",
"195 305 OFFCURVE",
"195 374 CURVE SMOOTH",
"195 377 LINE",
"167 377 LINE SMOOTH",
"143 377 OFFCURVE",
"139 377 OFFCURVE",
"116 379 CURVE",
"116 354 LINE",
"138 352 OFFCURVE",
"141 352 OFFCURVE",
"158 352 CURVE SMOOTH",
"170 352 LINE",
"174 257 OFFCURVE",
"182 191 OFFCURVE",
"192 140 CURVE SMOOTH",
"205 73 OFFCURVE",
"221 40 OFFCURVE",
"227 25 CURVE",
"0 25 LINE SMOOTH",
"-19 25 OFFCURVE",
"-40 21 OFFCURVE",
"-40 13 CURVE SMOOTH",
"-40 4 OFFCURVE",
"-19 0 OFFCURVE",
"0 0 CURVE SMOOTH"
);
}
);
width = 322;
}
);
},
{
glyphname = uni0723;
lastChange = "2018-09-11 18:35:11 +0000";
layers = (
{
anchors = (
{
name = Anchor6;
position = "{433, -98}";
},
{
name = Anchor8;
position = "{432, 442}";
}
);
layerId = "C0CED439-FB43-4F2F-B9A6-3E073DE83FB3";
paths = (
{
closed = 1;
nodes = (
"509 0 LINE SMOOTH",
"679 0 OFFCURVE",
"755 31 OFFCURVE",
"755 183 CURVE SMOOTH",
"755 306 OFFCURVE",
"681 379 OFFCURVE",
"590 379 CURVE SMOOTH",
"525 379 OFFCURVE",
"453 347 OFFCURVE",
"425 236 CURVE",
"422 236 LINE",
"400 336 OFFCURVE",
"341 389 OFFCURVE",
"248 389 CURVE SMOOTH",
"160 389 OFFCURVE",
"78 322 OFFCURVE",
"78 199 CURVE SMOOTH",
"78 80 OFFCURVE",
"141 0 OFFCURVE",
"292 0 CURVE SMOOTH"
);
},
{
closed = 1;
nodes = (
"413 25 LINE",
"288 25 LINE SMOOTH",
"198 25 OFFCURVE",
"104 62 OFFCURVE",
"104 195 CURVE SMOOTH",
"104 310 OFFCURVE",
"176 364 OFFCURVE",
"249 364 CURVE SMOOTH",
"363 364 OFFCURVE",
"406 268 OFFCURVE",
"410 131 CURVE SMOOTH"
);
},
{
closed = 1;
nodes = (
"439 25 LINE",
"436 77 OFFCURVE",
"436 127 OFFCURVE",
"436 146 CURVE SMOOTH",
"436 277 OFFCURVE",
"498 354 OFFCURVE",
"587 354 CURVE SMOOTH",
"679 354 OFFCURVE",
"729 279 OFFCURVE",
"729 181 CURVE SMOOTH",
"729 52 OFFCURVE",
"663 25 OFFCURVE",
"539 25 CURVE SMOOTH"
);
}
);
width = 833;
}
);
unicode = 0723;
},
